<?xml version="1.0" standalone="no"?>
<!DOCTYPE svg PUBLIC "-//W3C//DTD SVG 20010904//EN"
 "http://www.w3.org/TR/2001/REC-SVG-20010904/DTD/svg10.dtd">
<svg version="1.0" xmlns="http://www.w3.org/2000/svg"
 width="1792.000000pt" height="1476.000000pt" viewBox="0 0 1792.000000 1476.000000"
 preserveAspectRatio="xMidYMid meet">
<metadata>
Created by potrace 1.16, written by Peter Selinger 2001-2019
</metadata>
<g transform="translate(0.000000,1224.000000) scale(0.100000,-0.100000)"
fill="#000000" stroke="none">
<path d="M6585 11449 c-278 -65 -343 -89 -401 -150 -16 -17 -58 -48 -94 -69
-86 -51 -185 -155 -277 -290 -36 -53 -197 -366 -237 -460 -52 -122 -61 -139
-90 -155 -15 -10 -37 -32 -47 -50 -11 -17 -30 -37 -44 -43 -24 -11 -35 -42
-15 -42 6 0 10 5 10 12 0 6 2 9 5 6 7 -7 -19 -127 -41 -188 -9 -25 -31 -77
-49 -116 -18 -39 -43 -102 -55 -140 -34 -112 -50 -386 -50 -846 l1 -246 -31
-19 c-18 -10 -38 -32 -45 -49 -7 -17 -34 -63 -59 -101 -25 -39 -46 -77 -46
-86 0 -9 -10 -25 -22 -37 -19 -17 -20 -20 -4 -20 12 0 16 -6 14 -21 -4 -29
-56 -44 -191 -58 -68 -7 -117 -17 -133 -28 -15 -9 -81 -42 -148 -73 -67 -31
-142 -70 -166 -85 -61 -39 -161 -141 -195 -199 -41 -70 -75 -211 -75 -312 l0
-84 -117 1 c-65 1 -182 4 -261 8 l-142 6 0 -30 c0 -34 -14 -364 -35 -840 -8
-181 -19 -433 -25 -560 -9 -204 -15 -336 -35 -710 -3 -55 -7 -127 -10 -160 -3
-33 -7 -116 -10 -185 -3 -69 -10 -199 -15 -290 -6 -91 -14 -257 -20 -370 -17
-344 -30 -590 -35 -690 -3 -52 -10 -176 -15 -275 -5 -99 -14 -265 -20 -370 -6
-104 -12 -201 -15 -215 -2 -14 -7 -95 -10 -180 -3 -85 -8 -171 -10 -190 -4
-36 -8 -90 -25 -435 -6 -110 -13 -234 -15 -275 -2 -41 -4 -91 -5 -111 -1 -74
12 -71 -345 -70 -175 1 -350 4 -389 6 -39 2 -208 7 -376 10 -168 3 -343 8
-390 11 -47 2 -123 6 -169 9 -92 4 -101 10 -101 65 0 19 0 44 0 55 -1 11 2
157 5 325 4 168 5 303 2 300 -5 -5 -7 -22 -26 -285 -6 -82 -13 -175 -16 -205
-2 -30 -4 -67 -5 -82 0 -16 -5 -28 -11 -28 -6 0 -9 7 -5 15 3 8 1 15 -4 15 -6
0 -10 9 -10 20 0 11 -7 20 -15 20 -10 0 -15 11 -15 35 0 24 5 35 15 35 11 0
14 12 12 49 -1 27 1 47 5 45 13 -8 20 17 8 31 -6 8 -9 19 -5 25 3 5 2 10 -3
10 -19 0 -33 54 -22 81 10 23 10 22 7 -9 -4 -34 4 -40 22 -18 8 10 9 16 1 21
-5 3 -7 17 -4 30 5 20 3 23 -15 18 -26 -7 -29 21 -4 36 16 8 16 11 2 28 -22
25 -14 110 12 126 26 16 25 47 -2 47 -16 0 -19 4 -14 22 4 11 7 38 7 60 -1 21
3 38 8 38 5 0 9 15 9 33 1 67 2 99 2 172 0 41 0 90 0 108 0 17 0 43 -1 56 0
14 6 34 14 46 11 17 12 27 2 51 -10 23 -10 41 0 89 6 33 10 72 7 87 -3 16 0
34 6 42 10 11 9 24 0 55 -9 32 -9 56 1 115 10 62 10 81 0 107 -13 30 -12 33
15 55 24 19 26 25 16 38 -14 16 -17 122 -6 173 5 22 4 33 -4 33 -6 0 -11 5
-11 11 0 5 5 7 10 4 6 -3 10 1 10 10 0 9 5 13 10 10 6 -3 10 -2 10 4 0 5 -5
13 -10 16 -6 4 -8 10 -5 15 3 5 1 12 -5 15 -15 9 -8 107 8 123 9 10 10 29 6
64 -5 33 -2 57 6 73 10 20 11 33 2 62 -7 21 -13 52 -15 68 -1 17 -8 -33 -15
-110 -7 -77 -17 -179 -22 -226 -6 -47 -14 -151 -20 -230 -5 -79 -14 -200 -20
-269 -6 -69 -13 -161 -15 -205 -3 -44 -10 -118 -15 -165 -9 -73 -19 -204 -36
-455 -6 -102 -44 -535 -54 -624 -9 -82 -18 -109 -27 -83 -3 6 -9 10 -14 6 -5
-3 -9 1 -9 10 0 8 4 16 9 18 4 2 12 13 15 26 5 16 3 22 -8 22 -12 0 -15 11
-12 58 2 31 7 74 11 95 6 31 5 36 -7 32 -12 -5 -13 2 -7 42 4 26 11 61 15 76
4 17 1 38 -6 52 -7 13 -10 32 -6 42 4 10 7 20 8 23 0 3 9 22 20 43 19 39 19
39 -1 44 -21 5 -30 33 -11 33 5 0 7 13 5 30 -2 16 1 32 6 36 6 4 6 11 -2 20
-14 17 -20 204 -6 221 17 23 19 109 3 122 -15 13 -15 14 17 79 21 41 21 54 3
50 -21 -4 -15 30 16 90 10 19 9 25 -2 32 -8 6 -11 10 -5 10 5 0 5 4 -1 10 -6
6 -9 40 -7 76 2 36 -1 73 -6 82 -7 12 -5 22 5 34 18 19 47 124 39 138 -10 16
-22 11 -28 -11 -3 -12 -10 -18 -15 -15 -17 10 -31 -46 -37 -151 -6 -81 -4
-103 6 -103 9 0 8 -4 -3 -12 -18 -14 -26 -71 -34 -216 -2 -53 -9 -117 -14
-142 -5 -25 -9 -61 -8 -80 1 -34 -9 -184 -18 -265 -2 -22 -9 -52 -15 -68 -9
-20 -8 -31 1 -42 6 -8 8 -20 4 -27 -5 -7 -9 -33 -10 -58 -1 -25 -6 -63 -12
-85 -7 -22 -14 -110 -17 -195 -3 -85 -8 -167 -11 -182 -3 -15 -7 -48 -8 -73
-1 -26 -8 -50 -15 -55 -10 -5 -10 -9 -2 -14 14 -9 6 -146 -11 -194 -9 -24 -9
-37 -1 -51 11 -18 3 -42 -25 -70 -12 -12 -15 -12 -23 0 -5 8 -9 17 -9 22 0 4
-9 7 -21 7 -15 0 -19 4 -15 16 3 9 6 23 7 32 0 14 2 13 9 -3 8 -17 9 -16 11
10 1 24 3 26 6 7 5 -27 23 -29 23 -2 0 11 5 20 10 20 6 0 10 7 10 15 0 8 -5
15 -11 15 -15 0 -38 62 -38 106 -1 21 -1 46 -1 54 0 8 3 30 6 49 5 23 2 36 -7
43 -11 7 -11 11 -1 15 6 2 12 14 12 26 0 18 -2 19 -10 7 -10 -16 -11 -3 -16
242 -1 76 1 138 5 138 3 0 12 9 19 21 12 18 11 20 -5 15 -15 -5 -18 1 -20 41
-2 25 2 52 8 60 8 9 8 13 1 13 -7 0 -9 25 -7 73 2 39 5 72 5 72 1 0 3 80 5
177 2 97 6 181 10 187 3 6 2 19 -3 28 -4 10 -7 34 -5 53 2 19 5 91 7 160 1 69
7 170 13 225 7 55 10 115 7 134 -2 19 1 40 8 48 8 10 9 16 1 21 -7 5 -9 27 -6
62 7 73 7 93 -2 173 -4 37 -12 67 -17 67 -12 0 -68 -62 -64 -69 2 -3 0 -32 -5
-64 -6 -39 -6 -64 2 -78 8 -15 7 -24 -3 -37 -12 -15 -11 -16 5 -3 15 12 17 11
17 -8 0 -11 -6 -21 -13 -21 -14 0 -36 -165 -36 -280 -1 -30 -12 -266 -25 -525
-24 -456 -29 -575 -41 -890 -4 -82 -11 -204 -16 -270 -9 -106 -23 -576 -21
-677 1 -21 -2 -38 -6 -39 -52 -6 -62 -4 -62 13 0 10 6 18 14 18 11 0 11 8 2
41 -10 38 -9 42 14 61 l25 20 -24 -5 c-21 -5 -23 -3 -19 29 2 19 0 34 -5 34
-5 0 -6 8 -2 18 9 21 22 339 15 367 -5 21 0 66 8 62 9 -6 9 234 0 249 -4 6 -4
14 0 18 4 4 8 24 8 44 1 20 4 147 8 282 4 135 9 255 12 267 2 12 -1 25 -6 28
-6 4 -8 9 -6 13 8 14 15 120 21 317 13 434 13 565 3 559 -6 -4 -5 2 1 14 6 12
9 38 5 59 -3 21 -1 58 5 82 11 49 7 63 -13 55 -14 -5 -16 -33 -31 -339 -3 -55
-7 -145 -10 -200 -2 -55 -7 -158 -10 -230 -11 -270 -36 -745 -46 -875 -5 -74
-12 -175 -15 -225 -2 -49 -9 -157 -15 -240 -6 -82 -13 -204 -15 -270 -3 -96
-10 -284 -14 -340 0 -5 -5 -3 -10 5 -8 13 -10 12 -10 -2 0 -10 4 -18 9 -18 4
0 6 -11 3 -25 -2 -14 -8 -25 -13 -25 -20 0 -25 -2 -46 -22 -27 -25 -67 -17
-58 13 4 11 2 19 -6 19 -8 0 -8 4 1 15 10 11 10 19 2 27 -6 6 -8 16 -6 23 3 7
0 16 -6 20 -8 5 -8 11 1 21 10 12 8 18 -7 29 -12 9 -14 14 -6 15 22 0 37 23
39 60 1 19 4 54 6 78 5 38 3 42 -18 42 -19 0 -22 4 -18 21 5 17 2 20 -18 17
-19 -2 -25 2 -27 20 -3 18 1 23 15 22 33 -4 43 0 43 15 0 9 6 12 15 9 12 -5
15 3 14 42 0 27 -3 43 -6 36 -2 -6 -9 -9 -15 -6 -7 4 -8 -4 -3 -24 5 -27 4
-30 -14 -25 -18 4 -19 11 -14 57 3 28 10 54 15 57 5 3 0 9 -11 12 -23 6 -20
33 7 54 12 10 12 15 3 27 -10 11 -10 20 -1 37 9 17 9 23 0 29 -8 5 -5 12 11
24 19 13 22 20 13 34 -7 10 -21 16 -35 14 -17 -2 -20 0 -10 6 11 8 11 10 0 15
-12 4 -11 7 1 16 12 9 13 13 1 20 -10 7 -11 13 -1 31 9 16 9 25 1 33 -17 17
-13 45 7 50 16 4 16 5 0 6 -11 1 -18 9 -18 21 0 11 -7 20 -15 20 -8 0 -15 7
-15 16 0 13 3 14 15 4 12 -10 13 -6 8 27 -3 21 -9 45 -13 53 -9 19 -2 42 11
34 5 -3 9 20 9 51 0 35 -4 54 -10 50 -5 -3 -10 1 -10 9 0 9 5 16 11 16 7 0 10
18 7 50 -1 28 0 50 4 50 4 0 7 42 7 93 0 50 0 99 1 107 2 8 1 22 -1 30 -3 9 3
14 13 14 10 -1 18 2 18 7 0 5 -7 9 -15 9 -13 0 -21 26 -16 54 1 5 2 40 3 78 0
37 4 68 8 68 4 0 5 12 2 26 -2 14 1 36 8 49 7 13 10 29 7 37 -4 9 -6 7 -6 -4
-1 -10 -5 -18 -9 -18 -9 0 -5 104 5 130 3 8 7 69 9 135 4 100 8 219 13 320 2
28 2 137 1 155 -3 63 3 136 13 142 9 5 9 12 2 25 -6 10 -10 29 -9 43 7 128 16
328 15 340 -5 39 1 145 7 150 5 3 9 57 9 120 1 63 5 142 8 175 12 122 10 290
-3 287 -14 -2 -17 24 -3 32 5 3 7 28 5 56 -3 40 0 50 12 50 23 0 11 25 -14 28
-12 2 -22 8 -22 13 0 5 7 9 16 7 25 -5 28 19 3 25 -22 6 -23 10 -3 105 6 30 4
34 -25 45 -34 13 -40 36 -15 62 19 19 14 28 -9 19 -14 -5 -17 -23 -16 -109 0
-56 -5 -131 -12 -166 -9 -48 -10 -64 -1 -67 17 -5 15 -42 -4 -63 -12 -13 -17
-48 -20 -156 -3 -76 -10 -159 -15 -185 -6 -25 -9 -59 -8 -75 2 -15 0 -64 -4
-108 -4 -44 -9 -125 -12 -180 -4 -55 -10 -154 -16 -220 -12 -152 -38 -529 -44
-660 -3 -55 -10 -176 -15 -270 -5 -93 -12 -228 -15 -300 -3 -71 -8 -164 -10
-205 -3 -41 -9 -178 -15 -305 -6 -126 -12 -250 -15 -275 -3 -25 -10 -151 -15
-280 -6 -129 -15 -280 -20 -335 -5 -55 -12 -203 -16 -330 -6 -209 -19 -422
-22 -369 -1 12 -9 24 -17 28 -11 4 -15 -2 -15 -24 0 -34 -23 -40 -56 -15 -16
13 -17 16 -4 25 8 5 20 11 25 14 6 2 4 9 -4 17 -10 11 -15 11 -18 2 -7 -20
-23 -15 -23 8 0 11 4 18 9 14 5 -3 12 -1 15 4 4 5 2 12 -4 16 -15 9 -12 25 5
25 8 0 15 5 15 11 0 6 -7 9 -15 6 -16 -7 -20 -3 -29 35 -5 21 -2 28 14 33 11
3 20 13 20 21 0 8 -4 13 -9 10 -12 -8 -23 31 -22 79 1 40 -16 81 -25 59 -3 -6
-11 -20 -20 -30 -14 -19 -14 -18 -12 1 2 12 -2 19 -10 17 -14 -2 -16 24 -2 33
6 3 10 14 10 23 0 13 -2 14 -9 3 -5 -7 -11 -9 -14 -4 -10 16 7 31 38 35 19 2
29 8 27 17 -1 7 2 19 9 27 9 11 8 15 -5 20 -21 8 -33 73 -15 85 7 4 10 11 7
15 -4 4 -3 14 2 24 7 13 3 26 -15 50 -19 26 -22 37 -14 58 5 14 7 32 5 39 -3
8 1 29 8 48 15 35 11 74 -8 88 -8 6 -7 10 2 14 15 6 16 70 1 75 -9 3 -9 17 0
56 6 29 11 71 11 92 0 30 4 40 16 40 8 0 12 5 9 10 -4 6 -10 8 -15 5 -5 -3 -6
18 -4 47 3 29 6 89 8 133 9 203 22 407 32 500 3 22 5 51 6 65 1 48 38 455 42
475 4 17 19 235 31 450 1 28 5 91 9 140 12 169 16 260 21 430 3 94 8 177 10
185 4 13 17 211 30 440 5 89 14 184 20 223 3 16 0 37 -5 48 -8 13 -7 19 0 19
6 0 11 10 10 23 -1 12 -2 24 -1 27 1 3 3 43 5 90 2 47 7 132 11 190 4 58 5
103 2 100 -8 -8 -28 -184 -33 -285 -2 -49 -8 -124 -13 -165 -26 -210 -64 -674
-81 -1000 -26 -494 -57 -912 -85 -1160 -8 -69 -21 -210 -30 -315 -8 -104 -17
-210 -19 -235 -3 -25 -8 -103 -11 -175 -4 -71 -16 -200 -26 -285 -11 -85 -25
-202 -30 -260 -5 -58 -12 -127 -15 -155 -3 -27 -8 -328 -10 -667 l-5 -618
1890 0 1889 0 7 30 c4 16 11 28 17 27 6 -1 13 4 15 11 3 8 -7 12 -29 13 -27 1
-28 3 -8 6 29 5 59 39 60 66 0 14 5 17 21 12 19 -6 21 -4 16 16 -6 24 16 59
37 59 7 0 10 15 8 40 -4 35 -1 40 16 40 11 0 22 -6 25 -12 4 -10 7 -10 18 0
11 10 10 12 -4 12 -21 0 -22 14 0 46 13 20 14 27 4 33 -17 11 -22 220 -5 235
6 6 9 18 6 28 -2 10 1 18 7 18 6 0 11 6 11 14 0 9 -7 12 -19 9 -27 -7 -37 28
-14 47 13 11 19 32 21 73 3 54 2 58 -24 67 -26 10 -26 11 -9 30 9 10 14 23 11
29 -7 11 121 18 238 13 l74 -3 5 -41 c3 -22 1 -51 -3 -64 -5 -13 -11 -83 -14
-155 -3 -73 -10 -137 -15 -142 -6 -6 -11 -35 -11 -64 0 -28 -6 -77 -14 -107
-8 -30 -18 -88 -22 -128 -4 -40 -13 -79 -21 -87 -9 -8 -14 -31 -12 -60 1 -25
-4 -59 -10 -74 -6 -16 -11 -30 -11 -33 0 -2 1065 -4 2366 -4 1975 0 2365 2
2361 13 -8 22 -25 189 -37 362 -6 88 -15 203 -20 255 -5 52 -14 156 -20 230
-6 74 -17 189 -26 255 -8 66 -23 193 -34 281 -11 89 -33 238 -49 330 -16 93
-32 207 -36 254 -8 115 -21 186 -57 310 -16 58 -35 125 -42 150 -7 25 -27 83
-44 130 -17 47 -38 113 -47 147 -8 34 -18 68 -20 75 -4 10 31 13 172 11 231
-3 229 -3 213 -13 -16 -10 1 -18 95 -45 33 -9 88 -30 122 -46 51 -23 67 -27
88 -19 37 14 68 13 62 -3 -6 -16 29 -20 55 -6 10 5 18 20 19 32 0 20 1 21 8 3
7 -19 8 -19 15 -1 6 17 8 18 24 2 14 -15 15 -20 4 -38 -8 -12 -10 -24 -6 -27
4 -4 9 -1 11 6 5 13 33 17 33 4 0 -4 -5 -13 -11 -19 -14 -14 7 -28 24 -15 7 5
34 13 61 17 54 7 86 23 86 42 0 21 -31 15 -37 -7 -3 -12 -11 -19 -17 -17 -14
5 -11 96 3 110 15 15 31 -3 34 -34 2 -31 34 -58 70 -59 27 0 38 22 17 35 -6 4
-4 12 5 21 19 20 19 48 0 68 -8 8 -15 19 -15 25 0 6 -7 11 -15 11 -9 0 -18 6
-21 14 -4 9 -19 12 -55 9 -43 -3 -50 -1 -47 14 4 19 68 40 77 25 8 -13 32 -17
53 -8 25 11 12 26 -23 26 -16 0 -29 5 -29 10 0 10 38 13 118 10 34 -1 42 2 42
16 0 9 3 15 6 11 4 -3 6 -64 5 -134 0 -131 10 -193 34 -193 7 0 15 9 18 20 7
26 23 26 30 0 9 -33 37 -13 37 25 0 29 4 34 28 38 l27 4 -26 2 c-29 1 -25 -17
-44 236 -3 50 -11 222 -19 445 -1 25 -3 116 -4 203 -1 101 -6 157 -12 157 -7
0 -9 -13 -6 -32 3 -18 8 -190 12 -381 l6 -348 -193 7 c-107 4 -214 8 -239 9
-116 3 -140 6 -140 15 0 6 11 10 25 10 20 0 25 5 25 25 0 14 -6 26 -12 26 -47
5 -57 7 -69 15 -10 6 -8 10 11 15 23 7 23 7 -6 8 -87 3 -121 25 -91 59 8 9 19
31 22 47 4 17 15 36 24 44 14 11 13 12 -8 6 -17 -5 -22 -4 -19 6 6 20 78 25
293 23 102 -1 197 1 213 6 28 8 27 8 -27 14 -8 0 -16 7 -18 14 -5 13 28 17
100 13 l37 -3 0 41 c0 40 -11 53 -26 30 -7 -12 -297 -6 -540 10 -18 1 -21 7
-20 49 1 64 -15 683 -19 702 -2 8 -6 275 -9 594 l-7 579 26 -5 c20 -4 23 -3
14 8 -6 8 -15 11 -20 8 -5 -3 -9 1 -10 8 0 7 -2 34 -5 60 -3 34 0 50 12 62 14
15 14 16 0 16 -11 0 -16 9 -15 28 0 15 -2 329 -5 697 -4 369 -6 681 -6 694 0
19 -3 21 -14 12 -7 -6 -20 -9 -29 -5 -13 5 -15 -39 -11 -398 3 -222 7 -844 9
-1383 2 -539 7 -1004 11 -1032 4 -37 3 -53 -5 -53 -6 0 -11 -8 -11 -17 0 -14
-2 -15 -12 -4 -10 11 -10 14 0 18 18 7 16 80 -4 87 -9 3 -16 6 -17 6 -1 0 -2
-28 -3 -62 -2 -209 -8 -328 -15 -328 -9 0 -4 -103 6 -151 4 -16 2 -29 -3 -29
-5 0 -8 -14 -7 -32 3 -41 -5 -69 -16 -62 -13 7 -11 66 3 119 9 34 9 48 1 53
-11 7 -22 95 -23 190 l0 52 -35 0 c-29 0 -35 4 -35 21 0 15 5 19 15 15 13 -5
15 5 14 62 -1 37 -4 62 -6 55 -8 -23 -29 -2 -26 25 6 44 -11 145 -25 150 -9 3
-11 -3 -7 -20 3 -12 1 -61 -4 -108 l-8 -85 -3 65 c-1 36 -5 55 -7 42 -2 -12
-9 -20 -14 -17 -5 4 -9 -3 -9 -14 0 -12 6 -21 13 -21 9 0 9 -2 0 -8 -6 -4 -14
-34 -16 -67 -2 -43 -4 -32 -5 38 -1 63 2 96 8 92 6 -3 10 -2 10 4 0 5 -5 11
-10 13 -17 5 -21 272 -26 1704 -5 1240 -5 1362 10 1367 9 4 16 15 16 26 0 25
16 36 24 16 7 -20 26 -19 43 3 13 16 15 16 25 1 9 -13 16 -15 34 -7 48 22 52
10 53 -138 1 -76 3 -139 5 -141 5 -5 29 -5 271 -4 124 1 204 5 196 10 -8 5
-108 10 -224 10 -116 1 -214 4 -219 7 -10 6 -10 112 -1 208 l6 68 349 -5 c192
-2 351 -6 353 -8 4 -4 7 -190 7 -409 0 -80 1 -174 2 -210 1 -36 3 -194 4 -352
1 -159 5 -288 10 -288 4 0 6 272 4 605 -2 333 -1 616 2 630 5 19 12 24 31 23
14 -1 25 -8 25 -15 0 -7 4 -13 10 -13 5 0 7 7 4 15 -5 12 6 15 64 15 l70 0 5
-37 c2 -21 5 -132 6 -247 1 -115 3 -212 5 -215 2 -3 7 -226 10 -496 4 -269 9
-528 11 -575 2 -47 7 -222 10 -390 3 -168 8 -352 10 -410 17 -414 22 -656 31
-1593 6 -526 4 -637 -7 -637 -8 0 -5 -6 7 -15 19 -14 19 -14 -1 -15 -17 0 -17
-2 -5 -10 8 -5 16 -14 16 -20 1 -5 2 -14 3 -20 0 -5 12 -10 26 -10 20 0 25 5
25 24 0 24 17 37 48 35 10 0 5 -6 -13 -14 -18 -8 -23 -14 -13 -15 9 0 24 -7
33 -16 21 -22 27 -13 27 36 -1 33 3 40 19 40 12 0 19 -7 19 -20 0 -11 5 -20
11 -20 8 0 9 -4 0 -13 -12 -15 -5 -27 16 -27 7 0 13 9 13 21 0 31 44 22 48
-11 2 -13 10 -33 18 -44 12 -18 14 -18 14 -3 0 11 6 16 18 13 42 -9 61 -19 56
-27 -3 -5 2 -9 11 -9 10 0 15 7 13 18 -2 11 3 16 15 14 12 -2 17 4 17 22 0 36
23 38 36 3 14 -40 26 -43 42 -10 17 38 16 133 -2 133 -7 0 -16 -10 -20 -23 -6
-21 -7 -20 -43 17 -23 24 -33 41 -25 44 6 2 12 11 12 19 0 10 -6 13 -16 9 -13
-5 -15 -1 -12 25 4 25 0 33 -18 41 -13 6 -26 19 -29 30 -10 28 -25 21 -25 -11
0 -17 -6 -31 -16 -35 -24 -9 -25 -8 -18 20 6 24 5 25 -15 14 -14 -7 -20 -18
-17 -28 2 -9 7 -26 10 -38 4 -13 1 -26 -8 -33 -11 -9 -12 -19 -6 -36 7 -18 5
-25 -6 -29 -28 -11 -34 -6 -34 27 0 60 -13 137 -21 131 -12 -7 -11 -62 1 -66
7 -2 6 -19 -3 -48 -9 -33 -18 -46 -34 -48 -19 -3 -21 2 -25 51 -1 31 0 53 5
50 4 -2 7 11 7 30 0 30 -3 34 -20 30 -11 -3 -20 -14 -20 -24 0 -22 -11 -24
-28 -7 -9 9 -12 9 -12 -1 0 -7 -5 -9 -10 -6 -6 4 -10 42 -9 88 0 45 -4 190
-10 322 -5 132 -13 344 -16 470 -3 127 -10 381 -15 565 -4 184 -9 434 -10 555
-1 121 -3 245 -5 275 -2 30 -6 262 -10 515 -4 253 -9 478 -11 500 -2 22 -6
289 -10 593 l-7 552 24 2 c13 1 60 2 104 2 l80 1 11 -115 11 -115 1 112 c2 99
4 113 21 123 12 6 89 8 213 4 106 -3 263 -6 348 -7 l155 -2 6 -68 c6 -76 20
-103 18 -36 -2 86 0 99 19 99 10 0 27 -7 38 -15 20 -15 56 -20 51 -7 -1 4 2 7
8 7 15 0 17 -37 3 -47 -9 -6 -7 -8 7 -6 12 2 21 12 23 26 3 22 26 29 49 14 13
-8 26 -222 38 -632 5 -190 7 -225 30 -895 21 -582 35 -806 29 -440 -3 143 -7
292 -9 330 -3 39 -7 174 -10 300 -5 264 -15 594 -20 740 -4 90 -6 387 -5 552
0 59 2 63 26 69 16 4 29 2 34 -6 5 -9 9 -9 14 -1 8 12 80 14 110 2 14 -5 20
-20 23 -52 9 -114 11 -137 12 -186 1 -29 6 -53 11 -53 7 0 9 49 6 138 -3 76
-1 143 2 149 5 7 60 10 162 8 179 -3 173 -2 166 -14 -3 -5 1 -12 9 -15 9 -3
18 1 21 9 7 17 104 22 104 5 0 -5 -18 -10 -40 -10 -23 0 -40 -5 -40 -11 0 -8
12 -9 38 -3 20 4 53 7 72 7 30 -1 32 0 13 8 -13 4 -23 10 -23 13 0 2 54 4 120
4 l120 0 1 -26 c2 -62 -3 -167 -7 -172 -3 -2 -9 2 -13 9 -7 11 -10 11 -14 0
-5 -12 -7 -12 -15 -1 -8 11 -10 11 -15 0 -6 -18 49 -42 57 -24 2 6 5 -2 5 -17
1 -16 -3 -26 -9 -22 -5 3 -10 1 -10 -4 0 -6 -18 -11 -40 -11 -29 0 -40 4 -40
15 0 8 -4 15 -10 15 -5 0 -10 7 -10 16 0 10 6 13 18 10 16 -5 17 -1 12 41 l-5
48 -42 3 c-43 3 -43 3 -43 -30 0 -19 5 -39 12 -46 9 -9 9 -12 0 -12 -7 0 -12
5 -12 11 0 6 -6 9 -14 6 -8 -3 -20 0 -26 8 -6 7 -20 15 -30 18 -16 4 -20 0
-20 -19 0 -14 -6 -24 -15 -24 -9 0 -12 -6 -9 -15 9 -22 34 -18 34 5 0 11 4 20
10 20 6 0 6 -9 0 -26 -6 -14 -8 -29 -5 -34 7 -12 -77 -18 -99 -7 -13 6 -21 5
-26 -3 -4 -6 -15 -10 -25 -8 -10 2 -20 -1 -21 -7 -3 -6 32 -11 89 -12 50 -1
113 -4 140 -6 26 -3 56 -5 68 -6 11 0 17 -5 14 -11 -9 -15 -142 -13 -147 2 -3
8 -11 5 -25 -9 -11 -11 -29 -26 -39 -32 -18 -10 -18 -10 1 -12 11 -1 24 -1 29
0 5 1 16 -1 25 -5 15 -6 39 -6 138 -2 24 1 46 -2 50 -5 4 -4 8 -31 9 -60 2
-28 5 -102 7 -163 3 -62 10 -121 16 -133 7 -12 10 -53 7 -106 -5 -80 -4 -85
16 -85 19 0 20 4 15 75 -4 59 -2 75 9 75 26 0 34 -40 34 -174 0 -98 3 -135 13
-139 9 -3 9 -7 -1 -19 -10 -13 -10 -17 3 -22 12 -4 15 5 15 59 0 36 -4 65 -9
65 -4 0 -7 24 -5 53 5 79 4 120 -1 272 -11 329 -17 655 -11 655 4 0 11 -10 16
-22 6 -16 9 8 9 80 l1 102 -42 1 c-99 3 -243 -4 -248 -11 -6 -9 -110 -8 -110
1 0 3 -21 4 -47 2 -43 -3 -389 -13 -470 -13 -20 0 -32 -5 -30 -12 2 -13 -52
-18 -80 -7 -12 5 -3 8 26 8 56 1 50 7 -12 13 -43 5 -47 4 -42 -13 5 -13 1 -19
-10 -19 -11 0 -15 5 -11 15 3 8 2 15 -2 15 -166 8 -331 10 -335 3 -3 -5 27 -9
66 -10 223 -5 232 -5 202 -13 -29 -6 -435 -4 -785 5 -91 2 -214 4 -274 4 -60
1 -106 4 -103 8 4 4 186 6 404 4 219 -1 395 0 393 2 -3 2 -194 7 -425 11 -231
4 -463 9 -515 11 -52 2 -232 7 -400 10 -262 6 -391 9 -607 18 -23 1 -44 5 -47
8 -14 14 -66 -5 -82 -30 -10 -14 -23 -32 -30 -38 -7 -7 -22 -25 -33 -39 -12
-15 -24 -25 -26 -22 -8 8 -32 166 -45 298 -7 63 -21 150 -31 194 -23 94 -23
96 -6 96 14 0 57 52 57 69 0 5 -11 12 -25 15 -14 4 -29 14 -32 24 -9 22 -34
41 -49 35 -6 -2 -14 3 -17 11 -4 9 -12 16 -19 16 -7 0 -34 20 -60 44 -58 55
-118 96 -225 156 l-84 47 25 16 c13 9 26 12 28 7 5 -14 79 23 122 61 21 18 49
49 61 69 46 73 79 231 61 300 -3 14 -10 69 -15 123 -6 55 -16 109 -24 120 -17
27 -39 92 -43 129 -3 25 -53 158 -75 200 -5 10 -9 26 -9 37 0 10 -6 24 -14 30
-8 7 -17 28 -21 48 -6 33 -22 71 -36 83 -3 3 -16 32 -28 65 -13 33 -27 69 -32
80 -16 36 -59 175 -59 193 0 9 -9 36 -20 59 -10 23 -21 61 -24 85 -3 24 -9 58
-15 76 -9 29 2 48 12 20 2 -7 2 -2 0 12 -3 14 -9 27 -13 30 -5 3 -19 37 -30
75 -11 39 -25 78 -30 87 -6 10 -10 25 -10 33 0 8 -4 23 -10 33 -5 9 -23 48
-41 86 -17 38 -38 76 -46 85 -9 8 -29 42 -44 75 -16 33 -32 62 -36 65 -8 6
-39 61 -104 189 -52 100 -130 191 -224 260 -27 20 -52 39 -55 43 -4 6 -35 26
-195 127 -22 14 -53 34 -68 44 -79 54 -232 72 -290 33 -24 -15 -26 -15 -41 7
-9 12 -16 27 -16 33 0 9 -36 47 -43 44 -1 -1 -20 -5 -42 -10z m58 -33 c17 -13
23 -37 11 -48 -7 -7 -61 45 -56 55 5 11 25 8 45 -7z m156 -897 c7 -10 20 -19
27 -19 7 0 17 -15 22 -32 5 -19 18 -38 33 -45 17 -9 23 -19 21 -36 -2 -16 8
-33 32 -55 20 -18 39 -32 44 -32 12 0 34 -49 26 -61 -3 -5 4 -26 15 -45 12
-19 21 -45 21 -57 0 -12 4 -28 9 -36 5 -7 4 -28 -2 -48 -8 -27 -8 -36 2 -42
20 -13 -27 -63 -51 -55 -13 4 -21 -2 -27 -19 -5 -14 -21 -27 -35 -31 -14 -3
-25 -12 -23 -19 1 -8 -11 -12 -33 -12 -32 0 -35 -3 -38 -30 -5 -54 -2 -79 9
-86 8 -4 8 -12 1 -25 -13 -25 -15 -134 -2 -134 6 0 10 -9 10 -19 0 -11 5 -23
10 -26 6 -3 10 -17 10 -29 0 -26 22 -36 76 -36 17 0 47 -12 70 -30 22 -16 60
-33 83 -39 51 -11 91 -45 91 -78 0 -13 4 -23 9 -23 10 0 8 -43 -3 -77 -15 -46
-145 -43 -183 5 -90 112 -117 142 -127 142 -6 0 -22 -7 -34 -16 -21 -15 -21
-16 -5 -47 9 -18 20 -54 24 -82 4 -27 12 -69 17 -92 5 -24 6 -43 1 -43 -4 0
-15 -7 -23 -15 -21 -22 -73 -27 -90 -9 -8 8 -21 14 -29 14 -25 0 -28 28 -5 45
l22 15 -24 25 c-13 14 -29 25 -36 25 -16 0 -126 48 -134 58 -3 4 -31 16 -63
26 -91 27 -121 71 -77 111 11 10 17 22 13 28 -4 6 3 8 18 4 21 -5 25 -2 27 17
1 16 -6 26 -22 34 -26 11 -66 6 -66 -10 0 -5 -4 -7 -9 -4 -8 5 -71 -14 -81
-24 -3 -3 -29 -18 -58 -34 -57 -30 -90 -31 -197 -6 -27 6 -59 12 -70 14 -12 1
-27 6 -34 11 -9 5 -20 0 -31 -15 -10 -13 -22 -20 -29 -16 -14 9 -14 0 -1 -25
10 -17 7 -19 -21 -19 -23 0 -30 4 -26 15 4 8 2 17 -3 20 -6 4 -10 16 -10 28 0
18 -2 19 -10 7 -7 -11 -9 -1 -8 33 2 30 -2 51 -10 56 -10 6 -10 11 2 21 10 8
14 21 10 36 -4 16 -2 24 6 24 10 0 10 3 0 15 -9 10 -9 15 -1 15 7 0 11 23 11
65 0 61 4 75 36 152 8 17 14 35 14 40 0 12 62 107 72 111 5 2 8 10 8 18 0 8
11 20 25 26 14 6 26 15 26 20 1 4 2 14 3 20 0 7 19 22 41 34 22 11 39 28 39
36 -1 10 5 14 17 11 11 -3 19 0 19 7 0 16 52 70 61 64 5 -2 18 9 30 25 12 16
39 37 60 47 22 9 39 21 39 25 0 15 53 58 64 52 6 -4 7 1 2 13 -4 10 -4 15 0
12 10 -10 63 20 89 50 12 14 44 33 71 43 27 9 67 24 89 33 52 20 134 13 154
-15z m-1496 -705 c-9 -27 -18 -43 -21 -35 -4 12 28 95 35 88 1 -2 -5 -26 -14
-53z m-23 -161 c-6 -35 -15 -73 -20 -85 -14 -36 -13 63 2 134 10 50 13 56 21
36 5 -13 4 -49 -3 -85z m391 44 c-13 -13 -26 -3 -16 12 3 6 11 8 17 5 6 -4 6
-10 -1 -17z m19 -59 c0 -13 -32 -6 -37 9 -3 7 3 9 16 6 12 -3 21 -10 21 -15z
m200 -298 c0 -5 -2 -10 -4 -10 -3 0 -8 5 -11 10 -3 6 -1 10 4 10 6 0 11 -4 11
-10z m520 -15 c7 -8 9 -15 5 -15 -4 0 -2 -6 4 -13 6 -8 8 -16 5 -19 -3 -4 4
-24 15 -47 12 -22 21 -43 21 -46 0 -9 -69 -5 -115 7 -25 7 -45 16 -45 20 0 5
-11 13 -25 18 -46 18 -26 55 53 96 35 18 66 18 82 -1z m-322 -120 c-3 -3 -9 2
-12 12 -6 14 -5 15 5 6 7 -7 10 -15 7 -18z m9 -37 c-3 -8 -6 -5 -6 6 -1 11 2
17 5 13 3 -3 4 -12 1 -19z m338 -45 c17 -3 39 -12 50 -20 11 -7 28 -13 38 -13
10 0 30 -6 45 -14 15 -8 70 -17 122 -20 52 -4 96 -9 98 -11 3 -2 -3 -16 -12
-29 -9 -15 -12 -27 -6 -31 5 -3 7 -20 3 -37 -6 -29 -5 -30 16 -18 13 6 23 10
24 8 1 -2 12 -17 25 -35 29 -42 28 -67 -4 -92 -15 -12 -22 -21 -16 -21 6 0 -2
-12 -16 -27 -15 -16 -36 -41 -47 -57 -26 -37 -40 -51 -78 -81 -27 -20 -40 -23
-77 -18 -25 3 -49 9 -55 13 -5 5 -32 11 -60 15 -44 5 -83 12 -172 31 -38 7
-90 62 -123 126 -31 64 -37 96 -21 126 6 9 12 29 16 45 3 18 12 27 24 27 11 0
26 7 35 15 20 20 23 19 35 -15 10 -30 25 -38 36 -20 10 17 25 11 25 -9 0 -11
14 -31 30 -44 17 -14 30 -32 30 -40 0 -28 238 -64 254 -38 9 14 -4 41 -20 41
-8 0 -14 6 -14 14 0 15 -21 26 -50 26 -9 0 -22 6 -28 13 -6 6 -34 21 -63 32
-61 23 -134 88 -125 111 3 9 9 27 12 41 5 17 11 22 23 18 9 -4 30 -9 46 -12z
m1354 -105 c1 -26 -3 -50 -9 -53 -12 -8 -11 -15 -16 74 -5 87 5 127 17 66 4
-22 8 -61 8 -87z m-146 77 c-3 -9 -8 -14 -10 -11 -3 3 -2 9 2 15 9 16 15 13 8
-4z m-1406 -47 c-3 -8 -6 -5 -6 6 -1 11 2 17 5 13 3 -3 4 -12 1 -19z m1383
-93 c-12 -25 -25 -44 -27 -41 -3 3 5 26 17 51 12 25 25 44 27 41 3 -3 -5 -26
-17 -51z m-625 5 c3 -5 1 -10 -4 -10 -6 0 -11 5 -11 10 0 6 2 10 4 10 3 0 8
-4 11 -10z m690 -60 c-4 -11 -2 -20 4 -20 6 0 7 -8 4 -17 -5 -13 -8 -13 -11
-4 -3 8 -10 2 -17 -16 -12 -29 -81 -91 -90 -81 -7 6 96 158 107 158 5 0 6 -9
3 -20z m-2451 -186 c3 -7 1 -16 -3 -19 -12 -7 -21 32 -20 85 l1 45 8 -49 c5
-26 11 -54 14 -62z m2606 25 c0 -10 -4 -19 -9 -19 -5 0 -17 -3 -26 -6 -16 -6
-16 -5 -1 25 18 33 36 33 36 0z m360 -89 c0 -16 -4 -30 -8 -30 -5 0 -7 14 -4
30 2 17 6 30 8 30 2 0 4 -13 4 -30z m-3014 -48 c-14 -14 -29 -23 -32 -19 -10
10 37 58 48 50 6 -3 -2 -17 -16 -31z m2404 3 c0 -12 -64 -75 -75 -75 -7 0 -15
9 -18 21 -3 13 -1 19 6 16 7 -2 25 7 40 19 27 23 47 31 47 19z m-124 -50 c-3
-8 -17 -15 -31 -15 -16 0 -24 4 -20 11 4 6 10 8 13 5 3 -3 12 4 20 16 16 23
29 10 18 -17z m-2233 -61 c-1 -21 -3 -48 -3 -58 -2 -31 -23 -1 -26 36 -4 43 5
70 19 65 7 -2 11 -20 10 -43z m2387 26 c0 -5 -4 -10 -10 -10 -5 0 -10 5 -10
10 0 6 5 10 10 10 6 0 10 -4 10 -10z m-35 -30 c-3 -5 -10 -10 -16 -10 -5 0 -9
5 -9 10 0 6 7 10 16 10 8 0 12 -4 9 -10z m477 -102 c-19 -16 -37 -26 -40 -23
-4 4 8 20 26 37 19 16 37 26 40 23 4 -4 -8 -20 -26 -37z m-2983 -67 c9 -6 10
-11 2 -15 -13 -8 -31 1 -31 15 0 11 11 11 29 0z m4198 -957 c-3 -3 -12 -4 -19
-1 -8 3 -5 6 6 6 11 1 17 -2 13 -5z m613 -4 c0 -5 -4 -10 -10 -10 -5 0 -10 5
-10 10 0 6 5 10 10 10 6 0 10 -4 10 -10z m1260 -20 c0 -5 -4 -10 -10 -10 -5 0
-10 5 -10 10 0 6 5 10 10 10 6 0 10 -4 10 -10z m203 3 c-7 -2 -19 -2 -25 0 -7
3 -2 5 12 5 14 0 19 -2 13 -5z m47 -3 c0 -5 -4 -10 -10 -10 -5 0 -10 5 -10 10
0 6 5 10 10 10 6 0 10 -4 10 -10z m155 0 c3 -5 -3 -10 -15 -10 -12 0 -18 5
-15 10 3 6 10 10 15 10 5 0 12 -4 15 -10z m45 0 c0 -5 -5 -10 -11 -10 -5 0 -7
5 -4 10 3 6 8 10 11 10 2 0 4 -4 4 -10z m-7501 -16 c17 -5 8 -115 -20 -253
-31 -151 -24 -211 32 -283 18 -22 40 -73 55 -125 23 -80 98 -306 219 -655 25
-70 49 -158 55 -195 6 -37 15 -77 20 -88 4 -11 11 -28 14 -39 4 -13 13 -17 27
-13 15 4 23 -1 32 -21 6 -15 16 -30 21 -33 5 -4 5 -12 1 -19 -5 -8 -4 -11 2
-7 11 7 26 -16 28 -43 0 -8 6 -14 13 -12 15 3 15 -4 2 -29 -7 -13 -7 -19 0
-19 5 0 10 -9 10 -21 0 -11 5 -17 10 -14 6 3 10 -1 10 -10 0 -9 -4 -14 -9 -11
-5 4 -7 -3 -4 -14 3 -11 8 -18 12 -16 3 3 6 -13 6 -35 0 -22 5 -43 10 -47 15
-10 59 -134 120 -337 15 -49 47 -148 70 -220 24 -71 49 -170 56 -220 11 -83
10 -98 -10 -195 -22 -102 -66 -274 -96 -375 -18 -59 -55 -249 -57 -285 0 -26
-14 -124 -24 -173 -3 -16 -8 -26 -12 -23 -7 8 -11 106 -3 102 3 -2 5 32 3 76
-2 44 -5 78 -7 76 -2 -1 -8 -84 -14 -183 -19 -303 -22 -335 -37 -335 -8 0 -14
5 -14 10 0 6 5 10 10 10 17 0 11 47 -6 54 -18 7 -47 -11 -39 -24 3 -4 -4 -10
-15 -13 -13 -3 -20 0 -20 9 0 19 -16 18 -24 -1 -6 -17 -43 -20 -48 -5 -2 7
-64 12 -166 14 -109 1 -166 6 -174 14 -7 7 -23 12 -37 12 l-24 0 6 125 c3 69
4 125 3 125 -2 0 -23 -7 -46 -15 -23 -8 -75 -16 -114 -16 -39 -1 -58 -4 -43
-6 54 -8 20 -28 -131 -76 l-152 -49 -1 -37 c0 -28 -2 -32 -9 -16 -6 16 -9 10
-12 -25 -11 -113 -7 159 7 443 29 614 45 956 55 1192 6 132 17 366 25 520 8
154 19 422 25 595 6 173 17 437 25 585 9 149 19 353 24 454 5 125 12 186 19
189 7 2 12 10 12 17 0 8 12 16 28 18 31 5 280 -2 301 -9z m4596 -194 c3 -5 1
-10 -4 -10 -6 0 -11 5 -11 10 0 6 2 10 4 10 3 0 8 -4 11 -10z m3385 -20 c0 -5
-2 -10 -4 -10 -3 0 -8 5 -11 10 -3 6 -1 10 4 10 6 0 11 -4 11 -10z m-3430 -12
c0 -4 -9 -8 -20 -8 -11 0 -20 4 -20 8 0 4 9 8 20 8 11 0 20 -4 20 -8z m3507
-365 c-3 -10 -5 -4 -5 12 0 17 2 24 5 18 2 -7 2 -21 0 -30z m33 -39 c0 -9 -5
-14 -12 -12 -18 6 -21 28 -4 28 9 0 16 -7 16 -16z m-14 -27 c8 3 14 -1 14 -10
0 -8 -9 -17 -20 -20 -16 -4 -20 0 -19 21 0 15 3 22 5 15 3 -7 12 -9 20 -6z
m-19 -79 c-3 -8 -6 -5 -6 6 -1 11 2 17 5 13 3 -3 4 -12 1 -19z m43 -68 c0 -29
-4 -40 -15 -40 -11 0 -15 11 -15 40 0 29 4 40 15 40 11 0 15 -11 15 -40z
m-3744 -1292 c-2 -579 -7 -1109 -11 -1178 -5 -69 -9 -144 -9 -167 -1 -24 -4
-43 -8 -43 -5 0 -8 -7 -8 -15 0 -8 -4 -15 -10 -15 -5 0 -10 7 -10 15 0 8 -5
15 -10 15 -7 0 -8 -6 -2 -17 7 -12 5 -24 -5 -40 -19 -29 -80 -32 -105 -5 -40
42 -48 45 -57 20 l-9 -23 -11 28 c-13 33 -14 47 -2 29 7 -11 9 -11 14 2 4 9
-2 21 -13 29 -18 12 -20 30 -25 187 -4 96 -8 177 -11 182 -3 4 -41 8 -85 8
l-79 0 -41 88 c-23 48 -47 104 -55 125 -14 40 -24 62 -74 171 -29 64 -31 76
-26 140 3 39 5 81 6 94 0 13 6 22 15 22 12 0 15 10 12 48 -3 26 1 58 8 72 7
14 23 59 36 100 12 41 27 81 32 88 6 8 5 12 -2 12 -8 0 -4 12 9 30 12 16 23
39 25 51 3 12 11 29 20 39 8 9 15 22 15 28 0 12 19 17 58 13 13 -1 21 2 18 7
-3 5 6 15 19 22 13 7 22 17 19 22 -3 4 18 9 45 10 28 1 66 3 84 4 17 1 49 -3
69 -8 45 -13 74 3 58 31 -5 10 -12 89 -15 177 -6 129 -4 173 9 234 10 41 26
120 37 175 12 55 27 114 34 130 7 17 16 49 20 73 4 23 11 42 15 42 5 0 7 -471
6 -1052z m-7893 -323 c-3 -9 -8 -14 -10 -11 -3 3 -2 9 2 15 9 16 15 13 8 -4z
m7 -161 c0 -8 -5 -12 -10 -9 -6 4 -8 11 -5 16 9 14 15 11 15 -7z m15 -24 c-3
-5 -12 -10 -18 -10 -7 0 -6 4 3 10 19 12 23 12 15 0z m-4 -193 c-16 -16 -26 0
-10 19 9 11 15 12 17 4 2 -6 -1 -17 -7 -23z m8296 -509 c-3 -8 -6 -5 -6 6 -1
11 2 17 5 13 3 -3 4 -12 1 -19z m-57 -13 c0 -8 -4 -15 -10 -15 -5 0 -7 7 -4
15 4 8 8 15 10 15 2 0 4 -7 4 -15z m60 -15 c0 -5 -4 -10 -9 -10 -6 0 -13 5
-16 10 -3 6 1 10 9 10 9 0 16 -4 16 -10z m130 0 c0 -5 -2 -10 -4 -10 -3 0 -8
5 -11 10 -3 6 -1 10 4 10 6 0 11 -4 11 -10z m15 -140 c3 -5 1 -10 -4 -10 -6 0
-11 5 -11 10 0 6 2 10 4 10 3 0 8 -4 11 -10z m-134 -20 c0 10 3 8 8 -5 9 -23
2 -51 -9 -38 -4 4 -11 19 -15 33 -5 19 -4 21 4 10 10 -13 11 -13 12 0z m-578
-87 c-7 -2 -19 -2 -25 0 -7 3 -2 5 12 5 14 0 19 -2 13 -5z m667 -274 c0 -5 -4
-9 -10 -9 -5 0 -10 7 -10 16 0 8 5 12 10 9 6 -3 10 -10 10 -16z m-4960 -35 c0
-14 -4 -23 -10 -19 -5 3 -10 -3 -10 -14 0 -12 5 -21 10 -21 15 0 12 -30 -2
-31 -10 0 -10 -2 0 -6 15 -6 16 -53 1 -53 -7 0 -8 -7 -4 -17 8 -22 7 -337 -2
-360 -6 -14 -8 -14 -20 3 -12 17 -13 15 -7 -21 4 -22 7 -61 8 -87 0 -27 4 -48
8 -48 15 0 8 -58 -7 -63 -16 -7 -29 8 -20 23 3 6 0 13 -9 16 -8 3 -13 11 -10
18 3 7 -2 19 -11 26 -19 16 -20 40 0 40 8 0 15 4 15 9 0 5 -7 11 -15 15 -23 8
-18 36 7 36 21 0 21 0 2 21 -15 17 -16 23 -6 40 10 16 9 19 -5 19 -17 1 -17 1
-1 11 15 8 17 21 13 82 -2 40 -5 78 -5 85 0 7 -12 17 -26 22 -14 6 -22 15 -19
21 4 6 14 8 22 5 26 -10 39 10 35 53 -5 53 -22 53 -22 1 0 -35 -3 -40 -22 -40
-22 1 -23 1 -4 15 20 15 20 15 0 30 -18 14 -18 16 -1 29 11 8 17 27 17 52 0
35 1 36 14 19 12 -16 16 -17 30 -6 9 7 16 25 16 40 0 38 11 72 21 65 5 -3 9 0
9 5 0 6 2 11 5 11 3 0 5 -12 5 -26z m4937 -46 c-3 -8 -6 -5 -6 6 -1 11 2 17 5
13 3 -3 4 -12 1 -19z m582 -40 c-9 -16 -14 -19 -17 -9 -2 7 2 17 9 22 20 13
21 11 8 -13z m-459 -43 c0 -8 -4 -15 -10 -15 -5 0 -10 7 -10 15 0 8 5 15 10
15 6 0 10 -7 10 -15z m15 -35 c-3 -5 -13 -10 -21 -10 -8 0 -14 5 -14 10 0 6 9
10 21 10 11 0 17 -4 14 -10z m-4588 -77 c-3 -10 -5 -4 -5 12 0 17 2 24 5 18 2
-7 2 -21 0 -30z m-3950 -65 c-3 -8 -6 -5 -6 6 -1 11 2 17 5 13 3 -3 4 -12 1
-19z m3281 -11 c2 -10 -3 -17 -12 -17 -9 0 -16 2 -16 4 0 2 -3 12 -6 21 -5 13
-2 16 12 13 10 -2 20 -11 22 -21z m66 17 c18 -7 22 -67 6 -108 -6 -17 -6 -35
0 -52 6 -14 7 -31 3 -37 -6 -11 -15 -109 -16 -184 0 -18 -4 -33 -8 -33 -5 0
-6 -7 -2 -16 5 -14 0 -16 -42 -11 -46 6 -88 27 -53 27 18 0 28 20 28 56 0 30
-23 31 -43 2 -13 -19 -16 -20 -16 -5 -1 13 -10 17 -43 18 -30 2 -35 3 -15 6
23 4 27 9 27 39 0 33 5 42 38 80 8 8 12 21 9 29 -3 7 -1 15 6 18 9 3 9 13 0
40 -10 34 -9 37 8 37 10 0 19 5 19 10 0 6 7 10 15 10 8 0 15 -4 15 -10 0 -5
-4 -10 -10 -10 -15 0 -12 -21 7 -42 21 -24 33 -23 33 3 0 14 -5 19 -14 16 -11
-4 -14 8 -12 59 1 59 3 64 23 64 12 0 28 -3 37 -6z m5216 -24 c0 -5 -4 -10
-10 -10 -5 0 -10 5 -10 10 0 6 5 10 10 10 6 0 10 -4 10 -10z m20 -70 c0 -5 10
-10 23 -13 12 -2 -6 -4 -40 -4 -68 0 -79 7 -35 23 28 11 52 8 52 -6z m-5420
-60 c0 -5 -6 -10 -14 -10 -8 0 -18 5 -21 10 -3 6 3 10 14 10 12 0 21 -4 21
-10z m40 -21 c0 -11 -4 -18 -10 -14 -5 3 -7 12 -3 20 7 21 13 19 13 -6z m5730
-40 c17 -9 19 -9 -52 -15 -32 -3 -38 0 -38 17 0 18 4 19 38 13 20 -4 44 -10
52 -15z m-147 -7 c20 -22 13 -32 -21 -32 -25 0 -25 0 -18 -74 6 -69 -2 -103
-19 -76 -4 6 -11 8 -16 5 -5 -4 -9 11 -8 32 0 21 3 32 6 25 2 -6 9 -10 13 -7
14 9 0 34 -16 28 -8 -3 -14 1 -14 11 0 9 7 16 15 16 13 0 21 30 13 44 -4 5 33
46 42 46 4 0 14 -8 23 -18z m420 -2 c3 -11 1 -18 -4 -14 -5 3 -9 12 -9 20 0
20 7 17 13 -6z m-6081 -36 c-12 -8 -22 -22 -22 -30 0 -8 -4 -14 -10 -14 -5 0
-10 6 -10 14 0 15 37 46 54 46 6 0 0 -7 -12 -16z m5501 9 c-13 -2 -33 -2 -45
0 -13 2 -3 4 22 4 25 0 35 -2 23 -4z m21 -38 c3 -8 3 -22 0 -30 -4 -8 -1 -15
5 -15 6 0 11 -18 11 -41 0 -26 -4 -38 -11 -34 -6 4 -8 20 -4 38 5 24 4 28 -4
17 -16 -22 -28 2 -23 45 4 37 16 46 26 20z m325 -29 c10 -12 7 -14 -20 -13
-18 1 -34 8 -37 15 -5 17 43 16 57 -2z m801 -31 c0 -14 -2 -25 -4 -25 -2 0 -6
11 -8 25 -3 14 -1 25 3 25 5 0 9 -11 9 -25z m-208 -30 c3 -41 1 -45 -19 -45
-21 0 -23 5 -23 45 0 38 3 45 19 45 15 0 20 -9 23 -45z m-6357 -34 c-6 -5 -27
-13 -47 -16 -31 -6 -38 -4 -38 9 0 12 10 16 47 16 29 0 43 -4 38 -9z m-100
-11 c-3 -5 -12 -7 -20 -3 -21 7 -19 13 6 13 11 0 18 -4 14 -10z m5495 -6 c0
-2 -9 -4 -20 -4 -11 0 -20 4 -20 9 0 5 9 7 20 4 11 -3 20 -7 20 -9z m197 -6
c-3 -8 -6 -5 -6 6 -1 11 2 17 5 13 3 -3 4 -12 1 -19z m970 -40 c-2 -13 -4 -5
-4 17 -1 22 1 32 4 23 2 -10 2 -28 0 -40z m-198 23 c9 -6 10 -11 2 -15 -14 -9
-51 2 -51 15 0 11 30 12 49 0z m152 -16 c-1 -15 -24 -12 -29 3 -3 9 2 13 12
10 10 -1 17 -7 17 -13z m-6694 -17 c-3 -8 -6 -5 -6 6 -1 11 2 17 5 13 3 -3 4
-12 1 -19z m357 6 c17 -7 22 -49 7 -59 -11 -6 -16 1 -25 38 -7 29 -6 30 18 21z
m6558 -15 c12 -3 15 -8 9 -18 -7 -11 -13 -9 -29 7 -11 11 -18 23 -14 26 3 4 8
2 11 -3 3 -5 14 -10 23 -12z m-6650 -7 c-7 -2 -12 -15 -12 -29 0 -25 0 -26 20
-8 17 15 20 16 20 3 0 -22 -30 -27 -68 -11 -29 12 -32 16 -21 30 16 19 51 33
64 25 5 -3 4 -7 -3 -10z m-275 -79 c-3 -10 -5 -4 -5 12 0 17 2 24 5 18 2 -7 2
-21 0 -30z m403 22 c0 -8 -4 -15 -10 -15 -5 0 -10 7 -10 15 0 8 5 15 10 15 6
0 10 -7 10 -15z m-140 -25 c0 -5 -4 -10 -10 -10 -5 0 -10 5 -10 10 0 6 5 10
10 10 6 0 10 -4 10 -10z m-2540 -715 c0 -19 -4 -35 -10 -35 -11 0 -14 53 -3
63 11 12 13 8 13 -28z m-10 -95 c0 -5 -4 -10 -10 -10 -5 0 -10 5 -10 10 0 6 5
10 10 10 6 0 10 -4 10 -10z m0 -48 c0 -19 -5 -29 -15 -29 -20 0 -31 37 -14 48
23 14 29 10 29 -19z m177 -69 c-3 -41 -7 -76 -9 -78 -1 -2 -13 5 -25 15 -19
15 -20 19 -7 24 8 3 12 11 8 17 -3 6 0 15 7 21 11 7 10 8 -5 6 -14 -2 -21 5
-27 25 -4 16 -3 27 3 27 5 0 16 7 25 15 27 27 36 6 30 -72z m-77 36 c0 -11 -4
-18 -10 -14 -5 3 -7 12 -3 20 7 21 13 19 13 -6z m-110 -79 c0 -5 -4 -10 -10
-10 -5 0 -10 5 -10 10 0 6 5 10 10 10 6 0 10 -4 10 -10z m-725 -20 c3 -5 -1
-10 -9 -10 -8 0 -18 5 -21 10 -3 6 1 10 9 10 8 0 18 -4 21 -10z m725 -20 c0
-5 -2 -10 -4 -10 -3 0 -8 5 -11 10 -3 6 -1 10 4 10 6 0 11 -4 11 -10z m-750
-24 c0 -3 -4 -8 -10 -11 -5 -3 -10 -1 -10 4 0 6 5 11 10 11 6 0 10 -2 10 -4z
m-420 -28 c0 -16 -3 -19 -11 -11 -6 6 -8 16 -5 22 11 17 16 13 16 -11z m1330
-53 c-7 -9 -15 -13 -17 -11 -6 6 20 36 26 30 2 -2 -2 -10 -9 -19z m-423 -47
c-3 -8 -6 -5 -6 6 -1 11 2 17 5 13 3 -3 4 -12 1 -19z m71 -1 c7 0 12 -14 12
-34 0 -18 -5 -33 -11 -33 -6 0 -9 9 -6 20 3 13 0 20 -9 20 -8 0 -14 -4 -14
-10 0 -5 -7 -7 -15 -4 -8 4 -15 17 -15 31 0 21 3 23 23 17 12 -4 28 -7 35 -7z
m3249 -18 c7 -6 10 -15 7 -20 -3 -5 1 -23 10 -39 11 -23 13 -44 6 -92 -5 -33
-8 -64 -7 -67 0 -3 -5 -30 -12 -59 -21 -84 -3 -81 -482 -79 -326 2 -424 6
-461 17 -47 14 -62 33 -34 43 7 3 29 35 47 71 18 36 51 85 74 110 l40 44 90 6
c50 3 110 5 135 6 46 0 46 15 0 22 -16 2 -25 9 -24 20 1 11 -4 15 -15 11 -11
-4 -13 -3 -6 5 15 16 53 17 349 14 175 -2 274 -6 283 -13z m-3286 -53 c5 3 9
0 9 -6 0 -15 -23 -7 -26 8 -1 7 0 8 3 2 2 -5 9 -8 14 -4z m19 -61 c0 -16 -6
-25 -15 -25 -16 0 -19 9 -9 34 9 25 24 19 24 -9z m-545 -125 c3 -5 -1 -10 -10
-10 -9 0 -13 5 -10 10 3 6 8 10 10 10 2 0 7 -4 10 -10z m3358 -191 c7 -26 -4
-23 -25 5 -17 23 -17 24 1 19 11 -3 21 -13 24 -24z m47 21 c10 -6 12 -12 4
-20 -7 -7 -16 -5 -29 10 -14 15 -15 20 -4 20 8 0 21 -5 29 -10z m-10 -50 c0
-5 -4 -10 -10 -10 -5 0 -10 5 -10 10 0 6 5 10 10 10 6 0 10 -4 10 -10z m-55
-10 c-3 -5 -10 -10 -16 -10 -5 0 -9 5 -9 10 0 6 7 10 16 10 8 0 12 -4 9 -10z
m-3725 -90 c0 -5 -4 -10 -10 -10 -5 0 -10 5 -10 10 0 6 5 10 10 10 6 0 10 -4
10 -10z m364 4 c18 -7 12 -24 -10 -24 -8 0 -14 7 -14 15 0 17 2 18 24 9z
m-443 -197 c-1 -12 -15 -9 -19 4 -3 6 1 10 8 8 6 -3 11 -8 11 -12z m9 -37 c0
-5 -4 -10 -10 -10 -5 0 -10 5 -10 10 0 6 5 10 10 10 6 0 10 -4 10 -10z m3890
-155 c0 -8 -4 -17 -10 -20 -6 -4 -10 5 -10 20 0 15 4 24 10 20 6 -3 10 -12 10
-20z"/>
<path d="M6220 10153 c-80 -23 -78 -50 3 -52 34 0 80 -7 102 -15 42 -14 88
-67 79 -91 -7 -17 -41 -26 -68 -17 -11 4 -47 7 -78 6 -32 0 -58 3 -58 8 0 17
-70 7 -117 -17 -9 -5 60 -125 71 -125 8 0 17 -9 21 -19 10 -33 89 -110 129
-126 53 -22 229 -20 273 3 12 7 29 12 38 12 8 0 19 8 22 18 14 36 86 109 134
135 31 17 32 18 12 32 -12 8 -23 25 -26 38 -5 17 -20 27 -64 42 -32 10 -62 22
-68 26 -5 3 -59 31 -120 61 -105 53 -229 89 -254 74 -5 -3 -11 -2 -13 2 -1 5
-10 7 -18 5z m245 -334 c0 -19 -6 -25 -29 -27 l-28 -4 18 31 c21 36 39 36 39
0z m-225 -9 c0 -5 -4 -10 -9 -10 -6 0 -13 5 -16 10 -3 6 1 10 9 10 9 0 16 -4
16 -10z"/>
<path d="M6778 9203 c7 -3 16 -2 19 1 4 3 -2 6 -13 5 -11 0 -14 -3 -6 -6z"/>
<path d="M4567 4504 c5 -14 2 -16 -21 -10 -33 8 -76 -11 -55 -25 20 -12 69
-11 69 1 0 7 14 8 38 4 46 -8 48 -10 32 -29 -7 -9 -10 -18 -7 -22 11 -10 34
16 40 43 3 19 -1 27 -17 33 -11 5 -27 6 -33 4 -7 -3 -13 0 -13 6 0 6 -9 11
-20 11 -14 0 -18 -5 -13 -16z"/>
<path d="M3610 3550 c0 -16 6 -20 33 -19 17 0 41 4 52 9 18 8 17 9 -7 9 -15 1
-30 6 -33 11 -12 19 -45 11 -45 -10z"/>
<path d="M4249 3544 c-11 -14 -10 -18 6 -30 34 -25 67 -9 58 27 -7 24 -45 25
-64 3z"/>
<path d="M4545 3331 c-3 -5 -1 -12 5 -16 5 -3 10 1 10 9 0 18 -6 21 -15 7z"/>
<path d="M8330 3796 c0 -8 5 -18 10 -21 6 -3 10 3 10 14 0 12 -4 21 -10 21 -5
0 -10 -6 -10 -14z"/>
<path d="M3935 3310 c-3 -5 -1 -10 4 -10 6 0 11 5 11 10 0 6 -2 10 -4 10 -3 0
-8 -4 -11 -10z"/>
<path d="M3788 2883 c6 -2 18 -2 25 0 6 3 1 5 -13 5 -14 0 -19 -2 -12 -5z"/>
<path d="M3860 2760 c0 -18 4 -29 10 -25 6 3 10 15 10 25 0 10 -4 22 -10 25
-6 4 -10 -7 -10 -25z"/>
<path d="M3900 1316 c0 -2 7 -6 15 -10 8 -3 15 -1 15 4 0 6 -7 10 -15 10 -8 0
-15 -2 -15 -4z"/>
<path d="M0 10139 l0 -202 39 -37 c22 -21 60 -52 85 -70 25 -19 46 -37 46 -42
0 -4 4 -8 9 -8 5 0 22 -12 38 -27 16 -16 51 -46 78 -68 27 -22 62 -51 76 -65
71 -66 125 -102 158 -104 8 -1 22 -14 31 -31 12 -20 24 -29 38 -28 11 1 26 -4
32 -12 9 -11 10 -15 1 -15 -7 0 -9 -5 -6 -10 4 -6 11 -8 16 -5 5 4 20 -5 34
-19 14 -15 33 -26 41 -26 8 0 13 -4 10 -9 -3 -4 6 -13 19 -19 14 -7 25 -18 25
-26 0 -8 13 -19 30 -25 23 -8 30 -16 30 -37 0 -24 3 -26 30 -21 26 6 31 3 36
-21 9 -35 40 -56 84 -58 37 -1 90 20 90 36 0 5 -24 28 -54 52 -30 24 -55 49
-55 56 -1 6 -7 12 -13 12 -7 0 -38 25 -68 56 -30 30 -66 63 -78 72 -32 23
-192 178 -192 186 0 13 28 5 51 -14 12 -12 38 -30 56 -41 18 -12 31 -25 28
-30 -4 -5 10 -16 29 -26 20 -9 36 -22 36 -28 0 -6 29 -35 65 -65 36 -29 63
-55 60 -58 -9 -9 27 -42 45 -42 10 0 28 -13 41 -30 28 -35 45 -37 81 -7 l28
23 -28 29 c-15 17 -77 75 -137 130 -60 55 -126 116 -146 135 -20 19 -72 66
-115 105 -44 38 -94 84 -112 102 -19 18 -36 33 -39 33 -4 0 -20 15 -38 33 -17
17 -69 66 -115 107 -156 139 -205 184 -210 190 -3 3 -46 43 -97 89 l-92 82 -1
-202z m55 -29 c3 -5 1 -10 -4 -10 -6 0 -11 5 -11 10 0 6 2 10 4 10 3 0 8 -4
11 -10z m135 -110 c13 -8 13 -10 -2 -10 -9 0 -20 5 -23 10 -8 13 5 13 25 0z
m68 -58 c6 -18 -15 -14 -22 4 -4 10 -1 14 6 12 6 -2 14 -10 16 -16z m70 -77
c-3 -3 -9 2 -12 12 -6 14 -5 15 5 6 7 -7 10 -15 7 -18z m32 -25 c0 -5 -2 -10
-4 -10 -3 0 -8 5 -11 10 -3 6 -1 10 4 10 6 0 11 -4 11 -10z m54 -35 c11 -8 16
-18 12 -22 -3 -4 -16 3 -28 15 -25 25 -13 29 16 7z m161 -154 c-6 -5 -25 10
-25 20 0 5 6 4 14 -3 8 -7 12 -15 11 -17z"/>
<path d="M400 10172 c0 -22 93 -124 143 -157 80 -52 7 57 -90 133 -42 33 -53
38 -53 24z"/>
<path d="M156 9745 c4 -8 11 -15 16 -15 6 0 5 6 -2 15 -7 8 -14 15 -16 15 -2
0 -1 -7 2 -15z"/>
<path d="M190 9715 c0 -13 31 -36 41 -33 7 2 0 12 -15 21 -14 10 -26 15 -26
12z"/>
<path d="M246 9672 c-7 -12 39 -55 54 -50 6 2 -2 16 -18 31 -17 16 -32 24 -36
19z"/>
<path d="M320 9603 c0 -5 50 -55 112 -113 62 -58 150 -141 196 -185 46 -44 89
-82 95 -85 24 -10 156 -111 159 -122 3 -7 24 -11 52 -10 53 2 69 8 61 23 -4 5
-1 9 6 9 7 0 10 3 7 6 -4 3 -22 1 -41 -4 -39 -11 -41 -9 -137 68 -51 41 -183
152 -190 160 -3 3 -61 53 -130 110 -69 57 -136 114 -149 127 -24 23 -41 30
-41 16z"/>
<path d="M4443 9243 c-26 -9 -13 -33 17 -33 19 0 30 5 30 14 0 15 -27 25 -47
19z"/>
<path d="M4387 9233 c-13 -12 -7 -33 8 -33 8 0 15 9 15 20 0 20 -11 26 -23 13z"/>
<path d="M4512 9218 c7 -19 38 -22 38 -4 0 10 -9 16 -21 16 -12 0 -19 -5 -17
-12z"/>
<path d="M178 8853 c-20 -5 -22 -15 -9 -41 5 -9 17 -46 27 -82 10 -38 27 -75
42 -89 24 -23 25 -24 38 -6 22 29 18 82 -6 88 -12 3 -20 14 -21 29 -1 12 -2
35 -3 50 -2 24 -30 59 -46 57 -3 -1 -13 -3 -22 -6z"/>
<path d="M0 8564 c0 -125 2 -225 5 -222 3 3 6 27 6 54 1 53 15 164 23 171 3 3
14 -4 26 -14 24 -23 29 -58 31 -243 1 -74 5 -159 9 -188 5 -37 3 -58 -6 -70
-17 -22 -18 -87 -1 -101 23 -18 27 -2 27 96 0 52 7 126 15 166 8 40 16 87 17
105 2 24 11 40 30 54 15 10 28 27 28 37 0 38 21 39 58 4 l36 -34 3 -167 c1
-92 5 -179 7 -194 3 -15 1 -30 -4 -33 -13 -8 -13 -82 1 -90 18 -12 24 4 25 73
1 37 7 86 13 109 6 23 11 45 10 50 -1 4 0 11 1 16 6 19 8 31 9 82 1 48 4 57
24 64 16 6 24 4 30 -6 6 -9 17 -13 32 -9 20 5 23 1 29 -41 3 -25 6 -62 6 -83
0 -20 3 -40 7 -43 8 -9 44 44 37 55 -9 13 4 9 20 -8 23 -22 56 -10 48 19 -3
12 -1 18 3 14 11 -10 15 -26 26 -122 13 -107 17 -115 34 -91 8 10 12 22 10 27
-3 4 -1 10 5 14 6 3 13 -1 16 -9 14 -36 54 -4 54 44 0 17 3 19 18 11 16 -9 20
-27 25 -122 4 -62 11 -115 16 -118 5 -3 10 -15 13 -26 4 -22 15 -4 79 130 23
47 51 44 77 -8 19 -37 22 -61 22 -153 0 -60 4 -126 9 -147 6 -23 6 -65 0 -102
-10 -72 -5 -95 21 -95 29 0 31 14 10 54 -13 26 -17 48 -13 72 4 25 8 31 14 22
6 -8 9 -1 9 22 0 26 -3 31 -10 20 -9 -13 -10 -13 -10 1 0 8 5 20 12 27 9 9 9
17 -1 36 -8 13 -11 28 -8 33 3 5 8 28 12 53 4 24 11 52 15 61 5 9 6 20 2 23
-6 7 48 -3 56 -9 2 -2 5 -43 8 -91 2 -48 7 -90 10 -93 8 -9 23 21 17 35 -3 8
2 21 11 29 9 9 16 23 16 31 0 15 -1 15 50 17 39 2 40 0 61 -110 l12 -63 34 30
c18 17 43 30 53 30 11 0 20 -1 20 -2 3 -35 30 -198 35 -210 4 -11 3 -18 -4
-18 -14 0 -15 -57 -1 -65 18 -11 42 16 36 41 -4 14 -1 24 8 27 16 6 12 63 -5
84 -7 7 -3 16 11 26 12 8 25 28 30 43 7 24 8 25 9 7 1 -12 5 -24 10 -27 5 -3
12 -22 15 -41 4 -20 14 -39 22 -42 8 -3 13 -12 10 -19 -3 -8 -1 -14 4 -14 6 0
10 6 10 13 0 9 2 9 8 0 5 -8 16 1 32 27 41 66 53 45 65 -109 4 -50 12 -91 17
-91 5 0 7 13 3 29 -9 40 4 101 21 101 8 0 14 -10 14 -22 1 -22 1 -22 25 5 16
18 38 30 63 33 94 13 106 25 48 49 -19 8 -38 19 -41 25 -5 8 -11 8 -20 0 -20
-17 -35 -3 -35 31 0 26 -6 32 -46 49 -25 11 -49 20 -54 20 -4 0 -21 12 -37 28
-17 15 -58 43 -93 62 -35 19 -75 46 -89 60 -27 26 -96 69 -261 160 -52 29
-109 64 -126 76 -17 13 -37 24 -43 24 -7 0 -39 21 -72 48 -109 88 -156 121
-182 127 -15 4 -41 24 -57 45 -17 21 -48 47 -69 58 -49 26 -123 79 -181 131
-62 56 -167 131 -205 147 -17 7 -53 37 -78 68 -42 48 -122 111 -184 145 l-23
12 0 -227z m390 -254 c0 -5 -2 -10 -4 -10 -3 0 -8 5 -11 10 -3 6 -1 10 4 10 6
0 11 -4 11 -10z"/>
<path d="M483 8634 c-3 -8 -1 -33 6 -53 6 -21 11 -59 11 -83 0 -49 17 -72 47
-66 23 4 30 60 10 77 -10 8 -13 25 -9 56 3 35 0 50 -13 65 -22 24 -43 26 -52
4z"/>
<path d="M766 8363 c8 -92 18 -123 39 -123 18 0 37 43 29 64 -3 8 -12 17 -20
20 -11 4 -14 16 -9 47 6 42 -6 69 -32 69 -11 0 -13 -14 -7 -77z"/>
<path d="M1026 8253 c-12 -13 -6 -159 8 -178 21 -29 44 -13 39 27 -3 18 -4 56
-4 83 1 39 -3 53 -18 62 -10 6 -22 9 -25 6z"/>
<path d="M1268 8094 c-6 -5 0 -111 8 -151 6 -29 30 -30 44 -2 9 16 8 26 -5 45
-13 21 -14 32 -6 56 8 22 8 35 0 44 -12 14 -31 18 -41 8z"/>
<path d="M501 8046 c-1 -29 2 -37 10 -29 8 8 8 19 1 40 -10 28 -10 28 -11 -11z"/>
<path d="M1477 7938 c-2 -7 0 -21 5 -31 5 -10 7 -35 3 -56 -5 -29 -2 -41 13
-54 19 -17 20 -17 26 8 4 14 1 35 -5 46 -6 12 -9 34 -6 49 8 36 -24 70 -36 38z"/>
<path d="M78 7934 c-11 -10 3 -34 19 -34 8 0 13 7 11 17 -3 18 -20 27 -30 17z"/>
<path d="M640 7875 c0 -15 4 -24 10 -20 6 3 10 12 10 20 0 8 -4 17 -10 20 -6
4 -10 -5 -10 -20z"/>
<path d="M66 7829 c-8 -43 -8 -46 9 -53 10 -3 20 5 30 25 14 26 14 31 1 44
-22 23 -33 18 -40 -16z"/>
<path d="M340 7850 c0 -5 5 -10 10 -10 6 0 10 5 10 10 0 6 -4 10 -10 10 -5 0
-10 -4 -10 -10z"/>
<path d="M1675 7798 c-9 -23 1 -138 13 -150 8 -8 15 -8 27 2 18 15 20 46 4 56
-7 4 -9 21 -6 40 4 23 1 39 -9 49 -19 18 -23 19 -29 3z"/>
<path d="M1860 7628 c0 -61 14 -93 23 -57 3 13 2 28 -3 35 -6 6 -7 25 -4 43 4
20 3 31 -5 31 -7 0 -11 -20 -11 -52z"/>
<path d="M280 7615 c0 -8 5 -15 10 -15 6 0 10 7 10 15 0 8 -4 15 -10 15 -5 0
-10 -7 -10 -15z"/>
<path d="M797 7623 c-13 -12 -7 -20 15 -19 27 1 37 26 11 26 -11 0 -23 -3 -26
-7z"/>
<path d="M852 7594 c-43 -30 -70 -114 -37 -114 21 0 60 68 60 103 0 15 0 27 0
27 0 0 -11 -7 -23 -16z"/>
<path d="M1136 7593 c-3 -4 -6 -15 -6 -25 0 -16 3 -17 20 -8 11 6 20 15 20 19
0 11 -26 22 -34 14z"/>
<path d="M287 7505 c-7 -16 8 -29 23 -20 15 9 12 35 -4 35 -8 0 -16 -7 -19
-15z"/>
<path d="M1308 7508 c-9 -23 3 -38 28 -38 29 0 32 25 5 40 -25 13 -28 13 -33
-2z"/>
<path d="M1141 7487 c-11 -29 -4 -39 20 -27 23 13 25 36 4 44 -10 4 -19 -2
-24 -17z"/>
<path d="M1294 7426 c-18 -14 -18 -15 9 -27 36 -16 56 0 29 24 -16 15 -21 15
-38 3z"/>
<path d="M1010 7382 c0 -24 4 -30 15 -26 8 4 15 12 15 19 0 7 -7 18 -15 25
-13 11 -15 8 -15 -18z"/>
<path d="M10763 7359 c14 -8 22 -8 30 0 8 8 3 11 -18 11 -26 -1 -28 -2 -12
-11z"/>
<path d="M1585 7339 c-14 -14 -20 -34 -20 -65 0 -43 16 -61 29 -29 7 19 20
115 15 114 -2 0 -13 -9 -24 -20z"/>
<path d="M1280 7305 c0 -31 34 -35 49 -6 12 22 5 31 -26 31 -18 0 -23 -5 -23
-25z"/>
<path d="M1452 7318 c-14 -14 -16 -68 -3 -68 14 0 30 25 33 50 3 26 -12 36
-30 18z"/>
<path d="M1010 7270 c0 -5 7 -7 15 -4 8 4 15 8 15 10 0 2 -7 4 -15 4 -8 0 -15
-4 -15 -10z"/>
<path d="M30 7260 c0 -5 5 -10 11 -10 5 0 7 5 4 10 -3 6 -8 10 -11 10 -2 0 -4
-4 -4 -10z"/>
<path d="M1603 7235 c-20 -14 -39 -87 -27 -106 8 -13 38 27 53 70 14 41 3 56
-26 36z"/>
<path d="M1004 7217 c-3 -9 -2 -28 3 -43 l9 -26 14 26 c12 23 12 29 -3 43 -15
15 -17 15 -23 0z"/>
<path d="M1290 7210 c-13 -9 -13 -11 0 -20 19 -12 35 -8 35 10 0 18 -16 22
-35 10z"/>
<path d="M1700 7195 c0 -8 5 -15 10 -15 6 0 10 7 10 15 0 8 -4 15 -10 15 -5 0
-10 -7 -10 -15z"/>
<path d="M11920 7200 c0 -5 7 -10 16 -10 8 0 12 5 9 10 -3 6 -10 10 -16 10 -5
0 -9 -4 -9 -10z"/>
<path d="M11890 7160 c0 -11 7 -20 15 -20 8 0 15 9 15 20 0 11 -7 20 -15 20
-8 0 -15 -9 -15 -20z"/>
<path d="M11980 7150 c0 -5 5 -10 10 -10 6 0 10 5 10 10 0 6 -4 10 -10 10 -5
0 -10 -4 -10 -10z"/>
<path d="M1266 7141 c-15 -23 31 -70 54 -56 16 10 12 37 -7 51 -21 16 -40 18
-47 5z"/>
<path d="M11715 7130 c-3 -5 3 -10 15 -10 12 0 18 5 15 10 -3 6 -10 10 -15 10
-5 0 -12 -4 -15 -10z"/>
<path d="M11840 7129 c0 -5 11 -9 25 -9 14 0 25 2 25 4 0 2 -11 6 -25 8 -14 3
-25 1 -25 -3z"/>
<path d="M12145 7131 c-6 -11 9 -23 19 -14 9 9 7 23 -3 23 -6 0 -12 -4 -16 -9z"/>
<path d="M40 7094 c0 -14 4 -23 10 -19 13 8 13 45 0 45 -5 0 -10 -12 -10 -26z"/>
<path d="M494 7099 c-3 -6 1 -18 10 -27 15 -15 16 -14 16 11 0 27 -13 36 -26
16z"/>
<path d="M10950 7094 c0 -8 5 -12 10 -9 6 3 10 10 10 16 0 5 -4 9 -10 9 -5 0
-10 -7 -10 -16z"/>
<path d="M1570 7061 c-13 -25 -13 -71 -1 -71 13 0 17 9 25 53 7 40 -6 51 -24
18z"/>
<path d="M25 6945 c5 -101 4 -115 -10 -115 -13 0 -15 -8 -13 -37 2 -20 8 -38
14 -40 16 -5 41 206 35 295 -1 6 -8 12 -17 12 -14 0 -15 -14 -9 -115z"/>
<path d="M1000 7045 c0 -8 5 -15 10 -15 6 0 10 7 10 15 0 8 -4 15 -10 15 -5 0
-10 -7 -10 -15z"/>
<path d="M11817 7053 c-6 -10 19 -34 26 -26 8 7 -3 33 -13 33 -5 0 -11 -3 -13
-7z"/>
<path d="M10959 7048 c-6 -32 -5 -88 2 -88 5 0 9 20 9 45 0 25 -2 45 -5 45 -3
0 -5 -1 -6 -2z"/>
<path d="M11772 7024 c-7 -8 -12 -20 -10 -26 2 -6 12 1 21 16 19 28 11 35 -11
10z"/>
<path d="M12100 7000 c0 -5 9 -10 20 -10 11 0 20 5 20 10 0 6 -9 10 -20 10
-11 0 -20 -4 -20 -10z"/>
<path d="M482 6984 c4 -21 22 -23 26 -1 2 10 -3 17 -13 17 -10 0 -15 -6 -13
-16z"/>
<path d="M1440 6990 c0 -5 5 -10 10 -10 6 0 10 5 10 10 0 6 -4 10 -10 10 -5 0
-10 -4 -10 -10z"/>
<path d="M9548 6993 c6 -2 18 -2 25 0 6 3 1 5 -13 5 -14 0 -19 -2 -12 -5z"/>
<path d="M770 6970 c0 -5 5 -10 10 -10 6 0 10 5 10 10 0 6 -4 10 -10 10 -5 0
-10 -4 -10 -10z"/>
<path d="M11530 6970 c0 -5 5 -10 11 -10 5 0 7 5 4 10 -3 6 -8 10 -11 10 -2 0
-4 -4 -4 -10z"/>
<path d="M11655 6970 c-18 -6 -17 -7 6 -12 14 -2 34 -1 45 4 17 8 17 8 -3 4
-12 -2 -23 0 -25 4 -2 4 -12 4 -23 0z"/>
<path d="M1700 6930 c0 -5 5 -10 10 -10 6 0 10 5 10 10 0 6 -4 10 -10 10 -5 0
-10 -4 -10 -10z"/>
<path d="M1120 6899 c0 -17 4 -28 10 -24 6 3 10 17 10 31 0 13 -4 24 -10 24
-5 0 -10 -14 -10 -31z"/>
<path d="M8970 6900 c0 -5 5 -10 11 -10 5 0 7 5 4 10 -3 6 -8 10 -11 10 -2 0
-4 -4 -4 -10z"/>
<path d="M11710 6900 c0 -5 5 -10 10 -10 6 0 10 5 10 10 0 6 -4 10 -10 10 -5
0 -10 -4 -10 -10z"/>
<path d="M11570 6890 c0 -5 5 -10 10 -10 6 0 10 5 10 10 0 6 -4 10 -10 10 -5
0 -10 -4 -10 -10z"/>
<path d="M11760 6891 c0 -5 9 -11 21 -14 16 -4 18 -3 8 9 -13 16 -29 19 -29 5z"/>
<path d="M8960 6840 c0 -42 14 -54 25 -20 5 17 -9 60 -20 60 -3 0 -5 -18 -5
-40z"/>
<path d="M995 6858 c-10 -24 2 -55 16 -41 6 6 6 18 0 34 -8 21 -10 22 -16 7z"/>
<path d="M472 6820 c0 -14 2 -19 5 -12 2 6 2 18 0 25 -3 6 -5 1 -5 -13z"/>
<path d="M1428 6817 c-3 -15 -2 -27 3 -27 13 0 17 14 9 35 -6 17 -7 16 -12 -8z"/>
<path d="M472 6750 c0 -19 2 -27 5 -17 2 9 2 25 0 35 -3 9 -5 1 -5 -18z"/>
<path d="M1690 6756 c0 -13 6 -29 14 -35 12 -10 14 -9 11 6 -2 10 -4 26 -4 36
-1 26 -21 20 -21 -7z"/>
<path d="M8960 6760 c0 -19 3 -21 12 -12 9 9 9 15 0 24 -9 9 -12 7 -12 -12z"/>
<path d="M1550 6749 c-11 -8 -12 -12 -2 -16 6 -2 12 -9 12 -14 0 -6 -4 -7 -10
-4 -5 3 -10 -1 -10 -9 0 -9 7 -16 15 -16 8 0 15 6 15 13 0 6 3 22 6 35 7 24
-2 28 -26 11z"/>
<path d="M1265 6720 c3 -5 0 -10 -8 -10 -8 0 -17 -7 -21 -15 -8 -22 21 -19 34
4 13 25 13 31 -1 31 -5 0 -7 -4 -4 -10z"/>
<path d="M1578 6663 c-21 -25 -38 -59 -38 -78 0 -31 49 14 56 51 8 42 2 50
-18 27z"/>
<path d="M1682 6660 c0 -14 2 -19 5 -12 2 6 2 18 0 25 -3 6 -5 1 -5 -13z"/>
<path d="M11978 6668 c17 -17 15 -28 -5 -28 -13 0 -14 -3 -5 -12 8 -8 15 -8
27 2 23 19 19 50 -7 50 -17 0 -19 -3 -10 -12z"/>
<path d="M11552 6610 c0 -14 2 -19 5 -12 2 6 2 18 0 25 -3 6 -5 1 -5 -13z"/>
<path d="M2 6575 c0 -16 2 -22 5 -12 2 9 2 23 0 30 -3 6 -5 -1 -5 -18z"/>
<path d="M11510 6583 c0 -13 5 -23 10 -23 13 0 13 11 0 30 -8 12 -10 11 -10
-7z"/>
<path d="M11922 6580 c0 -14 2 -19 5 -12 2 6 2 18 0 25 -3 6 -5 1 -5 -13z"/>
<path d="M12000 6581 c0 -7 -4 -9 -10 -6 -5 3 -10 2 -10 -4 0 -5 6 -11 13 -14
9 -3 9 -9 1 -23 -6 -11 -8 -28 -4 -39 5 -15 9 -6 15 33 4 29 4 56 1 59 -3 4
-6 1 -6 -6z"/>
<path d="M1241 6544 c0 -11 3 -14 6 -6 3 7 2 16 -1 19 -3 4 -6 -2 -5 -13z"/>
<path d="M11551 6518 c-1 -27 3 -48 7 -48 4 0 6 17 4 38 -5 58 -10 62 -11 10z"/>
<path d="M11522 6495 c0 -16 2 -22 5 -12 2 9 2 23 0 30 -3 6 -5 -1 -5 -18z"/>
<path d="M1540 6484 c-17 -44 -10 -61 10 -24 22 40 24 50 10 50 -6 0 -15 -12
-20 -26z"/>
<path d="M11979 6453 c-12 -15 -12 -16 3 -10 9 3 19 1 22 -6 2 -7 5 -2 5 11 1
26 -11 29 -30 5z"/>
<path d="M11550 6440 c0 -5 5 -10 10 -10 6 0 10 5 10 10 0 6 -4 10 -10 10 -5
0 -10 -4 -10 -10z"/>
<path d="M1571 6384 c0 -11 3 -14 6 -6 3 7 2 16 -1 19 -3 4 -6 -2 -5 -13z"/>
<path d="M232 6340 c0 -14 2 -19 5 -12 2 6 2 18 0 25 -3 6 -5 1 -5 -13z"/>
<path d="M11559 6309 c-3 -64 4 -176 12 -184 6 -6 7 27 3 90 -6 89 -13 134
-15 94z"/>
<path d="M12002 6290 c0 -14 2 -19 5 -12 2 6 2 18 0 25 -3 6 -5 1 -5 -13z"/>
<path d="M1661 6218 c1 -27 15 -52 23 -40 4 6 2 21 -4 32 -12 23 -20 26 -19 8z"/>
<path d="M1517 6183 c-4 -3 -7 -22 -7 -41 0 -29 2 -33 15 -22 8 7 15 25 15 41
0 28 -9 37 -23 22z"/>
<path d="M12147 6110 c-7 -26 -4 -34 11 -29 4 2 5 15 2 29 l-6 25 -7 -25z"/>
<path d="M1650 6101 c0 -12 5 -21 10 -21 6 0 10 6 10 14 0 8 -4 18 -10 21 -5
3 -10 -3 -10 -14z"/>
<path d="M11568 6103 c-2 -5 -1 -24 3 -43 l6 -35 2 43 c1 39 -3 52 -11 35z"/>
<path d="M12230 6098 c-5 -24 -2 -140 3 -145 4 -3 7 28 7 70 0 43 -2 77 -5 77
-3 0 -5 -1 -5 -2z"/>
<path d="M1515 6051 c-7 -33 1 -55 16 -46 5 4 9 15 9 25 0 10 8 24 18 29 9 6
12 11 5 11 -6 0 -18 3 -26 6 -11 4 -17 -4 -22 -25z"/>
<path d="M11980 6068 c0 -7 5 -20 10 -28 8 -12 10 -9 10 13 0 15 -4 27 -10 27
-5 0 -10 -6 -10 -12z"/>
<path d="M12171 6034 c0 -11 3 -14 6 -6 3 7 2 16 -1 19 -3 4 -6 -2 -5 -13z"/>
<path d="M201 6014 c0 -11 3 -14 6 -6 3 7 2 16 -1 19 -3 4 -6 -2 -5 -13z"/>
<path d="M9723 5945 c0 -33 2 -45 4 -27 2 18 2 45 0 60 -2 15 -4 0 -4 -33z"/>
<path d="M12000 5990 c0 -5 5 -10 10 -10 6 0 10 5 10 10 0 6 -4 10 -10 10 -5
0 -10 -4 -10 -10z"/>
<path d="M12156 5985 c4 -8 10 -12 15 -9 14 8 10 24 -6 24 -9 0 -12 -6 -9 -15z"/>
<path d="M12150 5938 c0 -13 7 -18 28 -17 21 1 22 2 7 6 -11 3 -23 10 -27 17
-5 7 -8 5 -8 -6z"/>
<path d="M1517 5933 c-5 -7 -5 -13 -2 -13 4 0 -1 -7 -9 -16 -18 -18 -20 -30
-7 -39 14 -8 33 31 29 58 -2 15 -5 18 -11 10z"/>
<path d="M8983 5880 c0 -25 2 -35 4 -22 2 12 2 32 0 45 -2 12 -4 2 -4 -23z"/>
<path d="M11575 5874 c0 -24 3 -44 8 -44 9 0 9 61 -1 77 -4 7 -7 -8 -7 -33z"/>
<path d="M180 5859 c0 -28 -5 -60 -11 -71 -6 -12 -15 -66 -20 -122 -4 -56 -15
-171 -24 -256 -9 -85 -18 -195 -21 -245 -10 -156 -11 -177 -27 -315 -8 -74
-18 -189 -21 -255 -4 -66 -11 -169 -17 -230 -33 -358 -38 -489 -38 -910 0
-275 4 -431 9 -417 5 12 12 109 15 215 8 265 22 543 34 662 6 55 13 147 16
205 3 58 8 132 11 165 2 33 9 134 14 225 6 91 15 212 21 270 6 58 12 134 14
170 2 36 6 92 9 125 4 33 11 132 17 220 5 88 11 178 13 200 2 22 6 94 10 160
4 66 9 150 12 188 4 45 3 67 -5 67 -7 0 -11 -20 -11 -51z"/>
<path d="M1630 5880 c0 -5 5 -10 10 -10 6 0 10 5 10 10 0 6 -4 10 -10 10 -5 0
-10 -4 -10 -10z"/>
<path d="M12216 5881 c-3 -5 1 -14 9 -21 13 -10 15 -9 15 9 0 21 -14 28 -24
12z"/>
<path d="M12157 5860 c-3 -13 0 -20 9 -20 15 0 19 26 5 34 -5 3 -11 -3 -14
-14z"/>
<path d="M9722 5545 c1 -182 5 -377 9 -435 4 -58 5 89 2 325 -3 237 -7 432
-10 435 -2 2 -3 -144 -1 -325z"/>
<path d="M12161 5804 c0 -11 3 -14 6 -6 3 7 2 16 -1 19 -3 4 -6 -2 -5 -13z"/>
<path d="M392 5780 c0 -14 2 -19 5 -12 2 6 2 18 0 25 -3 6 -5 1 -5 -13z"/>
<path d="M382 5600 c0 -14 2 -19 5 -12 2 6 2 18 0 25 -3 6 -5 1 -5 -13z"/>
<path d="M1483 5607 c-15 -18 -24 -65 -14 -71 12 -8 27 14 33 47 6 31 -4 43
-19 24z"/>
<path d="M12190 5585 c0 -8 5 -15 10 -15 6 0 10 7 10 15 0 8 -4 15 -10 15 -5
0 -10 -7 -10 -15z"/>
<path d="M1615 5567 c-5 -12 -2 -24 8 -35 23 -22 28 -13 12 23 -11 26 -14 28
-20 12z"/>
<path d="M12160 5530 c0 -5 5 -10 11 -10 5 0 7 5 4 10 -3 6 -8 10 -11 10 -2 0
-4 -4 -4 -10z"/>
<path d="M11591 5504 c0 -11 3 -14 6 -6 3 7 2 16 -1 19 -3 4 -6 -2 -5 -13z"/>
<path d="M1482 5470 c-6 -11 -12 -29 -12 -41 0 -18 2 -19 15 -9 8 7 12 16 9
21 -3 5 0 18 6 29 14 26 -1 26 -18 0z"/>
<path d="M1600 5470 c0 -5 5 -10 10 -10 6 0 10 5 10 10 0 6 -4 10 -10 10 -5 0
-10 -4 -10 -10z"/>
<path d="M11591 5454 c0 -11 3 -14 6 -6 3 7 2 16 -1 19 -3 4 -6 -2 -5 -13z"/>
<path d="M8980 5450 c0 -5 5 -10 10 -10 6 0 10 5 10 10 0 6 -4 10 -10 10 -5 0
-10 -4 -10 -10z"/>
<path d="M8817 5420 c-7 -27 -1 -39 12 -24 5 5 5 18 2 28 -7 18 -8 18 -14 -4z"/>
<path d="M1087 5383 c-4 -3 -7 -11 -7 -17 0 -6 5 -5 12 2 6 6 9 14 7 17 -3 3
-9 2 -12 -2z"/>
<path d="M1468 5335 c-11 -15 -18 -41 -18 -67 l1 -43 20 38 c11 21 19 51 17
67 l-3 28 -17 -23z"/>
<path d="M8817 5343 c-12 -11 -8 -23 8 -23 8 0 15 7 15 15 0 16 -12 20 -23 8z"/>
<path d="M8980 5340 c0 -5 5 -10 11 -10 5 0 7 5 4 10 -3 6 -8 10 -11 10 -2 0
-4 -4 -4 -10z"/>
<path d="M1590 5304 c0 -23 2 -24 15 -10 8 8 15 19 15 25 0 6 -7 11 -15 11 -9
0 -15 -10 -15 -26z"/>
<path d="M560 5290 c0 -5 5 -10 11 -10 5 0 7 5 4 10 -3 6 -8 10 -11 10 -2 0
-4 -4 -4 -10z"/>
<path d="M1123 5293 c-12 -4 -32 -42 -47 -85 -7 -23 17 -24 38 -3 14 15 33 82
25 89 -2 2 -10 1 -16 -1z"/>
<path d="M8820 5260 c0 -11 5 -20 10 -20 6 0 10 9 10 20 0 11 -4 20 -10 20 -5
0 -10 -9 -10 -20z"/>
<path d="M8981 5243 c-1 -24 4 -43 9 -43 12 0 12 24 0 60 -7 21 -8 19 -9 -17z"/>
<path d="M551 5214 c0 -11 3 -14 6 -6 3 7 2 16 -1 19 -3 4 -6 -2 -5 -13z"/>
<path d="M578 5203 c6 -2 18 -2 25 0 6 3 1 5 -13 5 -14 0 -19 -2 -12 -5z"/>
<path d="M1580 5175 c0 -15 4 -24 10 -20 6 3 10 12 10 20 0 8 -4 17 -10 20 -6
4 -10 -5 -10 -20z"/>
<path d="M625 5180 c-3 -5 -1 -10 4 -10 6 0 11 5 11 10 0 6 -2 10 -4 10 -3 0
-8 -4 -11 -10z"/>
<path d="M11602 5160 c0 -14 2 -19 5 -12 2 6 2 18 0 25 -3 6 -5 1 -5 -13z"/>
<path d="M565 5139 c-4 -6 -5 -12 -2 -15 7 -7 37 7 37 17 0 13 -27 11 -35 -2z"/>
<path d="M1072 5088 c-7 -7 -12 -23 -12 -37 l1 -26 19 24 c31 36 23 70 -8 39z"/>
<path d="M8982 5070 c0 -14 2 -19 5 -12 2 6 2 18 0 25 -3 6 -5 1 -5 -13z"/>
<path d="M1428 5008 c-19 -23 -25 -88 -9 -88 13 0 37 41 45 78 9 39 -9 44 -36
10z"/>
<path d="M8982 5000 c0 -19 2 -27 5 -17 2 9 2 25 0 35 -3 9 -5 1 -5 -18z"/>
<path d="M1567 4993 c-6 -33 -5 -35 17 -27 10 4 16 15 14 27 -5 31 -25 31 -31
0z"/>
<path d="M1110 4975 c-14 -27 -5 -49 10 -25 9 14 14 50 7 50 -2 0 -10 -11 -17
-25z"/>
<path d="M11262 4985 c0 -11 3 -29 8 -40 11 -25 11 1 0 35 -6 20 -8 21 -8 5z"/>
<path d="M8978 4948 c-7 -18 2 -39 13 -32 12 7 12 44 0 44 -5 0 -11 -6 -13
-12z"/>
<path d="M9731 4864 c0 -49 4 -98 9 -109 5 -12 7 20 5 84 -5 128 -15 147 -14
25z"/>
<path d="M1566 4915 c-3 -10 -2 -23 4 -29 15 -15 24 1 13 26 -9 20 -10 20 -17
3z"/>
<path d="M1436 4867 c-8 -32 -7 -49 3 -43 12 8 20 55 11 61 -4 3 -10 -5 -14
-18z"/>
<path d="M8980 4849 c0 -11 5 -17 10 -14 6 3 10 13 10 21 0 8 -4 14 -10 14 -5
0 -10 -9 -10 -21z"/>
<path d="M2757 4783 c-10 -97 -8 -143 3 -143 6 0 10 42 10 105 0 58 -2 105 -4
105 -2 0 -6 -30 -9 -67z"/>
<path d="M2850 4821 c-33 -6 -35 -9 -41 -51 -4 -25 -2 -51 3 -57 13 -16 40
-17 56 -1 9 9 12 8 12 -5 0 -14 6 -16 28 -11 40 10 43 16 40 75 -3 52 -4 54
-33 55 -16 0 -46 -2 -65 -5z"/>
<path d="M8980 4795 c0 -14 4 -25 9 -25 12 0 19 21 13 38 -8 21 -22 13 -22
-13z"/>
<path d="M1026 4729 c-16 -27 -21 -61 -10 -71 12 -13 43 5 53 30 24 65 24 72
-2 70 -15 -1 -32 -13 -41 -29z"/>
<path d="M1554 4745 c-7 -18 2 -45 15 -45 12 0 24 37 16 50 -9 15 -25 12 -31
-5z"/>
<path d="M2991 4744 c0 -11 3 -14 6 -6 3 7 2 16 -1 19 -3 4 -6 -2 -5 -13z"/>
<path d="M1427 4730 c-9 -11 -17 -28 -17 -38 0 -10 -5 -23 -12 -30 -9 -9 -8
-12 4 -12 9 0 19 4 22 8 5 9 25 92 22 92 -1 0 -9 -9 -19 -20z"/>
<path d="M2992 4700 c0 -14 2 -19 5 -12 2 6 2 18 0 25 -3 6 -5 1 -5 -13z"/>
<path d="M8831 4704 c0 -11 3 -14 6 -6 3 7 2 16 -1 19 -3 4 -6 -2 -5 -13z"/>
<path d="M1121 4685 c-1 -5 -17 -21 -36 -34 -23 -15 -38 -36 -45 -60 -13 -48
-13 -51 9 -51 27 0 73 49 66 71 -4 10 -1 28 5 39 6 12 9 26 6 33 -2 7 -5 8 -5
2z"/>
<path d="M9742 4670 c0 -14 2 -19 5 -12 2 6 2 18 0 25 -3 6 -5 1 -5 -13z"/>
<path d="M880 4611 c0 -53 7 -81 20 -81 5 0 7 29 7 65 -2 44 -6 65 -14 65 -9
0 -13 -16 -13 -49z"/>
<path d="M1390 4624 c0 -8 5 -12 10 -9 6 3 10 10 10 16 0 5 -4 9 -10 9 -5 0
-10 -7 -10 -16z"/>
<path d="M1545 4607 c-4 -10 -5 -21 -1 -24 10 -10 18 4 13 24 -4 17 -4 17 -12
0z"/>
<path d="M9741 4594 c0 -11 3 -14 6 -6 3 7 2 16 -1 19 -3 4 -6 -2 -5 -13z"/>
<path d="M8980 4520 c0 -5 5 -10 10 -10 6 0 10 5 10 10 0 6 -4 10 -10 10 -5 0
-10 -4 -10 -10z"/>
<path d="M8823 4450 c-1 -33 3 -60 8 -60 5 0 9 23 9 50 0 28 0 53 1 57 0 4 -3
9 -8 10 -4 2 -9 -24 -10 -57z"/>
<path d="M1053 4482 c-14 -9 -38 -110 -29 -119 10 -10 44 41 51 76 7 36 -3 55
-22 43z"/>
<path d="M9820 4451 c-13 -25 -13 -27 6 -45 8 -9 27 -16 42 -15 15 0 21 3 15
6 -7 2 -13 13 -13 23 0 48 -30 67 -50 31z"/>
<path d="M1527 4444 c-4 -4 -7 -20 -7 -36 0 -21 5 -28 20 -28 29 0 36 28 13
51 -10 11 -22 16 -26 13z"/>
<path d="M876 4421 c-4 -7 -5 -15 -2 -18 9 -9 19 4 14 18 -4 11 -6 11 -12 0z"/>
<path d="M1394 4422 c-31 -20 -47 -102 -20 -102 21 0 34 22 42 68 6 41 1 50
-22 34z"/>
<path d="M870 4365 c0 -8 5 -15 10 -15 6 0 10 7 10 15 0 8 -4 15 -10 15 -5 0
-10 -7 -10 -15z"/>
<path d="M1075 4346 c-8 -19 -15 -46 -15 -58 0 -22 0 -22 19 -3 22 23 35 81
20 90 -5 4 -16 -9 -24 -29z"/>
<path d="M1514 4336 c-8 -34 3 -50 22 -32 18 18 18 30 -1 46 -12 10 -15 7 -21
-14z"/>
<path d="M8820 4345 c0 -8 5 -15 10 -15 6 0 10 7 10 15 0 8 -4 15 -10 15 -5 0
-10 -7 -10 -15z"/>
<path d="M9753 4310 c0 -25 2 -35 4 -22 2 12 2 32 0 45 -2 12 -4 2 -4 -23z"/>
<path d="M872 4300 c7 -11 16 -16 21 -11 12 12 0 31 -19 31 -12 0 -12 -3 -2
-20z"/>
<path d="M1390 4271 c0 -12 5 -21 10 -21 6 0 10 6 10 14 0 8 -4 18 -10 21 -5
3 -10 -3 -10 -14z"/>
<path d="M866 4261 c-4 -7 -5 -15 -2 -18 9 -9 19 4 14 18 -4 11 -6 11 -12 0z"/>
<path d="M8791 4254 c0 -11 3 -14 6 -6 3 7 2 16 -1 19 -3 4 -6 -2 -5 -13z"/>
<path d="M1380 4229 c0 -5 5 -7 10 -4 6 3 10 8 10 11 0 2 -4 4 -10 4 -5 0 -10
-5 -10 -11z"/>
<path d="M9753 4160 c0 -47 2 -66 4 -42 2 23 2 61 0 85 -2 23 -4 4 -4 -43z"/>
<path d="M867 4203 c-12 -12 -7 -43 7 -43 9 0 12 8 8 25 -5 27 -6 28 -15 18z"/>
<path d="M1040 4200 c0 -5 5 -10 10 -10 6 0 10 5 10 10 0 6 -4 10 -10 10 -5 0
-10 -4 -10 -10z"/>
<path d="M8980 4200 c0 -5 7 -10 15 -10 8 0 15 5 15 10 0 6 -7 10 -15 10 -8 0
-15 -4 -15 -10z"/>
<path d="M8892 4161 c4 -13 18 -16 19 -4 0 4 -5 9 -11 12 -7 2 -11 -2 -8 -8z"/>
<path d="M1012 4116 c-22 -26 -29 -43 -28 -72 1 -33 4 -38 20 -36 16 3 18 1 9
-10 -6 -7 -13 -36 -17 -64 -8 -63 9 -76 46 -36 62 67 79 206 19 150 -12 -11
-13 -9 -6 7 6 18 9 50 6 83 -2 21 -18 14 -49 -22z"/>
<path d="M1373 4139 c-7 -7 -13 -21 -13 -32 0 -10 -5 -27 -10 -37 -7 -13 -7
-21 0 -25 5 -3 10 -16 11 -28 0 -12 7 0 15 26 18 59 16 115 -3 96z"/>
<path d="M12232 4120 c0 -14 2 -19 5 -12 2 6 2 18 0 25 -3 6 -5 1 -5 -13z"/>
<path d="M8892 4111 c4 -13 18 -16 19 -4 0 4 -5 9 -11 12 -7 2 -11 -2 -8 -8z"/>
<path d="M8910 4069 c0 -5 5 -7 10 -4 6 3 10 8 10 11 0 2 -4 4 -10 4 -5 0 -10
-5 -10 -11z"/>
<path d="M12231 4065 c-2 -5 -5 -23 -7 -40 -7 -64 -11 -81 -24 -107 -10 -22
-16 -25 -26 -17 -8 6 -12 14 -9 18 2 4 -9 6 -24 3 -20 -3 -30 1 -35 14 -4 11
-2 20 3 22 6 2 11 11 11 19 0 10 -6 14 -20 10 -11 -3 -20 -1 -20 4 0 5 -7 9
-15 9 -8 0 -15 -5 -15 -10 0 -6 7 -13 15 -16 45 -18 -8 -43 -104 -49 -80 -6
-109 -20 -114 -54 -4 -26 -4 -26 -12 -3 -8 25 -35 30 -35 7 0 -21 -28 -19 -33
3 -4 16 -5 16 -6 0 0 -10 -5 -18 -11 -18 -5 0 -10 -16 -10 -36 0 -31 -3 -35
-20 -29 -11 4 -20 2 -20 -4 0 -6 9 -11 20 -11 11 0 20 -5 20 -11 0 -6 -7 -9
-14 -6 -10 4 -13 1 -9 -8 3 -9 -3 -18 -13 -22 -11 -3 -22 -11 -26 -17 -4 -6
-8 10 -8 36 0 47 -19 80 -21 36 -1 -13 -2 -32 -3 -43 -1 -11 -3 -32 -4 -47 -3
-41 -17 -34 -20 9 -4 58 -26 61 -24 3 0 -16 -4 -30 -10 -30 -6 0 -7 -15 -3
-40 8 -48 -12 -57 -21 -10 -4 17 -8 30 -11 30 -2 0 -17 -14 -32 -30 -30 -34
-41 -31 -41 11 0 15 -4 31 -10 34 -11 7 -13 -3 -10 -52 1 -18 -3 -33 -9 -33
-5 0 -11 -10 -13 -22 -3 -20 -8 -22 -36 -20 -31 3 -33 2 -27 -20 4 -13 11 -27
16 -32 5 -6 9 -15 9 -22 0 -18 -38 -5 -43 15 -3 9 -5 3 -6 -13 -2 -50 -15 -18
-17 42 -3 102 -15 305 -23 397 -7 69 -9 22 -9 -194 0 -188 -4 -287 -11 -294
-6 -6 -11 -19 -11 -30 0 -10 -4 -16 -8 -13 -5 3 -21 -2 -37 -10 -21 -11 -30
-12 -36 -3 -4 7 -7 3 -8 -12 -3 -68 -9 -94 -22 -94 -9 0 -15 -13 -17 -33 -3
-29 -6 -33 -25 -28 -20 5 -21 4 -4 -8 18 -14 25 -52 7 -41 -5 3 -10 1 -10 -4
0 -6 5 -11 11 -11 12 0 3 -37 -14 -58 -13 -16 -28 3 -20 25 7 17 -5 63 -16 63
-4 0 -11 -30 -14 -67 -5 -53 -11 -72 -28 -86 -12 -10 -19 -20 -16 -24 4 -3 2
-13 -2 -22 -8 -14 -29 -16 -145 -15 -75 1 -134 -2 -131 -6 2 -4 51 -10 107
-12 64 -3 103 -9 106 -17 2 -6 13 -11 25 -12 20 -1 20 -2 -3 -9 -23 -7 -23 -8
-3 -9 33 -1 35 -14 8 -53 -20 -29 -24 -46 -21 -83 2 -26 10 -51 17 -56 8 -5
10 -9 4 -9 -5 0 -4 -4 4 -9 7 -5 63 -9 123 -10 60 0 126 -5 146 -10 20 -5 82
-12 137 -15 55 -4 129 -11 165 -16 36 -5 85 -11 108 -15 l44 -6 -4 56 c-1 30
-1 55 1 55 2 0 10 -8 17 -17 11 -15 13 -15 14 -3 0 9 -14 32 -30 52 -30 36
-30 37 -20 106 5 39 14 81 19 94 16 40 54 172 54 188 0 8 6 21 14 28 8 8 11
22 8 33 -3 10 -7 36 -8 58 -1 31 -4 38 -14 29 -10 -8 -13 -4 -13 16 0 33 -13
33 -39 -1 -12 -14 -24 -24 -26 -21 -3 3 3 16 13 29 10 13 24 38 31 56 7 17 20
38 29 46 28 24 91 57 111 57 10 0 26 11 35 25 9 14 23 25 30 25 8 0 16 3 18 8
4 11 115 83 163 107 22 11 42 23 43 28 2 4 9 7 16 7 7 0 25 11 40 25 l26 24
-3 178 c-1 98 -4 174 -6 168z m-584 -431 c-9 -9 -28 6 -21 18 4 6 10 6 17 -1
6 -6 8 -13 4 -17z m-214 -111 c-7 -2 -19 -2 -25 0 -7 3 -2 5 12 5 14 0 19 -2
13 -5z m-53 -87 c0 -2 -9 -6 -20 -9 -11 -3 -20 -1 -20 4 0 5 9 9 20 9 11 0 20
-2 20 -4z m365 -176 c3 -5 1 -10 -4 -10 -6 0 -11 5 -11 10 0 6 2 10 4 10 3 0
8 -4 11 -10z m35 -74 c0 -3 -4 -8 -10 -11 -5 -3 -10 -1 -10 4 0 6 5 11 10 11
6 0 10 -2 10 -4z m-652 -167 c3 -12 2 -12 -6 0 -8 11 -11 9 -15 -10 -4 -22 -4
-22 -6 4 -1 30 19 34 27 6z m-63 -19 c3 -5 1 -10 -4 -10 -6 0 -11 5 -11 10 0
6 2 10 4 10 3 0 8 -4 11 -10z m-5 -30 c0 -5 -5 -10 -11 -10 -5 0 -7 5 -4 10 3
6 8 10 11 10 2 0 4 -4 4 -10z"/>
<path d="M9752 4025 c0 -16 2 -22 5 -12 2 9 2 23 0 30 -3 6 -5 -1 -5 -18z"/>
<path d="M12058 4043 c7 -3 16 -2 19 1 4 3 -2 6 -13 5 -11 0 -14 -3 -6 -6z"/>
<path d="M8910 4024 c0 -8 5 -12 10 -9 6 3 10 10 10 16 0 5 -4 9 -10 9 -5 0
-10 -7 -10 -16z"/>
<path d="M860 4015 c0 -8 4 -15 10 -15 5 0 7 7 4 15 -4 8 -8 15 -10 15 -2 0
-4 -7 -4 -15z"/>
<path d="M1632 3995 c0 -16 2 -22 5 -12 2 9 2 23 0 30 -3 6 -5 -1 -5 -18z"/>
<path d="M8910 3968 c0 -21 5 -38 10 -38 13 0 13 40 0 60 -7 11 -10 5 -10 -22z"/>
<path d="M9751 3974 c0 -11 3 -14 6 -6 3 7 2 16 -1 19 -3 4 -6 -2 -5 -13z"/>
<path d="M11906 3961 c-4 -7 -5 -15 -2 -18 9 -9 19 4 14 18 -4 11 -6 11 -12 0z"/>
<path d="M1327 3903 c-6 -53 -14 -114 -22 -155 -10 -60 22 -71 50 -17 17 31
20 75 6 83 -5 3 -8 29 -6 58 2 29 1 58 -2 65 -10 26 -21 12 -26 -34z"/>
<path d="M9754 3861 c1 -44 4 -83 9 -87 10 -10 9 138 -1 154 -5 6 -8 -24 -8
-67z"/>
<path d="M851 3864 c0 -11 3 -14 6 -6 3 7 2 16 -1 19 -3 4 -6 -2 -5 -13z"/>
<path d="M11650 3855 c0 -14 4 -25 9 -25 4 0 6 11 3 25 -2 14 -6 25 -8 25 -2
0 -4 -11 -4 -25z"/>
<path d="M11607 3851 c-4 -17 -3 -21 5 -13 5 5 8 16 6 23 -3 8 -7 3 -11 -10z"/>
<path d="M848 3793 c-3 -27 -1 -52 4 -57 4 -6 8 16 8 47 0 69 -6 74 -12 10z"/>
<path d="M11600 3785 c0 -14 4 -25 8 -25 4 0 9 11 10 25 1 14 -3 25 -8 25 -6
0 -10 -11 -10 -25z"/>
<path d="M9673 3760 c0 -25 2 -35 4 -22 2 12 2 32 0 45 -2 12 -4 2 -4 -23z"/>
<path d="M11540 3785 c0 -8 5 -15 10 -15 6 0 10 7 10 15 0 8 -4 15 -10 15 -5
0 -10 -7 -10 -15z"/>
<path d="M10855 3770 c-3 -5 -1 -10 4 -10 6 0 11 5 11 10 0 6 -2 10 -4 10 -3
0 -8 -4 -11 -10z"/>
<path d="M11550 3749 c0 -5 5 -7 10 -4 6 3 10 8 10 11 0 2 -4 4 -10 4 -5 0
-10 -5 -10 -11z"/>
<path d="M11442 3700 c0 -14 2 -19 5 -12 2 6 2 18 0 25 -3 6 -5 1 -5 -13z"/>
<path d="M872 3698 c-2 -21 -18 -24 -25 -5 -3 6 -6 -11 -6 -40 -1 -51 12 -74
30 -56 6 6 8 34 6 64 -2 30 -4 46 -5 37z m-2 -64 c0 -14 -4 -23 -10 -19 -5 3
-10 15 -10 26 0 10 5 19 10 19 6 0 10 -12 10 -26z"/>
<path d="M1332 3652 c-13 -13 -21 -30 -18 -38 3 -8 1 -14 -4 -14 -6 0 -10 -16
-10 -36 0 -21 4 -33 10 -29 6 3 10 14 10 24 0 10 11 35 25 55 31 46 22 73 -13
38z"/>
<path d="M9671 3584 c0 -11 3 -14 6 -6 3 7 2 16 -1 19 -3 4 -6 -2 -5 -13z"/>
<path d="M11380 3580 c0 -5 5 -10 10 -10 6 0 10 5 10 10 0 6 -4 10 -10 10 -5
0 -10 -4 -10 -10z"/>
<path d="M11070 3242 c0 -35 4 -62 10 -62 10 0 6 107 -4 118 -4 3 -6 -22 -6
-56z"/>
<path d="M9160 3250 c0 -5 5 -10 10 -10 6 0 10 5 10 10 0 6 -4 10 -10 10 -5 0
-10 -4 -10 -10z"/>
<path d="M11809 3145 c-3 -11 0 -37 5 -57 7 -26 6 -59 -1 -105 -7 -37 -10 -69
-8 -71 2 -2 11 11 20 29 12 22 19 28 25 19 5 -8 11 -1 19 21 14 40 14 39 -3
39 -8 0 -16 -8 -19 -17 -2 -10 -4 2 -5 27 -1 56 -27 144 -33 115z"/>
<path d="M12034 3135 c8 -8 18 -15 22 -15 3 0 1 7 -6 15 -7 8 -17 15 -22 15
-5 0 -3 -7 6 -15z"/>
<path d="M11961 3096 c-17 -31 -4 -57 16 -31 14 21 18 55 5 55 -5 0 -14 -11
-21 -24z"/>
<path d="M12043 3088 c-4 -7 -15 -26 -23 -43 -16 -32 -50 -46 -50 -20 0 8 -4
15 -10 15 -6 0 -6 -10 1 -27 7 -18 6 -30 -1 -37 -5 -5 -10 -20 -10 -32 0 -13
-5 -26 -11 -29 -5 -4 -8 -12 -6 -18 2 -7 -4 -34 -15 -60 -10 -27 -16 -52 -13
-57 10 -16 -17 -22 -32 -8 -17 18 -21 36 -23 108 -2 79 -17 35 -25 -72 -7
-101 -13 -132 -30 -165 -17 -32 -10 -50 27 -69 27 -14 31 -14 44 3 34 43 106
217 142 343 8 30 22 63 30 72 8 9 17 38 19 63 6 45 1 56 -14 33z"/>
<path d="M10295 2991 c2 -28 6 -55 10 -60 9 -16 25 -13 19 3 -7 19 79 24 256
14 86 -5 138 -4 144 2 7 7 -28 10 -105 11 -62 1 -157 4 -209 8 l-95 6 -3 33
c-5 52 -20 37 -17 -17z"/>
<path d="M10130 2940 c0 -5 4 -10 9 -10 6 0 13 5 16 10 3 6 -1 10 -9 10 -9 0
-16 -4 -16 -10z"/>
<path d="M9946 2885 c-9 -44 3 -235 16 -255 5 -9 6 44 3 135 -3 82 -7 151 -9
153 -2 1 -7 -13 -10 -33z"/>
<path d="M10130 2900 c0 -5 5 -10 10 -10 6 0 10 5 10 10 0 6 -4 10 -10 10 -5
0 -10 -4 -10 -10z"/>
<path d="M9863 2847 c-1 -33 2 -45 8 -36 11 17 11 60 1 76 -4 6 -8 -12 -9 -40z"/>
<path d="M9468 2873 c7 -3 16 -2 19 1 4 3 -2 6 -13 5 -11 0 -14 -3 -6 -6z"/>
<path d="M9821 2844 c0 -11 3 -14 6 -6 3 7 2 16 -1 19 -3 4 -6 -2 -5 -13z"/>
<path d="M10243 2836 c4 -10 7 -22 7 -27 0 -5 4 -9 9 -9 12 0 2 38 -12 47 -7
4 -8 0 -4 -11z"/>
<path d="M10880 2810 c0 -5 7 -10 15 -10 8 0 15 5 15 10 0 6 -7 10 -15 10 -8
0 -15 -4 -15 -10z"/>
<path d="M10515 2767 c-4 -10 -5 -21 -1 -24 10 -10 18 4 13 24 -4 17 -4 17
-12 0z"/>
<path d="M9860 2758 c0 -19 18 -43 25 -36 9 9 -4 48 -16 48 -5 0 -9 -6 -9 -12z"/>
<path d="M10001 2754 c0 -11 3 -14 6 -6 3 7 2 16 -1 19 -3 4 -6 -2 -5 -13z"/>
<path d="M9855 2680 c3 -5 13 -10 21 -10 8 0 12 5 9 10 -3 6 -13 10 -21 10 -8
0 -12 -4 -9 -10z"/>
<path d="M12035 2607 c6 -15 -21 -44 -32 -34 -3 4 -14 2 -24 -4 -13 -6 -19 -6
-19 1 0 5 -4 10 -10 10 -22 0 -8 -26 20 -38 16 -8 28 -19 27 -25 -3 -17 38
-20 52 -3 7 8 13 34 14 57 2 34 -2 44 -15 47 -12 2 -16 -1 -13 -11z"/>
<path d="M9395 2600 c4 -6 11 -8 16 -5 14 9 11 15 -7 15 -8 0 -12 -5 -9 -10z"/>
<path d="M10461 2584 c0 -11 3 -14 6 -6 3 7 2 16 -1 19 -3 4 -6 -2 -5 -13z"/>
<path d="M1040 2109 c0 -5 5 -7 10 -4 6 3 10 8 10 11 0 2 -4 4 -10 4 -5 0 -10
-5 -10 -11z"/>
<path d="M560 1770 c0 -5 7 -10 16 -10 8 0 12 5 9 10 -3 6 -10 10 -16 10 -5 0
-9 -4 -9 -10z"/>
<path d="M1070 1634 c0 -8 5 -12 10 -9 6 3 10 10 10 16 0 5 -4 9 -10 9 -5 0
-10 -7 -10 -16z"/>
<path d="M9125 1243 c-33 -2 -63 -10 -67 -16 -8 -14 -88 -16 -161 -5 l-47 8
20 -40 c24 -46 46 -51 89 -19 56 41 200 33 286 -16 33 -19 53 -23 118 -22 74
2 78 3 97 32 13 20 34 34 62 42 l43 13 -50 -7 c-108 -15 -241 -4 -281 22 -13
8 -29 14 -36 13 -7 -1 -40 -3 -73 -5z"/>
<path d="M616 1232 c-3 -6 -1 -14 5 -17 15 -10 25 3 12 16 -7 7 -13 7 -17 1z"/>
<path d="M9707 1160 c12 -10 26 -35 33 -55 13 -41 36 -45 91 -17 42 22 71 21
125 -1 47 -21 69 -54 79 -122 9 -66 25 -39 22 38 l-2 57 -72 30 c-45 19 -89
30 -120 30 -35 0 -61 8 -98 30 -59 35 -90 40 -58 10z"/>
<path d="M11360 1136 c-64 -62 -89 -81 -103 -78 -8 2 -18 -1 -21 -7 -8 -13
151 -2 214 14 l45 12 -33 7 c-19 5 -42 20 -54 37 -25 33 -28 34 -48 15z"/>
<path d="M11178 1033 c7 -3 16 -2 19 1 4 3 -2 6 -13 5 -11 0 -14 -3 -6 -6z"/>
<path d="M11023 1018 c-13 -6 -23 -15 -23 -20 0 -12 85 0 125 17 29 13 29 13
-25 14 -30 0 -65 -5 -77 -11z"/>
<path d="M10855 970 c-16 -4 -50 -18 -74 -30 -107 -53 -189 -62 -285 -30 -67
23 -76 24 -76 10 0 -5 7 -10 15 -10 8 0 22 -11 30 -24 14 -21 24 -24 73 -23
99 1 158 -19 213 -73 27 -26 51 -45 54 -42 3 3 5 -2 5 -11 0 -9 3 -17 8 -17 4
0 8 27 9 59 0 32 4 68 8 80 6 19 70 69 108 84 9 3 17 12 17 19 0 15 -60 20
-105 8z"/>
<path d="M608 803 c6 -2 18 -2 25 0 6 3 1 5 -13 5 -14 0 -19 -2 -12 -5z"/>
<path d="M168 713 c7 -3 16 -2 19 1 4 3 -2 6 -13 5 -11 0 -14 -3 -6 -6z"/>
<path d="M252 610 c0 -19 2 -27 5 -17 2 9 2 25 0 35 -3 9 -5 1 -5 -18z"/>
<path d="M11161 50 c0 -16 22 -50 33 -50 11 0 6 14 -14 40 -13 16 -20 20 -19
10z"/>
</g>
</svg>
