<?xml version="1.0" standalone="no"?>
<!DOCTYPE svg PUBLIC "-//W3C//DTD SVG 20010904//EN"
 "http://www.w3.org/TR/2001/REC-SVG-20010904/DTD/svg10.dtd">
<svg version="1.0" xmlns="http://www.w3.org/2000/svg"
 width="1792.000000pt" height="1476.000000pt" viewBox="0 0 1792.000000 1476.000000"
 preserveAspectRatio="xMidYMid meet">
<metadata>
Created by potrace 1.16, written by Peter Selinger 2001-2019
</metadata>
<g transform="translate(0.000000,1476.000000) scale(0.100000,-0.100000)"
fill="#000000" stroke="none">
<path d="M9580 13630 c0 -6 -27 -10 -60 -10 -33 0 -60 -4 -60 -10 0 -5 -18
-10 -40 -10 -22 0 -40 -4 -40 -10 0 -5 -22 -10 -50 -10 -27 0 -50 -4 -50 -10
0 -5 -13 -10 -30 -10 -16 0 -30 -4 -30 -10 0 -5 -9 -10 -20 -10 -11 0 -20 -4
-20 -10 0 -5 -8 -10 -18 -10 -10 0 -24 -9 -32 -20 -8 -11 -21 -20 -28 -20 -7
0 -31 -18 -52 -40 -21 -22 -44 -40 -50 -40 -7 0 -25 -13 -40 -30 -15 -16 -34
-30 -42 -30 -7 0 -20 -9 -28 -20 -8 -11 -22 -20 -32 -20 -10 0 -18 -4 -18 -10
0 -5 -7 -10 -15 -10 -17 0 -185 -164 -185 -181 0 -6 -13 -24 -30 -39 -16 -15
-30 -33 -30 -40 0 -7 -13 -25 -30 -40 -16 -15 -30 -33 -30 -40 0 -7 -13 -25
-30 -40 -16 -15 -30 -35 -30 -44 0 -9 -4 -16 -10 -16 -5 0 -10 -9 -10 -20 0
-11 -4 -20 -10 -20 -5 0 -10 -9 -10 -20 0 -11 -4 -20 -10 -20 -5 0 -10 -9 -10
-20 0 -11 -4 -20 -10 -20 -5 0 -10 -9 -10 -20 0 -11 -4 -20 -10 -20 -5 0 -10
-9 -10 -20 0 -11 -4 -20 -10 -20 -5 0 -10 -9 -10 -20 0 -11 -4 -20 -10 -20 -5
0 -10 -8 -10 -18 0 -10 -9 -24 -20 -32 -12 -8 -20 -26 -20 -42 0 -15 -4 -28
-10 -28 -5 0 -10 -9 -10 -20 0 -11 -4 -20 -10 -20 -5 0 -10 -9 -10 -20 0 -11
-4 -20 -10 -20 -5 0 -10 -9 -10 -20 0 -11 -4 -20 -10 -20 -5 0 -10 -9 -10 -20
0 -11 -4 -20 -10 -20 -5 0 -10 -9 -10 -20 0 -11 -4 -20 -10 -20 -5 0 -10 -9
-10 -20 0 -11 -4 -20 -10 -20 -5 0 -10 -13 -10 -30 0 -16 -4 -30 -10 -30 -5 0
-10 -13 -10 -28 0 -16 -8 -34 -20 -42 -11 -8 -20 -22 -20 -32 0 -10 -4 -18
-10 -18 -5 0 -10 -7 -10 -16 0 -18 -23 -44 -40 -44 -16 0 -80 -67 -80 -85 0
-8 -4 -15 -10 -15 -5 0 -10 -9 -10 -20 0 -11 -4 -20 -10 -20 -5 0 -10 -9 -10
-20 0 -11 -4 -20 -10 -20 -5 0 -10 -18 -10 -40 0 -22 -4 -40 -10 -40 -5 0 -10
-22 -10 -50 0 -27 -4 -50 -10 -50 -5 0 -10 -18 -10 -40 0 -22 -4 -40 -10 -40
-5 0 -10 -13 -10 -30 0 -16 -4 -30 -10 -30 -5 0 -10 -9 -10 -20 0 -11 -4 -20
-10 -20 -5 0 -10 -9 -10 -19 0 -11 -6 -21 -12 -24 -8 -2 -9 -8 -4 -13 5 -5 11
-4 13 4 9 23 23 12 23 -18 0 -16 -4 -30 -10 -30 -5 0 -10 -13 -10 -30 0 -16
-4 -30 -10 -30 -5 0 -10 -13 -10 -30 0 -16 -4 -30 -10 -30 -6 0 -10 -33 -10
-80 0 -47 -4 -80 -10 -80 -5 0 -10 -18 -10 -40 0 -22 -4 -40 -10 -40 -6 0 -10
-33 -10 -80 0 -47 -4 -80 -10 -80 -5 0 -10 -13 -10 -30 0 -16 -4 -30 -10 -30
-6 0 -10 50 -10 130 0 80 -4 130 -10 130 -5 0 -10 -18 -10 -40 0 -22 -4 -40
-10 -40 -6 0 -10 -57 -10 -150 0 -93 -4 -150 -10 -150 -6 0 -10 -117 -10 -330
0 -213 -4 -330 -10 -330 -5 0 -10 -22 -10 -48 0 -36 5 -51 20 -62 17 -12 20
-26 20 -82 0 -39 4 -68 10 -68 6 0 10 -32 10 -76 0 -67 -3 -79 -22 -97 -16
-13 -19 -21 -10 -24 30 -11 4 -83 -30 -83 -8 0 -20 -9 -28 -20 -9 -13 -26 -20
-48 -20 -35 0 -62 -19 -62 -42 0 -8 -9 -20 -20 -28 -11 -8 -20 -21 -20 -30 0
-9 -9 -22 -20 -30 -11 -8 -20 -22 -20 -32 0 -10 -4 -18 -10 -18 -5 0 -10 -18
-10 -40 0 -22 -4 -40 -10 -40 -5 0 -10 -13 -10 -30 0 -23 4 -30 20 -30 18 0
20 7 20 56 0 57 14 84 44 84 13 0 16 -12 16 -59 0 -38 5 -61 13 -65 10 -5 10
-7 0 -12 -15 -7 -17 -44 -3 -44 6 0 10 -9 10 -20 0 -17 -7 -20 -40 -20 -22 0
-40 5 -40 10 0 6 -18 10 -40 10 -22 0 -40 -4 -40 -10 0 -5 -13 -10 -30 -10
-16 0 -30 -4 -30 -10 0 -6 -47 -10 -120 -10 -73 0 -120 -4 -120 -10 0 -5 -22
-10 -50 -10 -27 0 -50 -4 -50 -10 0 -5 -7 -10 -16 -10 -9 0 -29 -13 -44 -30
-21 -23 -37 -30 -64 -30 -20 0 -36 -4 -36 -10 0 -5 -9 -10 -20 -10 -11 0 -20
-4 -20 -10 0 -5 -9 -10 -20 -10 -11 0 -20 -4 -20 -10 0 -5 -13 -10 -30 -10
-16 0 -30 -4 -30 -10 0 -5 -9 -10 -20 -10 -11 0 -20 -4 -20 -10 0 -5 -9 -10
-20 -10 -11 0 -20 -4 -20 -10 0 -5 -9 -10 -20 -10 -11 0 -20 -4 -20 -10 0 -5
-9 -10 -20 -10 -11 0 -20 -4 -20 -10 0 -5 -8 -10 -18 -10 -10 0 -24 -9 -32
-20 -8 -11 -21 -20 -28 -20 -7 0 -31 -18 -52 -40 -21 -22 -43 -40 -50 -40 -15
0 -80 -67 -80 -82 0 -8 -9 -20 -20 -28 -11 -8 -20 -21 -20 -30 0 -9 -9 -22
-20 -30 -11 -8 -20 -22 -20 -32 0 -10 -4 -18 -10 -18 -5 0 -10 -9 -10 -20 0
-11 -4 -20 -10 -20 -5 0 -10 -13 -10 -30 0 -16 -4 -30 -10 -30 -5 0 -10 -18
-10 -40 0 -22 -4 -40 -10 -40 -5 0 -10 -13 -10 -30 0 -16 -4 -30 -10 -30 -6 0
-10 -137 -10 -390 0 -253 -4 -390 -10 -390 -6 0 -10 -30 -10 -70 0 -40 -4 -70
-10 -70 -5 0 -10 -18 -10 -40 0 -22 -4 -40 -10 -40 -6 0 -10 -47 -10 -120 0
-73 4 -120 10 -120 6 0 10 -13 10 -30 0 -16 5 -30 10 -30 6 0 10 -7 10 -16 0
-9 14 -29 30 -44 17 -15 30 -35 30 -44 0 -9 5 -16 10 -16 6 0 10 -9 10 -20 0
-11 5 -20 10 -20 6 0 10 -18 10 -40 0 -22 5 -40 10 -40 6 0 10 -13 10 -30 0
-16 5 -30 10 -30 6 0 10 -13 10 -30 0 -16 5 -30 10 -30 6 0 10 -18 10 -40 0
-22 5 -40 10 -40 6 0 10 -13 10 -30 0 -16 5 -30 10 -30 6 0 10 -13 10 -30 0
-16 5 -30 10 -30 6 0 10 -13 10 -30 0 -16 5 -30 10 -30 6 0 10 -13 10 -30 0
-16 5 -30 10 -30 6 0 10 -13 10 -30 0 -16 5 -30 10 -30 6 0 10 -13 10 -30 0
-16 5 -30 10 -30 6 0 10 -9 10 -20 0 -11 5 -20 10 -20 6 0 10 -13 10 -30 0
-16 5 -30 10 -30 6 0 10 -13 10 -30 0 -16 5 -30 10 -30 6 0 10 -9 10 -20 0
-11 5 -20 10 -20 6 0 10 -13 10 -30 0 -16 5 -30 10 -30 6 0 10 -13 10 -30 0
-16 5 -30 10 -30 6 0 10 -13 10 -30 0 -16 5 -30 10 -30 6 0 10 -13 10 -30 0
-16 5 -30 10 -30 6 0 10 -13 10 -30 0 -16 5 -30 10 -30 6 0 10 -18 10 -40 0
-22 5 -40 10 -40 6 0 10 -18 10 -40 0 -22 5 -40 10 -40 6 0 10 -30 10 -70 0
-40 4 -70 10 -70 6 0 10 -9 10 -20 0 -11 5 -20 10 -20 6 0 10 -9 10 -20 0 -13
7 -20 19 -20 11 0 22 -6 25 -12 5 -10 7 -10 12 0 10 22 24 12 24 -18 0 -16 5
-30 10 -30 6 0 10 -13 10 -30 0 -16 5 -30 10 -30 6 0 10 -13 10 -30 0 -16 5
-30 10 -30 6 0 10 14 10 30 0 17 -4 30 -10 30 -5 0 -10 14 -10 30 0 17 -4 30
-10 30 -5 0 -10 18 -10 40 0 22 5 40 10 40 6 0 10 11 10 25 0 29 40 75 65 75
8 0 15 5 15 10 0 6 14 10 30 10 17 0 30 5 30 10 0 6 23 10 50 10 28 0 50 5 50
10 0 6 23 10 50 10 28 0 50 5 50 10 0 6 32 10 75 10 67 0 79 -3 100 -25 25
-24 25 -27 25 -190 0 -103 4 -165 10 -165 6 0 10 -70 10 -190 0 -120 4 -190
10 -190 6 0 10 -133 10 -380 0 -247 -4 -380 -10 -380 -6 0 -10 -47 -10 -120 0
-73 -4 -120 -10 -120 -6 0 -10 -33 -10 -80 0 -47 -4 -80 -10 -80 -6 0 -10 -30
-10 -70 0 -40 -4 -70 -10 -70 -5 0 -10 -22 -10 -50 0 -27 -4 -50 -10 -50 -5 0
-10 -22 -10 -50 0 -27 -4 -50 -10 -50 -5 0 -10 -18 -10 -40 0 -22 -4 -40 -10
-40 -5 0 -10 -18 -10 -40 0 -22 -4 -40 -10 -40 -5 0 -10 -18 -10 -40 0 -22 -4
-40 -10 -40 -5 0 -10 -18 -10 -40 0 -22 -4 -40 -10 -40 -5 0 -10 -13 -10 -30
0 -16 -4 -30 -10 -30 -5 0 -10 -18 -10 -40 0 -22 -4 -40 -10 -40 -5 0 -10 -13
-10 -30 0 -16 -4 -30 -10 -30 -5 0 -10 -22 -10 -50 0 -27 -4 -50 -10 -50 -5 0
-10 -22 -10 -50 0 -27 -4 -50 -10 -50 -6 0 -10 -30 -10 -70 0 -40 -4 -70 -10
-70 -6 0 -10 -37 -10 -90 0 -53 -4 -90 -10 -90 -5 0 -10 -22 -10 -50 0 -27 -4
-50 -10 -50 -6 0 -10 -37 -10 -90 0 -53 -4 -90 -10 -90 -6 0 -10 -27 -10 -60
0 -33 -4 -60 -10 -60 -5 0 -10 -18 -10 -40 0 -22 -4 -40 -10 -40 -5 0 -10 -18
-10 -40 0 -22 -4 -40 -10 -40 -5 0 -10 -22 -10 -50 0 -27 -4 -50 -10 -50 -6 0
-10 -27 -10 -60 0 -33 -4 -60 -10 -60 -6 0 -10 -30 -10 -70 0 -40 -4 -70 -10
-70 -6 0 -10 -40 -10 -100 0 -60 -4 -100 -10 -100 -6 0 -10 -40 -10 -100 0
-60 -4 -100 -10 -100 -6 0 -10 -30 -10 -70 0 -40 -4 -70 -10 -70 -5 0 -10 -22
-10 -50 0 -27 -4 -50 -10 -50 -6 0 -10 -27 -10 -60 0 -33 -4 -60 -10 -60 -5 0
-10 -22 -10 -50 0 -27 -4 -50 -10 -50 -5 0 -10 -18 -10 -40 0 -22 -4 -40 -10
-40 -6 0 -10 -27 -10 -60 0 -33 -4 -60 -10 -60 -5 0 -10 -22 -10 -50 l0 -50
3030 0 3030 0 0 40 c0 22 -4 40 -10 40 -5 0 -10 18 -10 40 0 22 -4 40 -10 40
-5 0 -10 18 -10 40 0 22 -4 40 -10 40 -5 0 -10 14 -10 30 0 17 -4 30 -10 30
-5 0 -10 14 -10 30 0 17 -4 30 -10 30 -5 0 -10 14 -10 30 0 17 -4 30 -10 30
-5 0 -10 18 -10 40 0 22 -4 40 -10 40 -5 0 -10 14 -10 30 0 17 -4 30 -10 30
-5 0 -10 9 -10 20 0 11 -4 20 -10 20 -5 0 -10 14 -10 30 0 17 -4 30 -10 30 -5
0 -10 14 -10 30 0 17 -4 30 -10 30 -5 0 -10 18 -10 40 0 22 -4 40 -10 40 -5 0
-10 14 -10 30 0 17 -4 30 -10 30 -5 0 -10 14 -10 30 0 17 -4 30 -10 30 -5 0
-10 14 -10 30 0 17 -4 30 -10 30 -5 0 -10 18 -10 40 0 22 -4 40 -10 40 -5 0
-10 9 -10 20 0 11 -4 20 -10 20 -5 0 -10 9 -10 20 0 11 -4 20 -10 20 -5 0 -10
18 -10 40 0 22 -4 40 -10 40 -6 0 -10 33 -10 80 0 47 -4 80 -10 80 -15 0 -12
38 3 43 7 2 0 15 -20 34 -28 26 -33 38 -33 77 0 25 -4 46 -10 46 -5 0 -10 14
-10 30 0 17 -4 30 -10 30 -5 0 -10 23 -10 50 0 28 -4 50 -10 50 -5 0 -10 14
-10 30 0 23 -4 30 -20 30 -18 0 -20 7 -20 60 0 53 -2 60 -20 60 -13 0 -20 7
-20 20 0 11 -4 20 -10 20 -15 0 -12 57 3 64 10 5 10 7 0 12 -9 4 -13 29 -13
75 0 39 -4 69 -10 69 -5 0 -10 -9 -10 -20 0 -11 -4 -20 -10 -20 -15 0 -12 29
4 46 31 31 66 4 66 -50 0 -26 4 -36 16 -36 31 0 44 -27 44 -90 0 -51 4 -65 25
-85 13 -14 30 -25 37 -25 8 0 20 -9 28 -20 20 -27 30 -25 30 6 0 29 21 54 44
54 9 0 16 5 16 10 0 6 18 10 40 10 22 0 40 -4 40 -10 0 -5 9 -10 20 -10 15 0
20 -7 20 -29 0 -16 -6 -32 -12 -35 -10 -5 -10 -7 0 -12 6 -3 12 -14 12 -25 0
-10 5 -19 10 -19 6 0 10 5 10 10 0 6 5 10 10 10 6 0 10 -30 10 -70 0 -40 4
-70 10 -70 6 0 10 -9 10 -20 0 -11 5 -20 10 -20 6 0 10 -9 10 -20 0 -11 -4
-20 -10 -20 -5 0 -10 5 -10 10 0 6 -13 10 -30 10 -23 0 -30 -4 -30 -20 0 -11
-4 -20 -10 -20 -5 0 -10 -13 -10 -30 0 -35 -10 -38 -30 -10 -8 11 -18 20 -22
20 -4 0 -8 -9 -8 -20 0 -11 5 -20 10 -20 6 0 10 -4 10 -10 0 -5 -13 -10 -30
-10 -23 0 -30 4 -30 20 0 11 5 20 10 20 6 0 10 9 10 20 0 11 -4 20 -10 20 -5
0 -10 18 -10 40 0 33 -3 40 -20 40 -13 0 -20 -7 -20 -20 0 -11 5 -20 10 -20 6
0 10 -9 10 -20 0 -11 -4 -20 -10 -20 -5 0 -10 9 -10 20 0 13 -7 20 -20 20 -13
0 -20 -7 -20 -20 0 -11 5 -20 10 -20 6 0 10 -9 10 -20 0 -13 7 -20 20 -20 11
0 20 -4 20 -10 0 -5 -9 -10 -20 -10 -24 0 -25 -6 -6 -26 11 -10 41 -14 110
-14 57 0 96 -4 96 -10 0 -5 9 -10 20 -10 13 0 20 -7 20 -20 0 -16 -7 -20 -30
-20 -16 0 -30 -4 -30 -10 0 -6 -27 -10 -60 -10 -33 0 -60 -4 -60 -10 0 -5 14
-10 30 -10 29 0 30 -1 30 -50 0 -49 1 -50 30 -50 17 0 30 -4 30 -10 0 -5 -4
-10 -10 -10 -5 0 -10 -9 -10 -20 0 -11 -4 -20 -10 -20 -5 0 -10 5 -10 10 0 6
-13 10 -30 10 -26 0 -30 -3 -30 -29 0 -16 6 -32 13 -35 10 -5 10 -7 0 -12 -15
-7 -18 -84 -3 -84 6 0 10 -18 10 -40 0 -22 5 -40 10 -40 6 0 10 -13 10 -30 0
-23 5 -30 19 -30 11 0 22 -6 25 -13 5 -9 7 -9 12 1 7 14 64 17 64 2 0 -6 43
-10 110 -10 67 0 110 4 110 10 0 6 18 10 40 10 22 0 40 -4 40 -10 0 -5 9 -10
20 -10 20 0 20 7 20 600 0 393 -3 600 -10 600 -7 0 -10 290 -10 850 0 560 -3
850 -10 850 -7 0 -10 627 -10 1860 l0 1860 160 0 c153 0 160 -1 160 -20 0 -26
12 -26 30 0 13 18 26 20 122 20 65 0 108 -4 108 -10 0 -6 60 -10 160 -10 100
0 160 4 160 10 0 6 14 10 30 10 17 0 30 -4 30 -10 0 -6 80 -10 220 -10 l220 0
0 -320 c0 -207 4 -320 10 -320 7 0 10 -150 10 -430 0 -280 3 -430 10 -430 7 0
10 257 10 750 l0 750 160 0 160 0 0 -210 c0 -133 4 -210 10 -210 7 0 10 -187
10 -540 0 -353 3 -540 10 -540 16 0 13 -217 -2 -224 -10 -5 -10 -7 0 -12 9 -4
12 -87 12 -365 0 -233 4 -359 10 -359 7 0 10 -157 10 -450 0 -293 3 -450 10
-450 7 0 10 -153 10 -439 0 -342 3 -441 13 -445 10 -5 10 -7 0 -12 -15 -7 -18
-84 -3 -84 6 0 10 -130 10 -370 0 -240 4 -370 10 -370 7 0 10 -177 10 -510 0
-333 3 -510 10 -510 6 0 10 -137 10 -390 l0 -390 -40 0 c-22 0 -40 5 -40 10 0
6 -18 10 -40 10 -22 0 -40 -4 -40 -10 0 -5 18 -10 40 -10 22 0 40 -4 40 -10 0
-5 18 -10 40 -10 22 0 40 -4 40 -10 0 -6 37 -10 90 -10 53 0 90 -4 90 -10 0
-6 30 -10 70 -10 40 0 70 -4 70 -10 0 -5 18 -10 40 -10 22 0 40 -4 40 -10 0
-5 23 -10 50 -10 28 0 50 -4 50 -10 0 -6 43 -10 110 -10 67 0 110 4 110 10 0
6 23 10 50 10 28 0 50 5 50 10 0 6 7 10 16 10 15 0 44 23 44 34 0 3 -9 6 -20
6 -11 0 -20 -4 -20 -10 0 -5 -13 -10 -30 -10 -16 0 -30 -4 -30 -10 0 -16 -237
-13 -244 3 -5 9 -7 9 -12 0 -7 -15 -64 -18 -64 -3 0 6 -9 10 -20 10 -11 0 -20
5 -20 10 0 6 -26 10 -59 10 -38 0 -61 4 -64 13 -4 9 -8 8 -17 -3 -9 -11 -13
-12 -17 -2 -3 8 -31 12 -90 12 -97 0 -113 9 -113 64 0 20 -4 36 -10 36 -6 0
-10 137 -10 390 0 253 -4 390 -10 390 -7 0 -10 157 -10 450 0 293 -3 450 -10
450 -6 0 -10 127 -10 360 0 233 -4 360 -10 360 -7 0 -10 157 -10 450 0 293 -3
450 -10 450 -7 0 -10 163 -10 470 0 307 -3 470 -10 470 -7 0 -10 147 -10 420
0 273 -3 420 -10 420 -7 0 -10 177 -10 510 0 333 -3 510 -10 510 -6 0 -10 119
-10 336 0 277 2 338 14 350 11 11 46 14 150 14 84 0 136 -4 136 -10 0 -5 9
-10 20 -10 19 0 20 -7 20 -210 0 -133 -4 -210 -10 -210 -7 0 -10 -183 -10
-530 0 -347 3 -530 10 -530 7 0 10 -163 10 -470 0 -307 3 -470 10 -470 6 0 10
-107 10 -300 0 -193 4 -300 10 -300 6 0 10 -123 10 -350 0 -227 4 -350 10
-350 6 0 10 137 10 390 0 253 -4 390 -10 390 -6 0 -10 123 -10 350 0 227 -4
350 -10 350 -7 0 -10 173 -10 500 0 327 -3 500 -10 500 -7 0 -10 143 -10 410
l0 410 470 0 c307 0 470 3 470 10 0 6 -40 10 -100 10 -60 0 -100 4 -100 10 0
6 -97 10 -270 10 -173 0 -270 -4 -270 -10 0 -6 -37 -10 -90 -10 l-90 0 0 196
c0 156 3 198 14 210 17 17 246 21 246 4 0 -7 143 -10 409 -10 318 0 411 -3
415 -12 5 -10 7 -10 12 0 4 9 47 12 161 12 147 0 157 -1 174 -22 l19 -21 19
21 c17 21 27 22 165 22 91 0 146 -4 146 -10 0 -5 9 -10 20 -10 11 0 20 5 20
10 0 6 9 10 20 10 11 0 20 -4 20 -10 0 -7 180 -10 519 -10 406 0 521 -3 525
-12 5 -10 7 -10 12 0 3 6 14 12 25 12 14 0 19 7 19 30 l0 30 -210 0 c-133 0
-210 4 -210 10 0 7 -213 10 -620 10 -407 0 -620 3 -620 10 0 7 -260 10 -760
10 -500 0 -760 3 -760 10 0 15 -97 13 -103 -2 -4 -10 -8 -9 -17 2 -9 11 -13
12 -17 3 -6 -15 -43 -17 -43 -3 0 15 -97 12 -104 -2 -5 -10 -7 -10 -12 0 -4 9
-115 12 -505 12 -326 0 -499 3 -499 10 0 6 -113 10 -320 10 -207 0 -320 -4
-320 -10 0 -5 -13 -10 -30 -10 -16 0 -30 -4 -30 -10 0 -5 9 -10 20 -10 11 0
20 -4 20 -10 0 -5 -18 -10 -40 -10 -33 0 -40 -3 -40 -20 0 -11 5 -20 10 -20 6
0 10 5 10 10 0 6 9 10 20 10 20 0 20 -7 20 -1070 0 -707 3 -1070 10 -1070 7 0
10 -423 10 -1250 0 -827 3 -1250 10 -1250 7 0 10 -203 10 -590 0 -387 3 -590
10 -590 6 0 10 -133 10 -380 0 -209 -3 -380 -6 -380 -3 0 -12 6 -20 14 -12 12
-14 77 -14 380 0 237 -4 366 -10 366 -5 0 -10 9 -10 20 0 11 5 20 10 20 6 0
10 9 10 20 0 11 -4 20 -10 20 -6 0 -10 85 -10 236 0 196 -3 238 -15 250 -13
14 -17 13 -32 -2 -13 -13 -14 -19 -5 -22 14 -4 16 -42 2 -42 -5 0 -10 -12 -10
-26 0 -16 -12 -37 -30 -54 -18 -17 -30 -38 -30 -54 0 -19 -5 -26 -20 -26 -11
0 -20 -4 -20 -10 0 -6 -30 -10 -70 -10 -40 0 -70 4 -70 10 0 6 -9 10 -20 10
-12 0 -20 7 -20 16 0 19 -24 44 -42 44 -8 0 -20 9 -28 20 -10 14 -26 20 -51
20 -21 0 -40 6 -43 12 -5 10 -7 10 -12 1 -10 -21 -78 -16 -94 7 -8 11 -22 20
-32 20 -10 0 -18 5 -18 10 0 6 -16 10 -35 10 -38 0 -85 36 -85 65 0 8 -4 15
-10 15 -5 0 -10 14 -10 30 0 17 -4 30 -10 30 -5 0 -10 9 -10 20 0 11 -4 20
-10 20 -5 0 -10 9 -10 20 0 11 -4 20 -10 20 -5 0 -10 14 -10 30 0 17 -4 30
-10 30 -5 0 -10 14 -10 30 0 17 -4 30 -10 30 -5 0 -10 14 -10 30 0 17 -4 30
-10 30 -5 0 -10 14 -10 30 0 17 -4 30 -10 30 -5 0 -10 9 -10 20 0 11 -4 20
-10 20 -5 0 -10 14 -10 30 0 17 -4 30 -10 30 -5 0 -10 9 -10 20 0 11 -4 20
-10 20 -5 0 -10 9 -10 20 0 11 -4 20 -10 20 -5 0 -10 14 -10 30 0 17 -4 30
-10 30 -5 0 -10 13 -10 29 0 16 -6 31 -12 34 -8 2 -9 8 -4 13 5 5 11 4 13 -3
3 -8 22 -13 44 -13 21 0 39 -4 39 -10 0 -15 58 -12 62 2 3 9 9 8 21 -4 13 -12
17 -35 17 -91 0 -51 4 -77 13 -81 10 -5 10 -7 0 -12 -15 -7 -18 -64 -3 -64 6
0 10 -13 10 -30 0 -16 -4 -30 -10 -30 -5 0 -10 -4 -10 -10 0 -5 9 -10 20 -10
19 0 20 7 20 160 0 100 -4 160 -10 160 -5 0 -10 14 -10 30 l0 30 -100 0 c-60
0 -100 4 -100 10 0 6 -9 10 -20 10 -13 0 -20 7 -20 20 0 11 -4 20 -10 20 -5 0
-10 9 -10 20 0 11 -4 20 -10 20 -5 0 -10 9 -10 20 0 11 -4 20 -10 20 -5 0 -10
9 -10 20 0 11 -4 20 -10 20 -5 0 -10 9 -10 20 0 11 -4 20 -10 20 -5 0 -10 9
-10 20 0 11 -4 20 -10 20 -5 0 -10 14 -10 30 0 17 -4 30 -10 30 -5 0 -10 9
-10 20 0 11 -4 20 -10 20 -5 0 -10 14 -10 30 0 17 -4 30 -10 30 -5 0 -10 9
-10 20 0 11 -4 20 -10 20 -5 0 -10 9 -10 20 0 11 -4 20 -10 20 -5 0 -10 9 -10
20 0 11 -4 20 -10 20 -5 0 -10 9 -10 20 0 11 -4 20 -10 20 -5 0 -10 9 -10 20
0 11 -4 20 -10 20 -5 0 -10 14 -10 30 0 17 -4 30 -10 30 -5 0 -10 9 -10 20 0
11 -4 20 -10 20 -5 0 -10 14 -10 30 0 17 -4 30 -10 30 -5 0 -10 9 -10 20 0 11
-4 20 -10 20 -5 0 -10 9 -10 20 0 11 -4 20 -10 20 -5 0 -10 14 -10 30 0 17 -4
30 -10 30 -5 0 -10 9 -10 20 0 11 -4 20 -10 20 -5 0 -10 9 -10 20 0 11 -4 20
-10 20 -5 0 -10 9 -10 20 0 11 -4 20 -10 20 -5 0 -10 18 -10 40 0 22 5 40 10
40 6 0 10 23 10 50 0 28 5 50 10 50 6 0 10 73 10 200 0 127 4 200 10 200 6 0
10 18 10 40 0 33 3 40 20 40 11 0 20 5 20 10 0 6 14 10 30 10 17 0 30 5 30 10
0 6 33 10 80 10 47 0 80 4 80 10 0 6 33 10 80 10 47 0 80 4 80 10 0 6 70 10
190 10 120 0 190 -4 190 -10 0 -6 27 -10 60 -10 l60 0 0 110 c0 67 -4 110 -10
110 -6 0 -10 70 -10 190 0 120 4 190 10 190 6 0 10 23 10 50 0 28 5 50 10 50
6 0 10 23 10 50 0 28 5 50 10 50 6 0 10 23 10 50 0 28 5 50 10 50 6 0 10 14
10 30 0 17 5 30 10 30 6 0 10 23 10 50 0 28 5 50 10 50 6 0 10 18 10 40 0 22
5 40 10 40 6 0 10 18 10 40 0 22 5 40 10 40 6 0 10 14 10 30 0 17 5 30 10 30
6 0 10 18 10 40 0 22 5 40 10 40 6 0 10 14 10 30 0 17 5 30 10 30 6 0 10 14
10 30 0 17 5 30 10 30 6 0 10 18 10 40 0 22 5 40 10 40 6 0 10 14 10 30 0 17
5 30 10 30 6 0 10 9 10 20 0 11 5 20 10 20 6 0 10 14 10 30 0 17 5 30 10 30 6
0 10 8 10 18 0 10 9 24 20 32 14 10 20 26 20 52 0 21 5 38 10 38 6 0 10 23 10
50 0 28 5 50 10 50 6 0 10 23 10 50 0 28 -4 50 -10 50 -6 0 -10 40 -10 100 0
60 -4 100 -10 100 -6 0 -10 63 -10 170 0 107 -4 170 -10 170 -6 0 -10 40 -10
100 0 60 -4 100 -10 100 -6 0 -10 30 -10 70 0 40 -4 70 -10 70 -6 0 -10 33
-10 80 0 47 -4 80 -10 80 -6 0 -10 33 -10 80 0 47 -4 80 -10 80 -6 0 -10 30
-10 70 0 40 -4 70 -10 70 -5 0 -10 18 -10 40 0 22 -4 40 -10 40 -5 0 -10 18
-10 40 0 22 -4 40 -10 40 -5 0 -10 14 -10 30 0 17 5 30 10 30 6 0 10 5 10 10
0 6 -18 10 -40 10 -33 0 -40 -3 -40 -20 0 -22 -15 -27 -24 -7 -5 10 -7 10 -12
0 -8 -17 -101 -17 -107 0 -3 8 -11 5 -24 -10 -21 -23 -53 -31 -53 -13 0 6 -21
10 -46 10 -40 0 -74 16 -74 34 0 3 32 6 70 6 57 0 70 3 70 16 0 18 23 44 40
44 12 0 40 24 40 34 0 3 -27 6 -60 6 -33 0 -60 -4 -60 -10 0 -5 -9 -10 -20
-10 -11 0 -20 4 -20 8 0 4 9 14 20 22 11 8 20 22 20 32 0 24 12 23 30 -2 15
-21 50 -28 50 -10 0 6 -9 10 -20 10 -11 0 -20 5 -20 10 0 6 14 10 30 10 17 0
30 -4 30 -10 0 -5 9 -10 20 -10 11 0 20 5 20 10 0 14 38 12 43 -2 2 -7 8 -10
12 -6 4 4 -6 21 -24 37 -17 16 -31 34 -31 40 0 15 -146 161 -161 161 -6 0 -24
14 -39 30 -15 17 -35 30 -44 30 -9 0 -16 5 -16 10 0 6 -9 10 -20 10 -11 0 -20
5 -20 10 0 6 -9 10 -20 10 -11 0 -20 5 -20 10 0 6 -9 10 -20 10 -11 0 -20 5
-20 10 0 6 -9 10 -20 10 -11 0 -20 5 -20 10 0 6 -13 10 -30 10 -16 0 -30 5
-30 10 0 6 -9 10 -20 10 -11 0 -20 2 -20 5 0 13 50 55 65 55 8 0 15 5 15 10 0
6 9 10 20 10 11 0 20 5 20 10 0 15 57 12 64 -2 5 -10 7 -10 12 0 3 6 13 12 23
12 9 0 23 9 31 20 8 11 20 20 27 20 17 0 103 86 103 103 0 7 9 19 20 27 12 8
20 26 20 42 0 15 5 28 10 28 6 0 10 14 10 30 0 17 5 30 10 30 6 0 10 14 10 30
0 17 5 30 10 30 6 0 10 53 10 140 0 87 -4 140 -10 140 -6 0 -10 27 -10 60 0
33 -4 60 -10 60 -6 0 -10 27 -10 60 0 33 -4 60 -10 60 -5 0 -10 14 -10 30 0
17 -4 30 -10 30 -5 0 -10 9 -10 20 0 11 -4 20 -10 20 -5 0 -10 18 -10 40 0 22
-4 40 -10 40 -5 0 -10 18 -10 40 0 22 -4 40 -10 40 -5 0 -10 14 -10 30 0 17
-4 30 -10 30 -5 0 -10 9 -10 20 0 11 -4 20 -10 20 -5 0 -10 9 -10 20 0 11 -4
20 -10 20 -5 0 -10 9 -10 20 0 13 -7 20 -20 20 -17 0 -20 7 -20 40 0 22 -4 40
-10 40 -5 0 -10 9 -10 20 0 11 -4 20 -10 20 -5 0 -10 14 -10 30 0 17 -4 30
-10 30 -5 0 -10 14 -10 30 0 17 -4 30 -10 30 -5 0 -10 22 -10 48 0 36 -5 51
-20 62 -11 8 -20 22 -20 32 0 10 -4 18 -10 18 -5 0 -10 9 -10 20 0 11 -4 20
-10 20 -5 0 -10 14 -10 30 0 17 -4 30 -10 30 -5 0 -10 14 -10 30 0 17 -4 30
-10 30 -5 0 -10 9 -10 20 0 11 -4 20 -10 20 -5 0 -10 9 -10 20 0 11 -4 20 -10
20 -5 0 -10 9 -10 20 0 11 -4 20 -10 20 -5 0 -10 18 -10 40 0 22 -4 40 -10 40
-5 0 -10 9 -10 20 0 23 -25 27 -46 6 -16 -17 -19 -46 -4 -46 6 0 10 5 10 10 0
6 5 10 10 10 15 0 12 -49 -4 -66 -8 -8 -22 -14 -30 -14 -9 0 -16 -8 -16 -20 0
-13 7 -20 20 -20 13 0 20 -7 20 -20 0 -11 -4 -20 -10 -20 -5 0 -10 -18 -10
-40 0 -22 5 -40 10 -40 6 0 10 -9 10 -19 0 -11 6 -22 13 -24 9 -4 8 -8 -3 -17
-11 -9 -12 -13 -2 -17 14 -6 16 -43 2 -43 -5 0 -10 -21 -10 -46 0 -47 16 -74
44 -74 11 0 16 -9 16 -30 0 -16 -4 -30 -10 -30 -5 0 -10 -13 -10 -30 0 -16 -4
-30 -10 -30 -14 0 -12 -37 3 -43 9 -4 8 -8 -3 -17 -11 -9 -12 -13 -2 -17 6 -2
12 -22 12 -43 0 -22 5 -40 13 -43 8 -3 5 -11 -10 -24 -23 -21 -31 -53 -13 -53
6 0 10 -13 10 -30 0 -16 -4 -30 -10 -30 -5 0 -10 14 -10 30 0 17 -4 30 -10 30
-5 0 -10 9 -10 19 0 11 -6 21 -12 24 -8 2 -9 8 -4 13 5 5 11 4 13 -3 7 -20 23
-15 23 7 0 13 -7 20 -20 20 -13 0 -20 7 -20 20 0 11 -4 20 -10 20 -6 0 -10 36
-10 88 0 76 -3 89 -20 102 -14 10 -20 26 -20 52 0 31 -4 38 -20 38 -17 0 -20
-7 -20 -50 0 -27 -4 -50 -10 -50 -5 0 -10 -7 -10 -15 0 -14 -62 -85 -75 -85
-14 0 -3 37 15 50 11 8 20 26 20 41 0 15 6 30 13 32 9 4 8 8 -3 17 -11 9 -12
13 -2 17 18 7 15 43 -4 43 -19 0 -44 -24 -44 -42 0 -8 -9 -20 -20 -28 -11 -8
-20 -20 -20 -28 0 -18 -25 -42 -44 -42 -9 0 -16 -7 -16 -16 0 -20 -24 -44 -44
-44 -9 0 -16 8 -16 20 0 22 -16 27 -22 8 -9 -25 -38 20 -38 56 0 29 -4 36 -20
36 -13 0 -20 -7 -20 -20 0 -11 5 -20 10 -20 6 0 10 -16 10 -35 0 -26 -8 -44
-27 -63 -17 -17 -28 -22 -31 -14 -2 7 -17 12 -33 12 -26 0 -29 4 -29 30 0 23
4 30 20 30 11 0 20 -4 20 -10 0 -5 9 -10 19 -10 11 0 21 -6 24 -12 2 -8 8 -9
13 -4 5 5 4 11 -3 13 -18 6 -17 91 1 109 8 8 22 14 30 14 11 0 16 9 16 30 0
17 5 30 10 30 6 0 10 9 10 20 0 11 5 20 10 20 6 0 10 14 10 30 0 17 5 30 10
30 6 0 10 16 10 35 0 25 8 44 25 60 29 30 35 31 35 5 0 -11 5 -20 10 -20 6 0
10 9 10 20 0 17 7 20 40 20 22 0 40 -4 40 -10 0 -5 5 -10 10 -10 6 0 10 9 10
20 0 11 5 20 10 20 6 0 10 76 10 209 0 158 3 211 13 215 10 5 10 7 0 12 -7 3
-13 18 -13 33 0 15 -9 33 -20 41 -14 10 -20 26 -20 52 0 21 -4 38 -10 38 -5 0
-10 14 -10 30 0 17 5 30 10 30 6 0 10 9 10 20 0 11 -4 20 -10 20 -5 0 -10 14
-10 30 0 17 5 30 10 30 6 0 10 9 10 20 0 13 7 20 20 20 16 0 20 -7 20 -30 0
-27 3 -30 30 -30 36 0 37 -6 8 -33 -16 -13 -19 -21 -10 -24 8 -3 12 -26 12
-64 0 -33 4 -59 10 -59 6 0 10 -9 10 -20 0 -12 7 -20 16 -20 22 0 53 -32 36
-38 -14 -4 -17 -62 -2 -62 6 0 10 -9 10 -20 0 -11 5 -20 10 -20 6 0 10 -13 10
-30 0 -16 5 -30 10 -30 6 0 10 -4 10 -10 0 -5 -9 -10 -20 -10 -16 0 -20 -7
-20 -30 0 -23 4 -30 20 -30 11 0 20 5 20 10 0 6 9 10 20 10 17 0 20 7 20 40 0
22 -4 40 -10 40 -5 0 -10 18 -10 40 0 22 -4 40 -10 40 -5 0 -10 18 -10 40 0
22 -4 40 -10 40 -5 0 -10 23 -10 50 0 28 -4 50 -10 50 -5 0 -10 9 -10 20 0 11
-4 20 -10 20 -5 0 -10 17 -10 38 0 26 -6 42 -20 52 -11 8 -20 22 -20 32 0 11
7 18 20 18 13 0 20 7 20 20 0 11 -4 20 -10 20 -5 0 -10 18 -10 40 0 22 -4 40
-10 40 -5 0 -10 14 -10 30 0 17 -4 30 -10 30 -5 0 -10 14 -10 30 0 17 -4 30
-10 30 -5 0 -10 14 -10 30 0 17 -4 30 -10 30 -5 0 -10 9 -10 20 0 11 -4 20
-10 20 -5 0 -10 9 -10 20 0 11 -4 20 -10 20 -5 0 -10 14 -10 30 0 17 -4 30
-10 30 -5 0 -10 14 -10 30 0 17 -4 30 -10 30 -5 0 -10 7 -10 16 0 9 -13 29
-30 44 -16 15 -30 34 -30 42 0 7 -9 20 -20 28 -11 8 -20 22 -20 32 0 11 -7 18
-20 18 -22 0 -27 -16 -7 -23 6 -2 9 -8 5 -12 -12 -12 -38 22 -38 49 0 14 -4
26 -10 26 -5 0 -10 18 -10 40 0 30 -4 40 -16 40 -25 0 -44 26 -44 60 0 23 -9
40 -30 60 -16 15 -30 35 -30 44 0 9 -8 16 -19 16 -11 0 -21 6 -24 13 -2 7 -15
0 -34 -20 -36 -38 -43 -40 -43 -13 0 11 5 20 10 20 6 0 10 9 10 20 0 24 -6 25
-26 6 -15 -16 -20 -106 -5 -106 5 0 11 6 13 12 6 17 38 -14 38 -36 0 -9 5 -16
10 -16 6 0 10 -9 10 -20 0 -11 5 -20 10 -20 6 0 10 -9 10 -20 0 -11 5 -20 10
-20 6 0 10 -13 10 -30 0 -21 5 -30 16 -30 18 0 44 -24 44 -40 0 -7 14 -25 30
-40 17 -16 30 -38 30 -52 0 -13 9 -30 20 -38 11 -8 20 -22 20 -32 0 -10 5 -18
10 -18 6 0 10 -13 10 -28 0 -16 8 -34 20 -42 12 -8 20 -26 20 -42 0 -15 5 -28
10 -28 6 0 10 -13 10 -30 0 -16 5 -30 10 -30 6 0 10 -9 10 -20 0 -13 7 -20 20
-20 16 0 20 -7 20 -35 0 -29 9 -44 45 -80 24 -25 49 -45 55 -45 6 0 18 -7 26
-15 24 -24 -5 -45 -60 -45 l-46 0 0 -40 c0 -33 -3 -40 -19 -40 -11 0 -21 6
-23 12 -3 9 -10 7 -24 -6 -13 -14 -15 -21 -6 -24 21 -7 14 -42 -8 -42 -13 0
-20 -7 -20 -20 0 -11 -4 -20 -10 -20 -5 0 -10 -13 -10 -30 0 -16 -4 -30 -10
-30 -5 0 -10 -9 -10 -20 0 -11 -4 -20 -10 -20 -5 0 -10 -21 -10 -46 0 -38 -5
-51 -30 -74 -23 -21 -30 -37 -30 -64 0 -20 5 -36 10 -36 6 0 10 -16 10 -36 0
-42 19 -64 54 -64 22 0 26 4 26 30 0 17 -4 30 -10 30 -5 0 -10 18 -10 40 0 33
3 40 20 40 13 0 20 -7 20 -20 0 -13 7 -20 20 -20 17 0 20 -7 20 -50 0 -27 -4
-50 -10 -50 -5 0 -10 -7 -10 -16 0 -15 -23 -44 -34 -44 -3 0 -6 9 -6 20 0 22
-35 29 -43 8 -3 -9 -11 -6 -24 10 -23 25 -58 29 -79 8 -16 -17 -19 -46 -4 -46
6 0 10 -4 10 -10 0 -5 -9 -10 -20 -10 -17 0 -20 -7 -20 -50 0 -27 -4 -50 -10
-50 -5 0 -10 14 -10 30 0 23 -4 30 -20 30 -16 0 -20 -7 -20 -30 0 -16 -4 -30
-10 -30 -5 0 -10 9 -10 20 0 11 -4 20 -10 20 -5 0 -10 -9 -10 -20 0 -11 -4
-20 -10 -20 -15 0 -13 117 3 124 10 5 10 7 0 12 -7 3 -13 19 -13 35 0 16 -4
29 -10 29 -5 0 -10 14 -10 30 0 17 5 30 10 30 6 0 10 37 10 90 0 53 -4 90 -10
90 -5 0 -10 13 -10 28 0 16 -8 34 -20 42 -11 8 -20 22 -20 32 0 10 -4 18 -10
18 -5 0 -10 9 -10 19 0 11 -6 22 -12 24 -10 4 -9 8 2 17 11 9 12 13 3 17 -7 2
-13 11 -13 20 0 19 -24 43 -44 43 -9 0 -16 8 -16 20 0 11 5 20 10 20 6 0 10 5
10 10 0 6 -9 10 -20 10 -18 0 -20 7 -20 70 0 40 -4 70 -10 70 -5 0 -10 13 -10
28 0 16 -8 34 -20 42 -11 8 -20 22 -20 32 0 11 -7 18 -20 18 -13 0 -20 7 -20
20 0 13 7 20 20 20 11 0 20 5 20 10 0 6 -7 10 -16 10 -8 0 -22 6 -30 14 -16
17 -19 46 -4 46 6 0 10 -9 10 -20 0 -11 5 -20 10 -20 6 0 10 9 10 20 0 11 5
20 10 20 6 0 10 9 10 20 0 22 -16 27 -22 8 -6 -17 -38 14 -38 36 0 9 -4 16
-10 16 -5 0 -10 5 -10 10 0 6 14 10 30 10 17 0 30 5 30 10 0 6 -9 10 -20 10
-11 0 -20 5 -20 10 0 6 -13 10 -30 10 -26 0 -30 4 -30 26 0 15 -10 35 -22 45
-11 11 -18 22 -13 27 4 4 10 1 12 -5 6 -18 31 -16 51 4 12 12 13 18 4 21 -21
7 -14 42 8 42 11 0 20 5 20 10 0 6 -18 10 -40 10 -22 0 -40 5 -40 10 0 6 -9
10 -20 10 -13 0 -20 -7 -20 -20 0 -16 7 -20 30 -20 34 0 37 -5 13 -28 -12 -12
-18 -13 -21 -4 -2 6 -12 12 -23 12 -14 0 -19 7 -19 30 0 26 -4 30 -26 30 -23
0 -54 20 -54 34 0 3 9 6 20 6 11 0 20 -4 20 -10 0 -5 5 -10 10 -10 6 0 10 9
10 20 0 13 -7 20 -20 20 -11 0 -20 5 -20 10 0 6 -9 10 -20 10 -16 0 -20 7 -20
30 0 29 -1 30 -50 30 -27 0 -50 -4 -50 -10 0 -5 -4 -10 -10 -10 -5 0 -10 7
-10 16 0 26 -26 44 -64 44 -42 0 -44 6 -15 31 19 16 20 20 6 34 -9 8 -23 15
-31 15 -9 0 -16 5 -16 10 0 6 -30 10 -70 10 -40 0 -70 4 -70 10 0 6 -13 10
-30 10 -36 0 -37 6 -9 31 19 16 20 20 6 34 -20 19 -54 19 -74 0 -14 -14 -13
-18 6 -34 30 -26 27 -31 -19 -31 -38 0 -40 2 -40 30 0 23 -4 30 -20 30 -22 0
-29 -35 -8 -42 16 -6 -35 -58 -57 -58 -10 0 -15 10 -15 30 0 23 -4 30 -20 30
-11 0 -20 5 -20 10 0 6 -13 10 -30 10 -16 0 -30 -4 -30 -10 0 -5 -4 -10 -10
-10 -5 0 -10 12 -10 26 0 23 -20 54 -34 54 -3 0 -6 -22 -6 -50 0 -27 -4 -50
-10 -50 -5 0 -10 14 -10 30 0 17 -4 30 -10 30 -5 0 -10 -13 -10 -30 0 -16 -4
-30 -10 -30 -5 0 -10 -9 -10 -20 0 -13 -7 -20 -20 -20 -11 0 -20 -4 -20 -10 0
-6 27 -10 60 -10 53 0 60 -2 60 -20 0 -13 -7 -20 -20 -20 -13 0 -20 -7 -20
-20 0 -11 -4 -20 -10 -20 -5 0 -10 -18 -10 -40 l0 -40 -50 0 c-27 0 -50 5 -50
10 0 6 14 10 30 10 27 0 30 3 30 30 0 28 -3 30 -36 30 -25 0 -43 -7 -57 -22
-13 -16 -21 -19 -24 -10 -7 19 -23 14 -23 -8 0 -11 -4 -20 -10 -20 -5 0 -10
14 -10 30 0 23 -4 30 -20 30 -13 0 -20 -7 -20 -20 0 -12 -7 -20 -16 -20 -9 0
-25 -10 -36 -22 -16 -19 -21 -20 -29 -8 -8 11 -12 12 -16 3 -6 -15 -43 -17
-43 -3 0 6 9 10 20 10 13 0 20 7 20 20 0 22 16 27 22 8 6 -17 38 14 38 36 0
12 10 16 40 16 22 0 40 5 40 10 0 6 9 10 20 10 12 0 20 7 20 16 0 20 24 44 44
44 9 0 16 5 16 10 0 6 9 10 20 10 11 0 20 5 20 10 0 6 -18 10 -40 10 -22 0
-40 5 -40 10 0 6 -33 10 -80 10 -47 0 -80 4 -80 10 0 6 -9 10 -20 10 -11 0
-20 5 -20 10 0 6 -4 10 -10 10 -5 0 -10 -9 -10 -20 0 -13 -7 -20 -20 -20 -11
0 -20 -4 -20 -10 0 -5 -9 -10 -20 -10 -11 0 -20 -4 -20 -10 0 -5 -13 -10 -30
-10 -16 0 -30 -4 -30 -10 0 -5 -13 -10 -30 -10 -16 0 -30 5 -30 10 0 6 -9 10
-20 10 -11 0 -20 5 -20 10 0 6 5 10 10 10 6 0 10 14 10 30 0 33 21 40 46 16
19 -20 18 -26 -6 -26 -13 0 -20 -7 -20 -20 0 -16 7 -20 30 -20 17 0 30 5 30
10 0 6 14 10 30 10 20 0 30 5 30 15 0 25 46 65 75 65 14 0 25 5 25 10 0 6 9
10 20 10 11 0 20 -4 20 -10 0 -5 9 -10 20 -10 11 0 20 5 20 10 0 6 9 10 20 10
28 0 27 47 -2 73 -16 13 -19 21 -10 24 14 5 17 63 2 63 -5 0 -10 -9 -10 -20 0
-16 -7 -20 -30 -20 -16 0 -30 -4 -30 -10 0 -5 -18 -10 -40 -10 -22 0 -40 -4
-40 -10 0 -5 -4 -10 -10 -10 -5 0 -10 9 -10 20 0 15 7 20 26 20 33 0 54 21 54
54 0 14 5 26 10 26 6 0 10 -4 10 -10 0 -5 9 -10 20 -10 11 0 20 5 20 10 0 6 9
10 20 10 17 0 20 7 20 40 0 47 20 54 53 18 13 -16 21 -19 24 -10 3 6 13 12 24
12 12 0 19 7 19 20 0 13 7 20 19 20 11 0 22 6 25 13 5 10 7 10 12 0 4 -9 29
-13 75 -13 39 0 69 -4 69 -10 0 -5 14 -10 30 -10 17 0 30 -4 30 -10 0 -18 32
-11 51 12 11 11 22 18 27 13 4 -4 1 -10 -5 -12 -7 -3 -13 -13 -13 -24 0 -29
46 -24 78 8 17 17 22 28 14 31 -31 10 -3 82 32 82 9 0 16 7 16 16 0 25 -26 44
-60 44 -28 0 -60 18 -60 34 0 3 23 6 50 6 28 0 50 5 50 10 0 6 5 10 10 10 6 0
10 -7 10 -15 0 -14 62 -85 75 -85 3 0 5 14 5 30 0 27 -3 30 -30 30 -16 0 -30
3 -30 6 0 16 33 34 64 34 20 0 36 5 36 10 0 6 5 10 10 10 6 0 10 -13 10 -30 0
-30 14 -41 23 -17 3 8 12 4 27 -13 15 -17 24 -21 27 -12 7 18 43 15 43 -4 0
-8 6 -22 14 -30 16 -16 86 -19 86 -4 0 6 -18 10 -40 10 -22 0 -40 5 -40 10 0
6 30 10 70 10 63 0 70 -2 70 -20 0 -13 7 -20 20 -20 11 0 20 5 20 10 0 18 35
11 50 -10 8 -12 26 -20 42 -20 28 0 38 15 16 23 -7 2 -10 8 -6 12 4 4 15 -1
25 -11 13 -12 14 -19 5 -22 -6 -2 -12 -12 -12 -22 0 -10 -6 -20 -12 -23 -7 -2
-10 -8 -6 -12 5 -5 16 2 27 13 18 22 71 31 71 12 0 -5 9 -10 20 -10 11 0 20
-4 20 -10 0 -5 7 -10 16 -10 8 0 33 -18 54 -40 21 -22 44 -40 50 -40 6 0 29
-18 50 -40 21 -22 43 -40 49 -40 17 0 101 -87 101 -105 0 -8 5 -15 10 -15 6 0
10 -9 10 -20 0 -11 5 -20 10 -20 6 0 10 -9 10 -20 0 -24 6 -25 26 -6 16 17 19
46 4 46 -5 0 -10 7 -10 16 0 8 -18 33 -40 54 -22 21 -40 46 -40 54 0 9 -7 16
-16 16 -8 0 -37 23 -64 50 -27 28 -54 50 -60 50 -7 0 -25 14 -40 30 -15 17
-33 30 -40 30 -7 0 -25 14 -40 30 -15 17 -34 30 -42 30 -7 0 -20 9 -28 20 -8
11 -22 20 -32 20 -10 0 -18 5 -18 10 0 6 -8 10 -18 10 -10 0 -24 9 -32 20 -8
11 -21 20 -30 20 -9 0 -22 9 -30 20 -8 11 -21 20 -30 20 -9 0 -22 9 -30 20 -8
11 -22 20 -32 20 -10 0 -18 5 -18 10 0 6 -8 10 -18 10 -10 0 -24 9 -32 20 -8
11 -22 20 -32 20 -10 0 -18 5 -18 10 0 6 -18 10 -40 10 -22 0 -40 5 -40 10 0
6 -9 10 -20 10 -11 0 -20 -4 -20 -10 0 -5 -13 -10 -30 -10 -16 0 -30 5 -30 10
0 6 9 10 20 10 11 0 20 5 20 10 0 6 -33 10 -80 10 -47 0 -80 -4 -80 -10 0 -5
-8 -10 -18 -10 -10 0 -24 -9 -32 -20 -8 -11 -26 -20 -40 -20 -14 0 -32 -9 -40
-20 -8 -12 -26 -20 -42 -20 -15 0 -28 -4 -28 -10 0 -5 -4 -10 -10 -10 -5 0
-10 9 -10 20 0 11 -4 20 -10 20 -5 0 -10 14 -10 30 0 23 -4 30 -20 30 -13 0
-20 7 -20 20 0 13 -7 20 -20 20 -11 0 -20 5 -20 10 0 6 9 10 20 10 11 0 20 5
20 10 0 6 -9 10 -20 10 -11 0 -20 -4 -20 -10z m200 -1200 c0 -5 9 -10 20 -10
11 0 20 5 20 10 0 6 23 10 50 10 28 0 50 -4 50 -10 0 -5 9 -10 20 -10 11 0 20
-4 20 -10 0 -5 9 -10 20 -10 11 0 20 -4 20 -10 0 -5 17 -10 38 -10 26 0 42 -6
52 -20 8 -11 20 -20 28 -20 18 0 42 -25 42 -44 0 -19 17 -21 23 -3 2 7 21 -6
46 -32 34 -36 45 -42 53 -30 7 11 11 11 15 2 3 -9 26 -13 64 -13 33 0 59 -4
59 -10 0 -20 33 -9 61 21 16 18 33 28 37 24 4 -4 1 -10 -5 -12 -7 -3 -13 -11
-13 -19 0 -20 45 -64 65 -64 21 0 19 -13 -5 -30 -24 -17 -26 -30 -4 -30 27 0
44 -27 44 -72 0 -32 5 -47 20 -58 18 -13 20 -26 20 -109 0 -85 -2 -96 -22
-114 -16 -13 -19 -21 -10 -24 14 -6 17 -83 2 -83 -5 0 -10 -4 -10 -10 0 -5 9
-10 20 -10 11 0 20 -4 20 -10 0 -5 5 -10 10 -10 6 0 10 9 10 20 0 11 5 20 10
20 6 0 10 -4 10 -10 0 -5 9 -10 20 -10 11 0 20 -4 20 -10 0 -5 -4 -10 -10 -10
-5 0 -10 -7 -10 -16 0 -9 -9 -25 -21 -35 -19 -16 -20 -20 -6 -34 9 -8 23 -15
31 -15 9 0 16 -8 16 -20 0 -11 -4 -20 -10 -20 -5 0 -10 -16 -10 -35 0 -25 -8
-44 -25 -60 -29 -30 -35 -31 -35 -5 0 13 -7 20 -18 20 -10 0 -24 -9 -32 -20
-12 -17 -26 -20 -92 -20 -45 0 -78 -4 -78 -10 0 -5 -25 -10 -55 -10 -46 0 -60
-4 -81 -25 l-25 -25 25 -25 c25 -25 56 -33 56 -15 0 6 18 10 40 10 22 0 40 5
40 10 0 6 48 10 125 10 120 0 127 -1 150 -25 34 -33 31 -59 -11 -102 -29 -28
-38 -33 -45 -22 -8 12 -11 12 -20 -1 -8 -11 -12 -12 -16 -2 -2 7 -22 12 -44
12 -21 0 -39 5 -39 10 0 6 -13 10 -30 10 -16 0 -30 5 -30 10 0 6 -13 10 -30
10 -16 0 -30 5 -30 10 0 14 -37 12 -43 -2 -4 -10 -8 -9 -17 2 -9 11 -13 12
-17 3 -6 -15 -43 -17 -43 -3 0 6 -26 10 -58 10 -46 0 -60 -4 -72 -20 -8 -11
-20 -20 -28 -20 -28 0 -42 -28 -42 -84 0 -49 3 -56 19 -56 11 0 22 6 25 13 5
10 7 10 12 0 3 -7 19 -13 35 -13 30 0 39 14 17 24 -10 5 -10 7 0 12 6 3 12 14
12 25 0 14 7 19 30 19 23 0 30 -4 30 -20 0 -13 7 -20 20 -20 11 0 20 -7 20
-15 0 -9 11 -27 25 -40 18 -19 35 -25 70 -25 25 0 45 5 45 10 0 6 7 10 16 10
26 0 44 26 44 64 0 20 5 36 10 36 6 0 10 -4 10 -10 0 -5 7 -10 16 -10 36 0 62
-70 32 -84 -10 -5 -10 -7 0 -12 6 -3 12 -19 12 -35 0 -22 5 -29 20 -29 13 0
20 -7 20 -20 0 -11 5 -20 10 -20 6 0 10 9 10 20 0 16 7 20 30 20 28 0 30 -2
30 -40 0 -22 -4 -40 -10 -40 -16 0 -13 -317 3 -324 10 -5 10 -7 0 -12 -7 -3
-13 -23 -13 -45 0 -21 -4 -39 -10 -39 -5 0 -10 -13 -10 -30 0 -16 -4 -30 -10
-30 -5 0 -10 -13 -10 -30 0 -16 -4 -30 -10 -30 -5 0 -10 -9 -10 -20 0 -11 -4
-20 -10 -20 -5 0 -10 -9 -10 -20 0 -11 -4 -20 -10 -20 -5 0 -10 -8 -10 -18 0
-10 -9 -24 -20 -32 -11 -8 -20 -21 -20 -30 0 -9 -9 -22 -20 -30 -11 -8 -20
-20 -20 -27 0 -17 -226 -243 -243 -243 -7 0 -19 -9 -27 -20 -8 -11 -22 -20
-32 -20 -10 0 -18 -4 -18 -10 0 -5 -7 -10 -16 -10 -9 0 -29 -13 -44 -30 -15
-16 -34 -30 -42 -30 -7 0 -20 -9 -28 -20 -8 -11 -21 -20 -30 -20 -9 0 -22 -9
-30 -20 -8 -11 -21 -20 -30 -20 -9 0 -22 -9 -30 -20 -8 -11 -20 -20 -28 -20
-16 0 -42 -24 -42 -40 0 -15 -25 -40 -40 -40 -7 0 -25 -13 -40 -30 -15 -16
-34 -30 -42 -30 -7 0 -20 -9 -28 -20 -13 -18 -26 -20 -112 -20 -59 0 -98 4
-98 10 0 6 -13 10 -30 10 -16 0 -30 5 -30 10 0 6 -27 10 -60 10 -33 0 -60 4
-60 10 0 6 -13 10 -30 10 -16 0 -30 5 -30 10 0 6 -9 10 -20 10 -11 0 -20 5
-20 10 0 6 -9 10 -20 10 -11 0 -20 5 -20 10 0 6 -8 10 -18 10 -10 0 -24 9 -32
20 -8 11 -21 20 -30 20 -9 0 -22 9 -30 20 -8 11 -21 20 -30 20 -9 0 -22 9 -30
20 -8 11 -21 20 -28 20 -8 0 -27 14 -42 30 -15 17 -35 30 -44 30 -9 0 -16 7
-16 16 0 9 -13 29 -30 44 -16 15 -30 34 -30 42 0 7 -9 20 -20 28 -11 8 -20 21
-20 30 0 9 -9 22 -20 30 -11 8 -20 22 -20 32 0 11 -7 18 -20 18 -12 0 -20 7
-20 16 0 9 -13 29 -30 44 -16 15 -30 35 -30 44 0 9 -4 16 -10 16 -5 0 -10 8
-10 18 0 10 -9 24 -20 32 -12 8 -20 26 -20 42 0 15 -4 28 -10 28 -5 0 -10 9
-10 20 0 11 -4 20 -10 20 -5 0 -10 9 -10 20 0 11 -4 20 -10 20 -5 0 -10 9 -10
20 0 11 -4 20 -10 20 -5 0 -10 14 -10 30 0 17 -4 30 -10 30 -5 0 -10 18 -10
40 0 22 -4 40 -10 40 -6 0 -10 27 -10 60 0 33 -4 60 -10 60 -6 0 -10 43 -10
110 0 67 -4 110 -10 110 -6 0 -10 29 -10 66 0 43 -5 70 -14 80 -17 16 -46 19
-46 4 0 -5 -18 -10 -40 -10 -22 0 -40 5 -40 10 0 6 -11 10 -25 10 -29 0 -95
59 -95 85 0 8 -4 15 -10 15 -5 0 -10 14 -10 30 0 17 -4 30 -10 30 -6 0 -10 27
-10 60 0 33 -4 60 -10 60 -6 0 -10 28 -10 65 0 62 2 68 35 100 19 19 40 35 46
35 6 0 20 9 30 21 16 19 20 20 34 6 8 -9 15 -21 15 -27 0 -6 7 -18 15 -26 13
-14 17 -13 32 2 13 13 14 19 5 22 -17 5 -15 50 2 68 8 8 24 14 36 14 23 0 50
22 50 40 0 15 25 40 40 40 17 0 40 -26 40 -44 0 -9 5 -16 10 -16 18 0 11 -55
-10 -70 -14 -10 -20 -26 -20 -52 0 -21 -4 -38 -10 -38 -6 0 -10 -37 -10 -90 0
-53 -4 -90 -10 -90 -15 0 -13 -117 3 -124 10 -5 10 -7 0 -12 -7 -3 -13 -23
-13 -44 0 -22 -5 -40 -12 -42 -9 -3 -8 -9 4 -21 25 -25 28 -22 28 33 0 28 5
50 10 50 6 0 10 23 10 50 0 28 5 50 10 50 6 0 10 23 10 50 0 28 5 50 10 50 6
0 10 14 10 30 0 17 5 30 10 30 6 0 10 18 10 40 0 22 5 40 10 40 6 0 10 14 10
30 0 17 5 30 10 30 6 0 10 8 10 18 0 10 9 24 20 32 11 8 20 22 20 32 0 10 5
18 10 18 6 0 10 9 10 20 0 11 5 20 10 20 6 0 10 8 10 18 0 10 9 24 20 32 11 8
20 22 20 32 0 10 5 18 10 18 6 0 10 13 10 28 0 16 8 34 20 42 12 8 20 26 20
42 0 19 5 28 16 28 20 0 44 24 44 44 0 9 8 16 18 16 10 0 24 9 32 20 8 11 21
20 30 20 9 0 22 9 30 20 8 11 22 20 32 20 10 0 18 5 18 10 0 6 9 10 20 10 11
0 20 5 20 10 0 6 8 10 18 10 10 0 24 9 32 20 8 11 20 20 28 20 16 0 62 45 62
60 0 16 47 60 65 60 8 0 15 5 15 10 0 6 7 10 16 10 9 0 29 14 44 30 15 17 35
30 44 30 11 0 16 9 16 30 0 27 3 30 30 30 17 0 30 5 30 10 0 6 7 10 16 10 9 0
29 14 44 30 15 17 34 30 42 30 7 0 20 9 28 20 8 12 26 20 42 20 15 0 28 5 28
10 0 6 30 10 70 10 40 0 70 4 70 10 0 6 9 10 20 10 11 0 20 -4 20 -10z m-1570
-550 c8 -11 22 -20 32 -20 10 0 18 -4 18 -10 0 -5 14 -10 30 -10 34 0 37 -5
16 -26 -17 -16 -106 -20 -106 -4 0 15 -29 12 -46 -4 -19 -20 -18 -26 6 -26 11
0 20 -4 20 -10 0 -5 14 -10 30 -10 17 0 30 5 30 10 0 6 14 10 30 10 17 0 30
-4 30 -10 0 -5 14 -10 30 -10 23 0 30 -4 30 -20 0 -11 5 -20 10 -20 14 0 12
-37 -2 -44 -10 -5 -10 -7 0 -12 25 -12 2 -64 -28 -64 -6 0 -29 -18 -50 -40
-21 -22 -45 -40 -52 -40 -7 0 -20 -9 -28 -20 -8 -11 -21 -20 -28 -20 -8 0 -27
-13 -42 -30 -15 -16 -31 -30 -34 -30 -3 0 -6 23 -6 50 0 28 -4 50 -10 50 -6 0
-10 50 -10 130 0 80 4 130 10 130 6 0 10 9 10 20 0 11 5 20 10 20 6 0 10 7 10
16 0 20 24 44 44 44 9 0 16 5 16 10 0 16 15 11 30 -10z m3610 -1520 c0 -11 -4
-20 -10 -20 -5 0 -10 -9 -10 -20 0 -11 5 -20 10 -20 6 0 10 -22 10 -50 0 -27
5 -50 10 -50 15 0 13 -137 -2 -144 -10 -5 -10 -7 0 -12 14 -7 16 -44 2 -44 -5
0 -10 -17 -10 -38 0 -26 -6 -42 -20 -52 -12 -8 -20 -26 -20 -42 0 -21 -5 -28
-20 -28 -12 0 -20 -7 -20 -16 0 -15 -23 -44 -34 -44 -3 0 -6 14 -6 30 0 17 5
30 10 30 6 0 10 14 10 30 0 17 5 30 10 30 6 0 10 14 10 30 0 17 5 30 10 30 6
0 10 9 10 20 0 11 5 20 10 20 6 0 10 26 10 59 0 38 5 61 13 65 10 5 10 7 0 12
-7 3 -13 23 -13 44 0 21 -6 41 -12 44 -10 5 -10 7 0 12 8 4 12 29 12 75 0 62
2 69 20 69 13 0 20 -7 20 -20z m-440 -50 c0 -16 5 -30 10 -30 6 0 10 -37 10
-90 0 -53 4 -90 10 -90 6 0 10 -9 10 -20 0 -11 -4 -20 -10 -20 -5 0 -10 -18
-10 -40 0 -33 -3 -40 -20 -40 -13 0 -20 7 -20 20 0 11 -4 20 -10 20 -5 0 -10
-17 -10 -38 0 -26 -6 -42 -20 -52 -11 -8 -20 -21 -20 -30 0 -9 -9 -22 -20 -30
-11 -8 -20 -20 -20 -28 0 -7 -24 -36 -52 -64 -31 -30 -48 -53 -40 -56 19 -6
14 -22 -8 -22 -11 0 -20 -4 -20 -10 0 -5 -9 -10 -19 -10 -11 0 -22 -6 -25 -12
-5 -10 -7 -10 -12 0 -3 6 -19 12 -35 12 -34 0 -37 10 -9 30 11 8 20 21 20 28
0 8 14 27 30 42 17 15 30 33 30 40 0 7 14 25 30 40 17 15 30 35 30 44 0 9 5
16 10 16 6 0 10 9 10 20 0 11 5 20 10 20 6 0 10 9 10 19 0 11 6 22 13 24 9 4
8 8 -3 17 -11 9 -12 13 -2 17 14 6 16 43 2 43 -5 0 -10 -9 -10 -20 0 -11 -4
-20 -10 -20 -5 0 -10 -7 -10 -16 0 -9 -13 -29 -30 -44 -16 -15 -30 -34 -30
-42 0 -7 -9 -20 -20 -28 -11 -8 -20 -20 -20 -28 0 -18 -25 -42 -44 -42 -9 0
-16 -4 -16 -10 0 -5 -9 -10 -20 -10 -13 0 -20 -7 -20 -20 0 -11 -4 -20 -10
-20 -5 0 -10 -12 -10 -26 0 -16 -12 -37 -30 -54 -16 -15 -30 -35 -30 -43 0 -9
-6 -17 -12 -20 -8 -2 -9 -8 -4 -13 5 -5 11 -4 13 4 3 6 9 12 14 12 14 0 10
-30 -6 -47 -14 -14 -18 -13 -35 8 -11 12 -23 19 -27 15 -4 -4 -1 -11 7 -16 12
-7 11 -12 -8 -28 -22 -20 -30 -52 -12 -52 6 0 10 5 10 10 0 6 9 10 20 10 13 0
20 -7 20 -20 0 -17 -7 -20 -50 -20 -27 0 -50 5 -50 10 0 6 -7 10 -16 10 -20 0
-49 29 -39 38 4 4 10 1 12 -5 11 -30 23 -9 23 37 0 28 5 50 10 50 6 0 10 9 10
20 0 11 5 20 10 20 6 0 10 7 10 16 0 20 24 44 44 44 9 0 16 8 16 20 0 12 7 20
16 20 19 0 44 24 44 42 0 8 9 20 20 28 11 8 20 22 20 32 0 10 5 18 10 18 6 0
10 9 10 20 0 11 5 20 10 20 6 0 10 9 10 20 0 11 5 20 10 20 6 0 10 9 10 20 0
11 5 20 10 20 6 0 10 9 10 20 0 11 5 20 10 20 6 0 10 9 10 20 0 11 5 20 10 20
6 0 10 9 10 20 0 11 5 20 10 20 6 0 10 11 10 25 0 29 79 115 105 115 8 0 15 9
15 20 0 24 6 25 26 6 16 -16 19 -86 4 -86 -5 0 -10 -22 -10 -50 0 -27 5 -50
10 -50 6 0 10 9 10 20 0 11 5 20 10 20 6 0 10 -13 10 -30 0 -16 5 -30 10 -30
6 0 10 -9 10 -20 0 -11 5 -20 10 -20 6 0 10 48 10 125 0 87 4 130 13 140 19
22 27 18 27 -15z m640 -658 c0 -136 -2 -149 -20 -162 -11 -8 -20 -22 -20 -32
0 -10 -4 -18 -10 -18 -5 0 -10 -9 -10 -20 0 -11 -4 -20 -10 -20 -5 0 -10 -9
-10 -20 0 -11 -4 -20 -10 -20 -5 0 -10 -13 -10 -28 0 -16 -8 -34 -20 -42 -11
-8 -20 -22 -20 -32 0 -10 -4 -18 -10 -18 -5 0 -10 -7 -10 -15 0 -27 -127 -145
-155 -145 -14 0 -25 -4 -25 -10 0 -5 -13 -10 -30 -10 -30 0 -40 14 -17 24 10
5 10 7 0 12 -15 7 -17 44 -3 44 6 0 10 -4 10 -10 0 -5 9 -10 20 -10 11 0 20 5
20 10 0 6 7 10 15 10 19 0 125 104 125 123 0 7 9 19 20 27 11 8 20 22 20 32 0
10 5 18 10 18 6 0 10 9 10 20 0 11 5 20 10 20 6 0 10 14 10 30 0 17 5 30 10
30 6 0 10 8 10 18 0 10 9 24 20 32 16 12 20 26 20 72 0 32 4 58 10 58 6 0 10
37 10 90 0 83 1 90 20 90 19 0 20 -7 20 -148z m-532 111 c12 -12 13 -18 4 -21
-16 -5 -16 -39 1 -46 10 -5 10 -7 0 -12 -7 -3 -13 -19 -13 -35 0 -16 -4 -29
-10 -29 -5 0 -10 -13 -10 -29 0 -16 -6 -32 -12 -34 -10 -4 -9 -8 2 -17 11 -9
12 -13 3 -17 -15 -6 -18 -63 -3 -63 6 0 10 13 10 29 0 16 6 32 13 34 9 4 8 8
-3 16 -8 5 -11 13 -8 17 4 3 15 -2 25 -12 13 -12 14 -19 5 -22 -7 -2 -12 -20
-12 -42 0 -21 -6 -41 -12 -44 -10 -5 -10 -7 0 -12 8 -4 12 -31 12 -85 0 -46 4
-79 10 -79 6 0 10 -9 10 -20 0 -11 -4 -20 -10 -20 -5 0 -10 -9 -10 -20 0 -11
-4 -20 -10 -20 -5 0 -10 -7 -10 -16 0 -15 -23 -44 -34 -44 -3 0 -6 18 -6 40 0
22 -4 40 -10 40 -5 0 -10 9 -10 20 0 11 5 20 10 20 6 0 10 43 10 110 0 67 -4
110 -10 110 -5 0 -10 9 -10 20 0 11 -4 20 -10 20 -5 0 -10 -9 -10 -20 0 -11
-4 -20 -10 -20 -5 0 -10 -9 -10 -20 0 -11 5 -20 10 -20 6 0 10 -27 10 -60 0
-33 -4 -60 -10 -60 -5 0 -10 -18 -10 -40 0 -22 -4 -40 -10 -40 -6 0 -10 -32
-10 -76 0 -56 -4 -80 -16 -91 -13 -14 -17 -14 -24 -2 -7 11 -13 9 -28 -9 -26
-29 -32 -28 -32 8 0 27 -3 30 -30 30 -28 0 -30 2 -30 40 0 22 5 40 10 40 14 0
12 37 -2 44 -10 5 -10 7 0 12 6 3 12 19 12 35 0 26 -4 29 -30 29 -16 0 -30 -4
-30 -10 0 -5 -9 -10 -20 -10 -11 0 -20 5 -20 10 0 6 -13 10 -30 10 -21 0 -30
5 -30 16 0 20 24 44 44 44 9 0 16 8 16 20 0 13 7 20 20 20 13 0 20 7 20 20 0
13 7 20 20 20 24 0 25 6 5 27 -14 14 -18 13 -34 -6 -10 -12 -24 -21 -30 -21
-18 0 -107 -93 -93 -98 13 -4 17 -42 4 -42 -4 0 -14 9 -22 20 -15 21 -70 28
-70 10 0 -5 -22 -10 -50 -10 -27 0 -50 5 -50 10 0 6 -33 10 -80 10 -47 0 -80
4 -80 10 0 6 5 10 10 10 14 0 12 37 -2 44 -10 5 -10 7 0 12 6 3 12 14 12 24 0
10 -6 20 -12 23 -7 2 -10 8 -6 12 5 5 16 -2 27 -13 19 -23 91 -32 91 -12 0 6
9 10 20 10 11 0 20 5 20 10 0 6 9 10 20 10 11 0 20 5 20 10 0 6 23 10 50 10
28 0 50 5 50 10 0 6 13 10 28 10 16 0 34 8 42 20 8 12 26 20 42 20 15 0 28 5
28 10 0 6 18 10 40 10 22 0 40 -4 40 -10 0 -5 -13 -10 -30 -10 -16 0 -30 -4
-30 -10 0 -5 9 -10 19 -10 11 0 21 -6 24 -12 3 -9 11 -6 24 10 25 27 33 28 33
2 0 -11 -4 -20 -10 -20 -5 0 -10 -9 -10 -20 0 -13 7 -20 20 -20 13 0 20 -7 20
-20 0 -11 5 -20 10 -20 6 0 10 9 10 20 0 11 -4 20 -10 20 -5 0 -10 9 -10 20 0
13 7 20 20 20 11 0 20 -4 20 -10 0 -5 14 -10 30 -10 26 0 30 4 30 26 0 29 21
54 44 54 9 0 16 8 16 20 0 11 -4 20 -10 20 -5 0 -10 14 -10 30 0 17 5 30 10
30 14 0 12 38 -2 43 -8 2 -9 8 -4 13 5 5 11 4 13 -3 7 -20 23 -15 23 7 0 11 5
20 10 20 6 0 10 9 10 20 0 24 25 26 48 3z m632 -153 c0 -53 -4 -90 -10 -90 -6
0 -10 -30 -10 -70 0 -40 -4 -70 -10 -70 -5 0 -10 -9 -10 -20 0 -11 -4 -20 -10
-20 -5 0 -10 -7 -10 -16 0 -15 -23 -44 -34 -44 -3 0 -6 14 -6 30 0 17 5 30 10
30 6 0 10 27 10 60 0 33 4 60 10 60 6 0 10 18 10 40 0 22 5 40 10 40 6 0 10
33 10 80 0 73 2 80 20 80 19 0 20 -7 20 -90z m-3120 -126 c0 -25 26 -44 60
-44 23 0 40 -9 60 -30 27 -29 60 -40 60 -20 0 6 9 10 20 10 13 0 20 -7 20 -20
0 -11 5 -20 10 -20 6 0 10 -7 10 -16 0 -22 25 -44 50 -44 23 0 50 -22 50 -40
0 -6 7 -19 16 -27 13 -14 17 -14 24 -2 5 7 13 10 17 5 4 -5 2 -11 -4 -13 -20
-7 -15 -23 7 -23 11 0 20 5 20 10 0 6 14 10 30 10 26 0 30 -4 30 -26 0 -37 22
-54 70 -54 36 0 70 -17 70 -34 0 -3 -13 -6 -30 -6 -16 0 -30 -4 -30 -10 0 -5
9 -10 20 -10 11 0 20 -3 20 -6 0 -14 -31 -34 -54 -34 -14 0 -26 -4 -26 -10 0
-5 -22 -10 -50 -10 -27 0 -50 -4 -50 -10 0 -5 -22 -10 -50 -10 -27 0 -50 -4
-50 -10 0 -6 -67 -10 -180 -10 -113 0 -180 4 -180 10 0 6 -63 10 -170 10 -107
0 -170 -4 -170 -10 0 -15 -29 -12 -46 4 -17 17 -21 206 -4 206 6 0 10 30 10
70 0 57 3 70 16 70 27 0 44 -27 44 -70 0 -43 17 -70 44 -70 12 0 16 10 16 35
0 27 8 44 35 70 19 19 39 35 45 35 12 0 40 24 40 34 0 3 -9 6 -20 6 -13 0 -20
7 -20 20 0 11 4 20 8 20 4 0 14 -9 22 -20 8 -12 26 -20 42 -20 21 0 28 -5 28
-20 0 -11 5 -20 10 -20 6 0 10 18 10 40 0 22 5 40 10 40 6 0 10 5 10 10 0 6
-9 10 -20 10 -11 0 -20 -4 -20 -10 0 -5 -4 -10 -10 -10 -5 0 -10 9 -10 20 0
13 7 20 20 20 11 0 20 5 20 10 0 6 14 10 30 10 17 0 30 5 30 10 0 6 9 10 20
10 12 0 20 -7 20 -16z m-1265 -69 c17 -16 25 -35 25 -60 0 -19 5 -35 10 -35 6
0 10 -18 10 -40 0 -38 2 -40 30 -40 17 0 30 -2 30 -5 0 -3 -16 -21 -35 -40
-33 -33 -85 -48 -85 -25 0 6 9 10 20 10 13 0 20 7 20 20 0 11 -4 20 -10 20 -5
0 -10 -4 -10 -10 0 -5 -13 -10 -28 -10 -16 0 -34 -8 -42 -20 -8 -11 -20 -20
-28 -20 -18 0 -42 25 -42 44 0 9 -4 16 -10 16 -6 0 -10 35 -10 86 0 66 4 89
17 102 12 12 18 13 21 4 6 -19 36 -14 52 8 19 26 36 25 65 -5z m-195 -115 c0
-60 4 -100 10 -100 6 0 10 -13 10 -29 0 -16 6 -31 12 -33 9 -3 8 -9 -4 -22
-17 -16 -20 -15 -53 18 -19 19 -35 42 -35 51 0 8 -4 15 -10 15 -5 0 -10 9 -10
20 0 11 -4 20 -10 20 -5 0 -10 18 -10 40 0 22 5 40 10 40 6 0 10 9 10 20 0 13
7 20 18 20 10 0 24 9 32 20 8 11 18 20 22 20 4 0 8 -45 8 -100z m3120 -630 c0
-5 7 -10 15 -10 9 0 27 -11 40 -25 32 -31 34 -84 5 -105 -12 -8 -20 -26 -20
-42 0 -21 -5 -28 -20 -28 -11 0 -20 5 -20 10 0 6 -8 10 -18 10 -10 0 -24 9
-32 20 -8 11 -22 20 -32 20 -10 0 -18 5 -18 10 0 6 5 10 10 10 6 0 10 9 10 20
0 13 7 20 20 20 27 0 25 7 -10 40 -16 15 -30 31 -30 34 0 3 18 6 40 6 22 0 40
5 40 10 0 6 5 10 10 10 6 0 10 -4 10 -10z m1080 -720 c0 -5 9 -10 20 -10 13 0
20 -7 20 -20 0 -11 5 -20 10 -20 6 0 10 5 10 10 0 6 9 10 20 10 18 0 20 -7 20
-76 0 -78 -11 -104 -44 -104 -9 0 -16 -4 -16 -10 0 -6 -27 -10 -60 -10 -33 0
-60 -4 -60 -10 0 -5 -13 -10 -30 -10 -16 0 -30 3 -30 6 0 14 31 34 54 34 14 0
26 5 26 10 0 6 11 10 25 10 29 0 75 40 75 65 0 8 9 15 20 15 24 0 25 6 5 26
-13 14 -17 14 -30 0 -8 -8 -15 -26 -15 -40 0 -19 -5 -26 -20 -26 -11 0 -20 -4
-20 -10 0 -5 -9 -10 -20 -10 -13 0 -20 7 -20 20 0 11 5 20 10 20 6 0 10 9 10
20 0 11 -4 20 -10 20 -5 0 -10 -9 -10 -20 0 -11 -3 -20 -6 -20 -11 0 -34 29
-34 44 0 9 -8 16 -20 16 -11 0 -20 5 -20 10 0 6 5 10 10 10 6 0 10 9 10 20 0
16 7 20 30 20 17 0 30 5 30 10 0 6 14 10 30 10 17 0 30 -4 30 -10z m-80 -620
c0 -5 18 -10 40 -10 22 0 40 -4 40 -10 0 -6 30 -10 70 -10 40 0 70 -4 70 -10
0 -5 14 -10 30 -10 17 0 30 -4 30 -10 0 -5 9 -10 20 -10 11 0 20 -4 20 -10 0
-5 9 -10 20 -10 16 0 20 -7 20 -30 0 -16 5 -30 10 -30 6 0 10 -9 10 -20 0 -13
7 -20 20 -20 17 0 20 -7 20 -46 0 -66 -12 -74 -120 -74 -83 0 -93 2 -115 25
-30 29 -31 35 -5 35 33 0 26 47 -12 83 -21 19 -28 32 -20 34 21 8 14 43 -8 43
-11 0 -20 -4 -20 -10 0 -5 -4 -10 -10 -10 -5 0 -10 9 -10 20 0 16 -7 20 -30
20 -23 0 -30 4 -30 20 0 15 -7 20 -26 20 -23 0 -54 20 -54 34 0 3 9 6 20 6 11
0 20 -4 20 -10z m20 -450 c0 -11 7 -20 15 -20 20 0 65 -45 65 -65 0 -8 5 -15
10 -15 6 0 10 -9 10 -20 0 -11 5 -20 10 -20 6 0 10 -18 10 -40 0 -22 5 -40 10
-40 6 0 10 -22 10 -50 0 -27 -4 -50 -10 -50 -5 0 -10 -8 -10 -18 0 -10 -9 -24
-20 -32 -12 -8 -20 -26 -20 -42 0 -15 -4 -28 -10 -28 -6 0 -10 -27 -10 -60 l0
-60 -30 0 c-21 0 -30 -5 -30 -16 0 -15 -23 -44 -34 -44 -3 0 -6 18 -6 40 0 22
5 40 10 40 6 0 10 27 10 60 0 33 4 60 10 60 6 0 10 29 10 66 0 63 1 67 40 104
38 36 52 70 30 70 -5 0 -10 9 -10 20 0 11 -4 20 -10 20 -5 0 -10 9 -10 20 0
11 -4 20 -10 20 -5 0 -10 -13 -10 -30 0 -16 5 -30 10 -30 6 0 10 -13 10 -30 0
-16 -4 -30 -10 -30 -5 0 -10 -9 -10 -20 0 -24 -6 -25 -28 -3 -12 12 -13 18 -4
21 14 4 16 42 2 42 -6 0 -10 27 -10 60 0 33 -4 60 -10 60 -5 0 -10 -9 -10 -20
0 -11 -4 -20 -10 -20 -5 0 -10 9 -10 20 0 11 5 20 10 20 6 0 10 18 10 40 0 33
3 40 20 40 13 0 20 -7 20 -20z"/>
<path d="M9160 11710 c0 -5 9 -10 20 -10 11 0 20 -4 20 -10 0 -5 14 -10 30
-10 17 0 30 -4 30 -10 0 -5 9 -10 20 -10 11 0 20 -4 20 -10 0 -5 8 -10 18 -10
10 0 24 -9 32 -20 8 -11 21 -20 30 -20 9 0 22 -9 30 -20 8 -11 21 -20 30 -20
9 0 22 -9 30 -20 8 -12 26 -20 42 -20 15 0 28 -4 28 -10 0 -5 9 -10 20 -10 11
0 20 -4 20 -10 0 -5 9 -10 20 -10 11 0 20 -4 20 -10 0 -5 9 -10 20 -10 11 0
20 7 20 15 0 20 -65 85 -85 85 -8 0 -15 5 -15 10 0 6 -8 10 -18 10 -10 0 -24
9 -32 20 -8 11 -22 20 -32 20 -10 0 -18 5 -18 10 0 6 -13 10 -30 10 -16 0 -30
5 -30 10 0 6 -13 10 -30 10 -16 0 -30 5 -30 10 0 6 -13 10 -30 10 -16 0 -30 5
-30 10 0 6 -18 10 -40 10 -22 0 -40 5 -40 10 0 6 -9 10 -20 10 -11 0 -20 -4
-20 -10z"/>
<path d="M9140 11430 c0 -5 -18 -10 -40 -10 -22 0 -40 -4 -40 -10 0 -5 -7 -10
-16 -10 -15 0 -44 -23 -44 -34 0 -3 13 -6 29 -6 16 0 32 -6 35 -12 5 -10 7
-10 12 0 3 6 14 12 25 12 10 0 19 5 19 10 0 6 14 10 30 10 23 0 30 -4 30 -20
0 -11 5 -20 10 -20 6 0 10 -9 10 -20 0 -11 5 -20 10 -20 6 0 10 -7 10 -16 0
-30 27 -44 84 -44 44 0 56 3 56 15 0 23 46 65 70 65 22 0 70 -41 70 -60 0 -6
11 -22 25 -36 l25 -25 25 25 c31 31 34 76 5 76 -13 0 -20 7 -20 20 0 11 -4 20
-10 20 -5 0 -10 9 -10 20 0 16 -7 20 -30 20 -16 0 -30 5 -30 10 0 6 -9 10 -20
10 -11 0 -20 5 -20 10 0 6 -27 10 -60 10 -33 0 -60 4 -60 10 0 6 -37 10 -90
10 -53 0 -90 -4 -90 -10z"/>
<path d="M9260 10314 c0 -16 33 -34 64 -34 20 0 36 -4 36 -10 0 -5 14 -10 30
-10 17 0 30 -4 30 -10 0 -5 14 -10 30 -10 17 0 30 -4 30 -10 0 -5 9 -10 20
-10 11 0 20 -4 20 -10 0 -5 14 -10 30 -10 17 0 30 -4 30 -10 0 -5 9 -10 20
-10 11 0 20 -4 20 -10 0 -6 27 -10 60 -10 33 0 60 4 60 10 0 6 -17 10 -38 10
-26 0 -42 6 -52 20 -8 12 -26 20 -42 20 -15 0 -28 5 -28 10 0 6 -13 10 -30 10
-16 0 -30 5 -30 10 0 6 -9 10 -20 10 -11 0 -20 5 -20 10 0 6 -18 10 -40 10
-22 0 -40 5 -40 10 0 6 -27 10 -60 10 -33 0 -60 4 -60 10 0 6 -4 10 -10 10 -5
0 -10 -3 -10 -6z"/>
<path d="M10180 13270 c0 -5 -18 -10 -40 -10 -33 0 -40 -3 -40 -20 0 -11 5
-20 10 -20 6 0 10 5 10 10 0 15 57 12 64 -2 5 -10 7 -10 12 0 7 14 64 17 64 2
0 -5 14 -10 30 -10 17 0 30 -4 30 -10 0 -5 14 -10 30 -10 17 0 30 -4 30 -10 0
-5 5 -10 10 -10 6 0 10 8 10 18 0 10 9 24 20 32 30 22 24 30 -20 30 -22 0 -40
5 -40 10 0 6 -37 10 -90 10 -53 0 -90 -4 -90 -10z"/>
<path d="M10433 13205 c-19 -21 -16 -59 7 -75 12 -8 20 -26 20 -42 0 -15 5
-28 10 -28 6 0 10 14 10 30 0 17 5 30 10 30 6 0 10 -4 10 -10 0 -5 9 -10 20
-10 11 0 20 -4 20 -10 0 -5 9 -10 20 -10 11 0 20 -4 20 -10 0 -5 9 -10 20 -10
11 0 20 -4 20 -10 0 -5 -9 -10 -20 -10 -11 0 -20 -4 -20 -10 0 -5 14 -10 30
-10 23 0 30 -4 30 -20 0 -13 7 -20 20 -20 13 0 20 7 20 20 0 16 7 20 30 20 25
0 30 4 30 25 0 27 -40 75 -62 75 -8 0 -20 9 -28 20 -8 11 -22 20 -32 20 -10 0
-18 5 -18 10 0 6 -8 10 -18 10 -10 0 -24 9 -32 20 -16 22 -65 27 -74 8 -5 -10
-7 -10 -12 0 -7 15 -16 15 -31 -3z"/>
<path d="M9950 13180 c-10 -14 -26 -20 -52 -20 -21 0 -38 -4 -38 -10 0 -5 -9
-10 -20 -10 -11 0 -20 -4 -20 -10 0 -5 -9 -10 -20 -10 -13 0 -20 -7 -20 -20 0
-11 5 -20 10 -20 6 0 10 -13 10 -30 0 -16 5 -30 10 -30 6 0 10 -7 10 -16 0
-15 23 -44 34 -44 3 0 6 9 6 20 0 11 5 20 10 20 6 0 10 9 10 20 0 11 -4 20
-10 20 -5 0 -10 5 -10 10 0 6 9 10 20 10 13 0 20 7 20 20 0 11 5 20 10 20 6 0
10 9 10 20 0 12 7 20 16 20 20 0 44 24 44 44 0 22 -13 20 -30 -4z"/>
<path d="M10600 12930 c0 -5 5 -10 10 -10 6 0 10 -18 10 -40 0 -33 3 -40 20
-40 16 0 20 -7 20 -30 0 -22 5 -30 18 -30 10 0 24 -9 32 -20 8 -11 22 -20 32
-20 10 0 18 -7 18 -16 0 -8 6 -22 14 -30 8 -8 22 -14 30 -14 9 0 16 -4 16 -10
0 -5 5 -10 10 -10 22 0 8 34 -30 70 -22 21 -40 45 -40 52 0 7 -9 20 -20 28
-11 8 -20 22 -20 32 0 10 -7 18 -16 18 -8 0 -22 6 -30 14 -8 8 -14 22 -14 30
0 9 -8 16 -20 16 -11 0 -20 5 -20 10 0 6 -4 10 -10 10 -5 0 -10 -4 -10 -10z"/>
<path d="M0 11844 c0 -98 9 -124 44 -124 9 0 16 -4 16 -10 0 -5 9 -10 19 -10
11 0 22 -6 24 -12 4 -10 8 -9 17 2 9 11 13 12 17 3 2 -7 13 -13 24 -13 10 0
19 -4 19 -10 0 -5 -4 -10 -10 -10 -18 0 -10 -31 15 -55 15 -16 36 -25 55 -25
38 0 60 -20 60 -54 0 -19 5 -26 20 -26 11 0 20 -4 20 -10 0 -5 7 -10 16 -10
23 0 44 -25 44 -54 0 -19 5 -26 20 -26 11 0 20 -4 20 -10 0 -5 12 -10 26 -10
29 0 67 -31 46 -38 -21 -7 -14 -42 8 -42 11 0 20 -4 20 -10 0 -5 9 -10 20 -10
11 0 20 -4 20 -10 0 -5 9 -10 20 -10 12 0 20 -7 20 -16 0 -20 24 -44 44 -44 9
0 16 -4 16 -10 0 -5 9 -10 20 -10 16 0 20 -7 20 -30 0 -23 5 -30 19 -30 11 0
21 6 24 13 2 7 15 0 34 -20 17 -18 38 -33 47 -33 12 0 16 -10 16 -40 0 -33 3
-40 20 -40 11 0 20 -4 20 -10 0 -5 7 -10 16 -10 20 0 44 -24 44 -44 0 -9 8
-16 20 -16 11 0 20 -4 20 -10 0 -5 9 -10 20 -10 11 0 20 -7 20 -15 0 -18 44
-65 60 -65 15 0 40 -25 40 -40 0 -14 46 -60 60 -60 6 0 46 -36 90 -80 76 -77
81 -80 125 -80 25 0 45 -4 45 -10 0 -5 14 -10 30 -10 17 0 30 2 30 5 0 13
-232 235 -245 235 -8 0 -15 5 -15 10 0 6 -9 10 -20 10 -11 0 -20 5 -20 10 0 6
-9 10 -20 10 -22 0 -27 16 -8 22 9 3 8 10 -5 23 -16 15 -20 16 -27 4 -5 -7
-12 -10 -17 -6 -4 5 -1 12 6 16 10 7 3 20 -32 55 -26 25 -51 46 -57 46 -17 0
-40 26 -40 44 0 9 -7 16 -15 16 -9 0 -60 45 -115 100 -55 55 -104 100 -110
100 -6 0 -55 45 -110 100 -55 55 -104 100 -110 100 -6 0 -42 32 -80 70 -38 39
-76 70 -85 70 -8 0 -15 9 -15 20 0 13 -7 20 -20 20 -11 0 -20 7 -20 15 0 19
-64 85 -82 85 -8 0 -20 9 -28 20 -8 11 -20 20 -27 20 -19 0 -103 86 -103 105
0 8 -7 15 -16 15 -9 0 -29 14 -44 30 -15 17 -31 30 -34 30 -3 0 -6 -43 -6 -96z"/>
<path d="M440 10915 c0 -10 89 -95 100 -95 16 0 100 -88 100 -105 0 -8 9 -15
20 -15 13 0 20 -7 20 -20 0 -11 7 -20 15 -20 9 0 60 -45 115 -100 55 -55 104
-100 110 -100 7 0 29 -18 50 -40 21 -22 44 -40 50 -40 7 0 25 -13 40 -30 15
-16 33 -30 40 -30 7 0 25 -13 40 -30 15 -16 33 -30 40 -30 7 0 25 -13 40 -30
21 -22 37 -30 63 -30 20 0 38 -6 41 -12 5 -10 7 -10 12 0 3 6 14 12 25 12 10
0 19 5 19 10 0 6 -22 10 -48 10 -36 0 -51 5 -62 20 -8 11 -21 20 -28 20 -7 0
-31 18 -52 40 -21 22 -44 40 -50 40 -7 0 -25 14 -40 30 -15 17 -33 30 -40 30
-6 0 -38 27 -70 60 -32 33 -64 60 -70 60 -6 0 -42 32 -80 70 -38 39 -74 70
-80 70 -6 0 -38 27 -70 60 -32 33 -64 60 -70 60 -6 0 -29 18 -50 40 -21 22
-44 40 -50 40 -7 0 -25 14 -40 30 -26 28 -40 37 -40 25z"/>
<path d="M0 9635 c0 -35 6 -52 25 -70 29 -30 35 -31 35 -5 0 11 5 20 10 20 6
0 10 -18 10 -40 0 -22 5 -40 10 -40 14 0 12 -37 -2 -43 -10 -4 -9 -8 2 -17 11
-9 12 -13 3 -17 -16 -6 -19 -463 -3 -463 6 0 10 -9 10 -20 0 -13 7 -20 20 -20
17 0 20 7 20 50 0 28 5 50 10 50 6 0 10 40 10 100 0 60 4 100 10 100 6 0 10 7
10 16 0 23 25 44 54 44 14 0 26 5 26 10 0 6 27 10 60 10 53 0 60 -2 60 -20 0
-11 5 -20 10 -20 6 0 10 -97 10 -270 0 -173 -4 -270 -10 -270 -6 0 -10 -67
-10 -180 0 -113 -4 -180 -10 -180 -6 0 -10 -77 -10 -210 0 -133 -4 -210 -10
-210 -5 0 -10 -9 -10 -20 0 -11 5 -20 10 -20 6 0 10 9 10 20 0 11 5 20 10 20
6 0 10 47 10 120 0 73 4 120 10 120 6 0 10 53 10 140 0 87 4 140 10 140 6 0
10 14 10 30 0 17 -4 30 -10 30 -6 0 -10 27 -10 60 0 33 4 60 10 60 6 0 10 40
10 100 0 93 1 100 20 100 17 0 20 7 20 50 0 28 -4 50 -10 50 -5 0 -10 18 -10
40 0 22 5 40 10 40 6 0 10 14 10 30 0 17 5 30 10 30 6 0 10 9 10 20 0 16 7 20
30 20 23 0 30 4 30 20 0 11 3 20 6 20 10 0 34 -28 34 -40 0 -16 47 -60 65 -60
13 0 15 -24 15 -180 0 -113 4 -180 10 -180 6 0 10 -27 10 -60 0 -33 4 -60 10
-60 6 0 10 60 10 160 0 100 4 160 10 160 6 0 10 18 10 40 0 22 5 40 10 40 6 0
10 9 10 20 0 11 5 20 10 20 6 0 10 -18 10 -40 0 -32 4 -40 18 -40 10 0 24 9
32 20 8 11 18 20 22 20 4 0 8 -9 8 -20 0 -11 5 -20 10 -20 6 0 10 -37 10 -90
0 -53 4 -90 10 -90 6 0 10 -47 10 -120 0 -73 4 -120 10 -120 6 0 10 43 10 110
0 67 4 110 10 110 6 0 10 7 10 16 0 8 7 22 15 30 13 14 17 14 30 0 8 -8 15
-22 15 -30 0 -20 76 -23 82 -4 5 15 58 -35 58 -54 0 -8 9 -20 20 -28 12 -8 20
-26 20 -42 0 -21 5 -28 20 -28 13 0 20 7 20 20 0 11 5 20 10 20 6 0 10 -4 10
-10 0 -5 14 -10 30 -10 23 0 30 -4 30 -20 0 -13 7 -20 20 -20 11 0 20 5 20 10
0 18 31 10 55 -15 19 -18 25 -35 25 -70 0 -25 5 -45 10 -45 6 0 10 -127 10
-360 0 -198 3 -360 6 -360 3 0 12 6 20 14 16 17 19 66 4 66 -6 0 -10 43 -10
110 0 67 4 110 10 110 6 0 10 23 10 50 0 28 -4 50 -10 50 -6 0 -10 27 -10 60
0 33 4 60 10 60 6 0 10 33 10 80 0 73 2 80 20 80 16 0 20 7 20 30 0 17 5 30
10 30 6 0 10 -4 10 -10 0 -5 14 -10 30 -10 23 0 30 -4 30 -20 0 -11 5 -20 10
-20 6 0 10 -73 10 -200 0 -127 4 -200 10 -200 6 0 10 30 10 70 0 40 4 70 10
70 6 0 10 25 10 55 0 47 4 60 27 83 17 17 28 22 31 14 6 -19 22 -14 22 8 0 11
5 20 10 20 6 0 10 -4 10 -10 0 -5 12 -10 26 -10 43 0 54 -21 54 -104 0 -44 4
-76 10 -76 6 0 10 -9 10 -20 0 -11 5 -20 10 -20 6 0 10 5 10 10 0 6 9 10 20
10 13 0 20 7 20 20 0 13 7 20 20 20 13 0 20 7 20 20 0 27 26 25 55 -5 17 -16
25 -35 25 -60 0 -19 5 -35 10 -35 6 0 10 -33 10 -80 0 -47 4 -80 10 -80 6 0
10 -25 10 -56 0 -35 5 -61 14 -70 21 -21 26 -18 26 16 0 17 -4 30 -10 30 -5 0
-10 23 -10 50 0 28 5 50 10 50 6 0 10 9 10 20 0 11 -4 20 -10 20 -5 0 -10 9
-10 20 0 11 7 20 15 20 20 0 65 45 65 65 0 21 7 19 35 -10 17 -16 25 -35 25
-60 0 -19 5 -35 10 -35 6 0 10 -9 10 -20 0 -13 7 -20 20 -20 13 0 20 -7 20
-20 0 -11 5 -20 10 -20 6 0 10 9 10 20 0 15 7 20 29 20 16 0 32 -6 35 -12 5
-10 7 -10 12 0 10 20 44 15 44 -8 0 -11 5 -20 10 -20 6 0 10 -63 10 -170 0
-107 4 -170 10 -170 6 0 10 43 10 110 0 67 4 110 10 110 6 0 10 7 10 16 0 8 6
22 14 30 17 16 46 19 46 4 0 -5 9 -10 20 -10 17 0 20 7 20 46 0 47 -16 74 -44
74 -9 0 -16 5 -16 10 0 6 -9 10 -20 10 -11 0 -20 5 -20 10 0 6 -9 10 -20 10
-11 0 -20 5 -20 10 0 6 -7 10 -16 10 -9 0 -29 14 -44 30 -15 17 -34 30 -42 30
-7 0 -20 9 -28 20 -8 11 -22 20 -32 20 -10 0 -18 5 -18 10 0 6 -9 10 -20 10
-11 0 -20 5 -20 10 0 6 -9 10 -20 10 -11 0 -20 5 -20 10 0 6 -7 10 -16 10 -8
0 -42 27 -74 60 -32 33 -66 60 -74 60 -9 0 -16 5 -16 10 0 6 -8 10 -18 10 -10
0 -24 9 -32 20 -8 11 -22 20 -32 20 -10 0 -18 5 -18 10 0 6 -9 10 -20 10 -11
0 -20 5 -20 10 0 6 -9 10 -20 10 -11 0 -20 5 -20 10 0 6 -8 10 -18 10 -10 0
-24 9 -32 20 -8 11 -22 20 -32 20 -10 0 -18 5 -18 10 0 6 -9 10 -20 10 -11 0
-20 5 -20 10 0 6 -8 10 -18 10 -10 0 -24 9 -32 20 -8 11 -21 20 -30 20 -9 0
-22 9 -30 20 -8 11 -22 20 -32 20 -10 0 -18 5 -18 10 0 6 -9 10 -20 10 -11 0
-20 5 -20 10 0 6 -7 10 -16 10 -8 0 -33 18 -54 40 -21 22 -45 40 -52 40 -7 0
-20 9 -28 20 -8 11 -21 20 -30 20 -9 0 -22 9 -30 20 -8 11 -21 20 -28 20 -8 0
-27 14 -42 30 -15 17 -35 30 -44 30 -9 0 -16 5 -16 10 0 6 -9 10 -20 10 -11 0
-20 5 -20 10 0 6 -7 10 -15 10 -20 0 -85 65 -85 85 0 8 -8 15 -18 15 -10 0
-24 9 -32 20 -8 11 -21 20 -30 20 -9 0 -22 9 -30 20 -8 11 -21 20 -30 20 -9 0
-22 9 -30 20 -8 11 -21 20 -30 20 -9 0 -22 9 -30 20 -8 11 -20 20 -28 20 -7 0
-44 32 -82 70 -38 39 -75 70 -82 70 -8 0 -20 9 -28 20 -8 11 -21 20 -30 20 -9
0 -22 9 -30 20 -8 11 -21 20 -28 20 -8 0 -27 14 -42 30 -15 17 -35 30 -44 30
-9 0 -16 5 -16 10 0 6 -9 10 -20 10 -11 0 -20 5 -20 10 0 6 -7 10 -15 10 -18
0 -65 44 -65 60 0 16 -108 120 -125 120 -8 0 -15 5 -15 10 0 6 -8 10 -18 10
-10 0 -24 9 -32 20 -8 11 -22 20 -32 20 -15 0 -18 -9 -18 -45z"/>
<path d="M60 8580 c0 -60 -4 -100 -10 -100 -6 0 -10 -37 -10 -90 0 -53 -4 -90
-10 -90 -5 0 -10 -18 -10 -40 0 -22 5 -40 10 -40 6 0 10 -13 10 -30 0 -16 -4
-30 -10 -30 -6 0 -10 -53 -10 -140 0 -77 3 -140 6 -140 3 0 12 6 20 14 11 11
14 45 14 140 0 77 4 126 10 126 6 0 10 30 10 70 0 40 4 70 10 70 6 0 10 9 10
20 0 11 -4 20 -10 20 -5 0 -10 13 -10 29 0 16 -6 32 -12 35 -10 5 -10 7 -1 12
8 4 13 27 13 65 0 33 4 59 10 59 6 0 10 23 10 50 0 28 -4 50 -10 50 -5 0 -10
9 -10 20 0 11 -4 20 -10 20 -6 0 -10 -40 -10 -100z"/>
<path d="M5233 7845 c-7 -8 -13 -21 -13 -30 0 -8 -4 -15 -10 -15 -6 0 -10 -63
-10 -170 0 -107 -4 -170 -10 -170 -6 0 -10 -107 -10 -300 0 -193 -4 -300 -10
-300 -6 0 -10 -73 -10 -200 0 -127 -4 -200 -10 -200 -6 0 -10 -80 -10 -220 0
-140 -4 -220 -10 -220 -6 0 -10 -80 -10 -220 0 -140 -4 -220 -10 -220 -6 0
-10 -70 -10 -190 0 -120 -4 -190 -10 -190 -6 0 -10 -90 -10 -250 0 -160 -4
-250 -10 -250 -6 0 -10 -57 -10 -150 0 -93 -4 -150 -10 -150 -6 0 -10 -63 -10
-170 0 -107 -4 -170 -10 -170 -6 0 -10 -70 -10 -190 0 -120 -4 -190 -10 -190
-6 0 -10 -70 -10 -190 0 -120 -4 -190 -10 -190 -6 0 -10 -77 -10 -210 0 -133
-4 -210 -10 -210 -6 0 -10 -80 -10 -220 0 -140 -4 -220 -10 -220 -6 0 -10 -63
-10 -170 0 -107 -4 -170 -10 -170 -6 0 -10 -73 -10 -200 0 -127 -4 -200 -10
-200 -6 0 -10 -73 -10 -200 0 -127 -4 -200 -10 -200 -6 0 -10 -63 -10 -170 0
-107 -4 -170 -10 -170 -6 0 -10 -67 -10 -180 0 -113 -4 -180 -10 -180 -6 0
-10 -53 -10 -140 0 -87 -4 -140 -10 -140 -6 0 -10 -60 -10 -160 l0 -160 160 0
160 0 0 70 c0 40 4 70 10 70 6 0 10 73 10 200 0 127 4 200 10 200 6 0 10 67
10 180 0 113 4 180 10 180 6 0 10 47 10 120 0 113 -1 120 -20 120 -19 0 -20 7
-20 220 0 140 4 220 10 220 6 0 10 83 10 230 0 147 4 230 10 230 6 0 10 73 10
200 0 127 4 200 10 200 6 0 10 70 10 190 0 120 4 190 10 190 6 0 10 77 10 210
0 133 4 210 10 210 6 0 10 67 10 180 0 113 4 180 10 180 6 0 10 73 10 200 0
127 4 200 10 200 6 0 10 87 10 240 0 153 4 240 10 240 6 0 10 63 10 170 0 107
4 170 10 170 6 0 10 67 10 180 0 113 4 180 10 180 6 0 10 107 10 300 0 193 4
300 10 300 6 0 10 83 10 230 0 147 4 230 10 230 6 0 10 97 10 270 0 173 4 270
10 270 6 0 10 73 10 200 0 127 4 200 10 200 6 0 10 68 10 185 0 184 0 186 25
210 13 14 36 25 50 25 14 0 25 5 25 10 0 6 37 10 90 10 53 0 90 -4 90 -10 0
-6 33 -10 80 -10 47 0 80 4 80 10 0 6 18 10 40 10 38 0 40 2 40 30 0 17 -4 30
-10 30 -5 0 -10 18 -10 40 0 33 -3 40 -20 40 -17 0 -20 7 -20 40 l0 40 -100 0
c-60 0 -100 4 -100 10 0 6 -82 10 -227 10 -184 -1 -230 -3 -240 -15z m113
-1219 c8 -8 14 -22 14 -30 0 -9 5 -16 10 -16 6 0 10 -9 10 -20 0 -11 -4 -20
-10 -20 -6 0 -10 -57 -10 -150 0 -93 -4 -150 -10 -150 -5 0 -10 -13 -10 -30 0
-16 5 -30 10 -30 6 0 10 -13 10 -30 0 -16 -4 -30 -10 -30 -5 0 -10 -9 -10 -20
0 -11 5 -20 10 -20 6 0 10 -13 10 -30 0 -16 -4 -30 -10 -30 -6 0 -10 -50 -10
-130 0 -80 -4 -130 -10 -130 -6 0 -10 -43 -10 -110 0 -67 -4 -110 -10 -110 -5
0 -10 14 -10 30 0 17 -4 30 -10 30 -5 0 -10 -13 -10 -30 0 -16 -4 -30 -10 -30
-5 0 -10 -9 -10 -20 0 -11 -4 -20 -10 -20 -6 0 -10 -43 -10 -109 0 -78 -4
-111 -12 -115 -10 -5 -10 -7 0 -12 8 -4 12 -35 12 -105 0 -59 4 -99 10 -99 6
0 10 -13 10 -30 0 -16 5 -30 10 -30 6 0 10 14 10 30 0 17 -4 30 -10 30 -5 0
-10 14 -10 30 0 17 5 30 10 30 6 0 10 9 10 20 0 13 7 20 20 20 13 0 20 -7 20
-20 0 -13 -7 -20 -20 -20 -16 0 -20 -7 -20 -30 0 -16 5 -30 10 -30 6 0 10 9
10 20 0 11 5 20 10 20 6 0 10 -9 10 -20 0 -11 -4 -20 -10 -20 -6 0 -10 -33
-10 -80 0 -47 -4 -80 -10 -80 -5 0 -10 -9 -10 -20 0 -11 -4 -20 -10 -20 -6 0
-10 -27 -10 -60 0 -33 -4 -60 -10 -60 -5 0 -10 -13 -10 -30 0 -16 -4 -30 -10
-30 -6 0 -10 -27 -10 -60 0 -33 -4 -60 -10 -60 -6 0 -10 -27 -10 -60 0 -33 -4
-60 -10 -60 -5 0 -10 -18 -10 -40 0 -22 5 -40 10 -40 6 0 10 -40 10 -100 0
-60 -4 -100 -10 -100 -5 0 -10 18 -10 40 0 22 -4 40 -10 40 -6 0 -10 -50 -10
-130 0 -80 -4 -130 -10 -130 -5 0 -10 -9 -10 -20 0 -11 5 -20 10 -20 6 0 10
-9 10 -20 0 -11 -4 -20 -10 -20 -5 0 -10 -22 -10 -50 0 -27 -4 -50 -10 -50
-15 0 -13 -157 3 -164 10 -5 10 -7 0 -12 -15 -7 -18 -64 -3 -64 6 0 10 -9 10
-20 0 -11 -4 -20 -10 -20 -15 0 -12 -57 3 -64 10 -5 10 -7 0 -12 -7 -3 -13
-19 -13 -35 0 -16 -4 -29 -10 -29 -6 0 -10 -53 -10 -140 0 -87 4 -140 10 -140
6 0 10 5 10 10 0 6 5 10 10 10 6 0 10 -9 10 -20 0 -13 -7 -20 -20 -20 -17 0
-20 -7 -20 -50 0 -27 5 -50 10 -50 6 0 10 -27 10 -60 0 -33 -4 -60 -10 -60 -6
0 -10 -27 -10 -60 0 -33 -4 -60 -10 -60 -6 0 -10 -67 -10 -180 0 -113 -4 -180
-10 -180 -6 0 -10 -33 -10 -80 0 -47 -4 -80 -10 -80 -6 0 -10 57 -10 150 0 93
4 150 10 150 6 0 10 97 10 270 0 173 4 270 10 270 6 0 10 90 10 250 0 160 4
250 10 250 6 0 10 70 10 190 0 120 4 190 10 190 6 0 10 77 10 210 0 133 4 210
10 210 6 0 10 67 10 180 0 113 4 180 10 180 6 0 10 9 10 20 0 11 -4 20 -10 20
-5 0 -10 18 -10 40 0 22 5 40 10 40 14 0 12 37 -2 44 -10 5 -10 7 0 12 9 4 12
53 12 195 0 119 4 189 10 189 6 0 10 63 10 170 0 107 4 170 10 170 6 0 10 63
10 170 0 107 4 170 10 170 6 0 10 9 10 20 0 11 -4 20 -10 20 -5 0 -10 9 -10
20 0 11 5 20 10 20 6 0 10 47 10 120 0 73 4 120 10 120 6 0 10 40 10 100 0 93
1 100 20 100 11 0 20 5 20 10 0 6 -9 10 -20 10 -17 0 -20 7 -20 50 0 43 3 50
20 50 12 0 20 -7 20 -16 0 -8 6 -22 14 -30 15 -15 46 -19 46 -6 0 4 -9 14 -20
22 -25 18 -28 70 -4 70 8 0 22 -6 30 -14z"/>
<path d="M1420 7490 c0 -147 -4 -230 -10 -230 -6 0 -10 -117 -10 -330 0 -213
-4 -330 -10 -330 -6 0 -10 -60 -10 -160 0 -100 -4 -160 -10 -160 -6 0 -10 -87
-10 -240 0 -153 4 -240 10 -240 6 0 10 43 10 109 0 78 4 111 13 114 9 4 8 8
-3 17 -11 9 -12 13 -2 17 9 3 12 42 12 144 0 86 4 139 10 139 7 0 10 140 10
400 0 260 4 400 10 400 6 0 10 47 10 120 0 73 4 120 10 120 6 0 10 14 10 30 0
17 -4 30 -10 30 -6 0 -10 53 -10 140 0 87 -4 140 -10 140 -6 0 -10 -83 -10
-230z"/>
<path d="M12800 7690 c0 -6 130 -10 370 -10 240 0 370 -4 370 -10 0 -6 103
-10 290 -10 187 0 290 4 290 10 0 6 -87 10 -240 10 -153 0 -240 4 -240 10 0 7
-147 10 -420 10 -273 0 -420 -3 -420 -10z"/>
<path d="M2060 7400 c0 -22 -4 -40 -10 -40 -6 0 -10 -97 -10 -270 0 -173 4
-270 10 -270 6 0 10 50 10 130 0 80 4 130 10 130 6 0 10 9 10 20 0 11 -4 20
-10 20 -5 0 -10 23 -10 50 0 28 5 50 10 50 15 0 12 57 -2 64 -10 5 -10 7 0 12
15 7 17 144 2 144 -5 0 -10 -18 -10 -40z"/>
<path d="M660 7100 c0 -11 -4 -20 -10 -20 -6 0 -10 -37 -10 -90 0 -53 -4 -90
-10 -90 -6 0 -10 -50 -10 -130 0 -80 -4 -130 -10 -130 -6 0 -10 -73 -10 -200
0 -127 -4 -200 -10 -200 -6 0 -10 -50 -10 -130 0 -80 -4 -130 -10 -130 -6 0
-10 -37 -10 -90 0 -53 -4 -90 -10 -90 -6 0 -10 -60 -10 -160 0 -100 -4 -160
-10 -160 -6 0 -10 -40 -10 -100 0 -60 -4 -100 -10 -100 -6 0 -10 -43 -10 -110
0 -67 -4 -110 -10 -110 -6 0 -10 -40 -10 -100 0 -60 -4 -100 -10 -100 -6 0
-10 -40 -10 -100 0 -60 -4 -100 -10 -100 -6 0 -10 -40 -10 -100 0 -60 -4 -100
-10 -100 -6 0 -10 -47 -10 -120 0 -73 -4 -120 -10 -120 -6 0 -10 -53 -10 -140
0 -87 -4 -140 -10 -140 -6 0 -10 -37 -10 -90 0 -53 -4 -90 -10 -90 -6 0 -10
-47 -10 -120 0 -73 -4 -120 -10 -120 -6 0 -10 -50 -10 -130 0 -80 -4 -130 -10
-130 -6 0 -10 -40 -10 -100 0 -60 -4 -100 -10 -100 -6 0 -10 -60 -10 -160 0
-100 -4 -160 -10 -160 -6 0 -10 -77 -10 -210 0 -133 -4 -210 -10 -210 -6 0
-10 -60 -10 -160 0 -100 -4 -160 -10 -160 -6 0 -10 -63 -10 -170 0 -107 -4
-170 -10 -170 -6 0 -10 -50 -10 -130 0 -80 -4 -130 -10 -130 -6 0 -10 -47 -10
-120 0 -73 -4 -120 -10 -120 -6 0 -10 -47 -10 -120 0 -73 -4 -120 -10 -120 -6
0 -10 -33 -10 -80 0 -47 -4 -80 -10 -80 -6 0 -10 -37 -10 -90 0 -53 -4 -90
-10 -90 -6 0 -10 -57 -10 -150 0 -93 -4 -150 -10 -150 -6 0 -10 -40 -10 -100
0 -60 -4 -100 -10 -100 -5 0 -10 -18 -10 -40 0 -38 2 -40 30 -40 l30 0 0 100
c0 60 4 100 10 100 6 0 10 33 10 80 0 47 4 80 10 80 6 0 10 50 10 130 0 80 4
130 10 130 6 0 10 43 10 110 0 67 4 110 10 110 6 0 10 43 10 110 0 67 4 110
10 110 6 0 10 47 10 120 0 73 4 120 10 120 6 0 10 30 10 70 0 40 4 70 10 70 6
0 10 60 10 160 0 100 4 160 10 160 6 0 10 57 10 150 0 93 4 150 10 150 6 0 10
57 10 150 0 93 4 150 10 150 6 0 10 97 10 270 0 173 4 270 10 270 6 0 10 30
10 70 0 40 4 70 10 70 6 0 10 63 10 170 0 107 4 170 10 170 6 0 10 63 10 170
0 107 4 170 10 170 6 0 10 37 10 90 0 53 4 90 10 90 6 0 10 57 10 150 0 93 4
150 10 150 6 0 10 40 10 99 0 70 4 101 13 104 9 4 8 8 -3 17 -11 9 -12 13 -2
17 9 3 12 38 12 124 0 73 4 119 10 119 6 0 10 37 10 90 0 53 4 90 10 90 6 0
10 57 10 150 0 93 4 150 10 150 6 0 10 50 10 130 0 80 4 130 10 130 6 0 10 40
10 100 0 60 4 100 10 100 6 0 10 40 10 100 0 60 4 100 10 100 6 0 10 40 10
100 0 60 4 100 10 100 6 0 10 53 10 140 0 87 4 140 10 140 6 0 10 60 10 160 0
100 4 160 10 160 6 0 10 9 10 20 0 11 -4 20 -10 20 -5 0 -10 9 -10 20 0 11 5
20 10 20 6 0 10 67 10 180 0 113 4 180 10 180 6 0 10 14 10 30 0 17 -4 30 -10
30 -5 0 -10 -9 -10 -20z"/>
<path d="M16040 6860 c0 -153 4 -240 10 -240 6 0 10 -107 10 -300 0 -193 4
-300 10 -300 6 0 10 -110 10 -310 0 -200 4 -310 10 -310 6 0 10 -130 10 -370
0 -240 4 -370 10 -370 6 0 10 -93 10 -260 0 -167 4 -260 10 -260 6 0 10 -80
10 -220 0 -140 4 -220 10 -220 6 0 10 123 10 350 0 227 -4 350 -10 350 -6 0
-10 140 -10 400 0 260 -3 400 -10 400 -6 0 -10 83 -10 230 0 147 -4 230 -10
230 -6 0 -10 103 -10 290 0 187 -4 290 -10 290 -6 0 -10 137 -10 390 0 253 -4
390 -10 390 -5 0 -10 18 -10 40 0 22 -4 40 -10 40 -6 0 -10 -87 -10 -240z"/>
<path d="M13260 5990 c0 -533 3 -810 10 -810 7 0 10 277 10 810 0 533 -3 810
-10 810 -7 0 -10 -277 -10 -810z"/>
<path d="M280 6230 c0 -67 -4 -110 -10 -110 -6 0 -10 -47 -10 -120 0 -73 -4
-120 -10 -120 -6 0 -10 -53 -10 -140 0 -87 4 -140 10 -140 6 0 10 53 10 140 0
87 4 140 10 140 6 0 10 37 10 90 0 53 4 90 10 90 6 0 10 53 10 140 0 87 -4
140 -10 140 -6 0 -10 -43 -10 -110z"/>
<path d="M1340 5550 c0 -147 -4 -230 -10 -230 -6 0 -10 -50 -10 -130 0 -80 4
-130 10 -130 6 0 10 43 10 110 0 67 4 110 10 110 6 0 10 90 10 250 0 160 -4
250 -10 250 -6 0 -10 -83 -10 -230z"/>
<path d="M220 5480 c0 -22 -4 -40 -10 -40 -5 0 -10 -13 -10 -30 0 -16 -4 -30
-10 -30 -5 0 -10 18 -10 40 0 22 -4 40 -10 40 -6 0 -10 -40 -10 -100 0 -60 -4
-100 -10 -100 -6 0 -10 -57 -10 -150 0 -93 -4 -150 -10 -150 -6 0 -10 -30 -10
-70 0 -40 4 -70 10 -70 6 0 10 -47 10 -120 0 -73 -4 -120 -10 -120 -6 0 -10
40 -10 100 0 60 -4 100 -10 100 -6 0 -10 -50 -10 -130 0 -80 -4 -130 -10 -130
-6 0 -10 -57 -10 -150 0 -93 -4 -150 -10 -150 -6 0 -10 -47 -10 -120 0 -73 -4
-120 -10 -120 -6 0 -10 -47 -10 -120 0 -73 -4 -120 -10 -120 -6 0 -10 -63 -10
-170 0 -107 -4 -170 -10 -170 -5 0 -10 -22 -10 -50 0 -27 5 -50 10 -50 6 0 10
-67 10 -180 0 -113 -4 -180 -10 -180 -6 0 -10 -83 -10 -230 0 -147 4 -230 10
-230 6 0 10 37 10 90 0 53 4 90 10 90 6 0 10 50 10 130 0 80 4 130 10 130 6 0
10 63 10 170 0 107 4 170 10 170 6 0 10 47 10 120 0 73 4 120 10 120 6 0 10
53 10 140 0 87 4 140 10 140 6 0 10 43 10 110 0 67 4 110 10 110 6 0 10 43 10
110 0 67 4 110 10 110 6 0 10 50 10 130 0 80 4 130 10 130 6 0 10 63 10 170 0
107 4 170 10 170 6 0 10 46 10 119 0 86 3 121 13 124 9 4 8 8 -3 17 -11 9 -12
13 -2 17 9 3 12 44 12 154 0 93 4 149 10 149 6 0 10 27 10 60 0 33 -4 60 -10
60 -5 0 -10 -18 -10 -40z"/>
<path d="M12400 3460 c0 -1113 0 -1120 20 -1120 20 0 20 7 20 309 0 238 3 311
13 315 10 5 10 7 0 12 -9 4 -13 29 -13 74 0 45 -4 70 -12 73 -10 4 -9 8 2 17
11 9 12 13 3 17 -15 6 -18 63 -3 63 6 0 10 23 10 50 0 28 -4 50 -10 50 -5 0
-10 9 -10 20 0 11 5 20 10 20 6 0 10 97 10 270 0 173 -4 270 -10 270 -5 0 -10
9 -10 20 0 11 5 20 10 20 15 0 13 117 -2 124 -10 5 -10 7 0 12 14 7 17 64 2
64 -5 0 -10 9 -10 20 0 11 5 20 10 20 6 0 10 9 10 20 0 11 -4 20 -10 20 -6 0
-10 67 -10 180 0 113 -4 180 -10 180 -7 0 -10 -380 -10 -1120z"/>
<path d="M16500 4120 c0 -153 4 -240 10 -240 6 0 10 -90 10 -250 0 -160 4
-250 10 -250 6 0 10 93 10 260 0 167 -4 260 -10 260 -5 0 -10 9 -10 20 0 11 5
20 10 20 6 0 10 9 10 20 0 11 -4 20 -10 20 -6 0 -10 70 -10 190 0 120 -4 190
-10 190 -6 0 -10 -87 -10 -240z"/>
<path d="M1260 4010 c0 -107 -4 -170 -10 -170 -6 0 -10 -53 -10 -140 0 -87 -4
-140 -10 -140 -5 0 -10 -13 -10 -30 0 -16 5 -30 10 -30 6 0 10 -9 10 -20 0
-11 -4 -20 -10 -20 -6 0 -10 -47 -10 -120 0 -73 4 -120 10 -120 6 0 10 47 10
120 0 73 4 120 10 120 6 0 10 27 10 60 0 33 4 60 10 60 6 0 10 107 10 300 0
193 -4 300 -10 300 -6 0 -10 -63 -10 -170z"/>
<path d="M13280 4060 c0 -11 -4 -20 -10 -20 -6 0 -10 -103 -10 -290 0 -187 4
-290 10 -290 15 0 13 -137 -2 -144 -10 -5 -10 -7 0 -12 14 -7 16 -44 2 -44 -5
0 -10 -18 -10 -40 0 -22 5 -40 10 -40 6 0 10 -40 10 -100 0 -60 -4 -100 -10
-100 -5 0 -10 -13 -10 -30 0 -16 5 -30 10 -30 6 0 10 -33 10 -80 0 -47 4 -80
10 -80 7 0 10 227 10 660 0 433 -3 660 -10 660 -5 0 -10 -9 -10 -20z"/>
<path d="M680 3640 c0 -153 -4 -240 -10 -240 -6 0 -10 -37 -10 -90 0 -53 -4
-90 -10 -90 -6 0 -10 -53 -10 -140 0 -87 -4 -140 -10 -140 -6 0 -10 -53 -10
-140 0 -87 -4 -140 -10 -140 -6 0 -10 -60 -10 -160 0 -100 -4 -160 -10 -160
-6 0 -10 -63 -10 -170 0 -107 -4 -170 -10 -170 -6 0 -10 -50 -10 -130 0 -80
-4 -130 -10 -130 -6 0 -10 -60 -10 -160 0 -100 -4 -160 -10 -160 -6 0 -10 -73
-10 -200 0 -127 -4 -200 -10 -200 -6 0 -10 -80 -10 -220 0 -140 -4 -220 -10
-220 -6 0 -10 -67 -10 -180 0 -113 -4 -180 -10 -180 -6 0 -10 -43 -10 -110 l0
-110 26 0 c35 0 54 22 54 64 0 20 5 36 10 36 6 0 10 -18 10 -40 0 -22 -4 -40
-10 -40 -5 0 -10 -4 -10 -10 0 -5 9 -10 20 -10 18 0 20 7 20 60 0 33 -4 60
-10 60 -6 0 -10 30 -10 70 0 40 -4 70 -10 70 -5 0 -10 18 -10 40 0 22 5 40 10
40 6 0 10 -9 10 -20 0 -24 6 -25 27 -5 14 14 13 18 -6 34 -12 10 -21 30 -21
45 0 14 -4 26 -10 26 -15 0 -13 157 2 164 10 5 10 7 1 12 -16 7 -19 264 -3
264 6 0 10 9 10 20 0 11 -4 20 -10 20 -5 0 -10 18 -10 40 0 22 5 40 10 40 15
0 12 57 -2 64 -10 5 -10 7 0 12 9 4 12 53 12 194 0 141 3 190 13 194 10 5 10
7 0 12 -15 7 -17 44 -3 44 6 0 10 50 10 130 0 80 4 130 10 130 14 0 12 37 -2
44 -10 5 -10 7 -1 12 7 3 13 23 13 45 0 21 5 39 10 39 6 0 10 77 10 210 0 133
4 210 10 210 6 0 10 56 10 149 0 110 3 151 13 154 9 4 8 8 -3 17 -11 9 -12 13
-2 17 9 3 12 56 12 214 0 133 4 209 10 209 6 0 10 43 10 110 0 67 4 110 10
110 6 0 10 103 10 290 0 187 -4 290 -10 290 -6 0 -10 -87 -10 -240z"/>
<path d="M2160 3090 c0 -27 -4 -50 -10 -50 -6 0 -10 -50 -10 -130 0 -80 -4
-130 -10 -130 -6 0 -10 -43 -10 -110 0 -67 4 -110 10 -110 6 0 10 14 10 30 0
17 5 30 10 30 6 0 10 22 10 49 0 30 5 52 13 55 10 5 10 7 0 12 -15 7 -17 44
-3 44 6 0 10 67 10 180 0 113 -4 180 -10 180 -5 0 -10 -22 -10 -50z"/>
<path d="M6600 2660 c0 -153 -4 -240 -10 -240 -6 0 -10 -63 -10 -170 0 -107
-4 -170 -10 -170 -6 0 -10 -47 -10 -120 0 -113 1 -120 20 -120 11 0 20 5 20
10 0 6 -4 10 -10 10 -5 0 -10 9 -10 20 0 11 5 20 10 20 6 0 10 70 10 190 0
120 4 190 10 190 6 0 10 110 10 310 0 200 -4 310 -10 310 -6 0 -10 -87 -10
-240z"/>
<path d="M13293 2725 c-9 -9 -13 -49 -13 -119 0 -74 4 -106 13 -110 10 -5 10
-7 0 -12 -9 -4 -13 -37 -13 -115 0 -66 -4 -109 -10 -109 -6 0 -10 -53 -10
-140 0 -87 4 -140 10 -140 6 0 10 9 10 20 0 11 5 20 10 20 6 0 10 14 10 30 0
17 -4 30 -10 30 -5 0 -10 9 -10 20 0 11 5 20 10 20 6 0 10 -4 10 -10 0 -5 5
-10 10 -10 6 0 10 113 10 320 0 176 -3 320 -7 320 -5 -1 -14 -7 -20 -15z"/>
<path d="M1180 2320 c0 -153 -4 -240 -10 -240 -6 0 -10 -53 -10 -140 0 -87 4
-140 10 -140 6 0 10 53 10 140 0 87 4 140 10 140 6 0 10 87 10 240 0 153 -4
240 -10 240 -6 0 -10 -87 -10 -240z"/>
<path d="M2080 2100 c0 -73 -4 -120 -10 -120 -6 0 -10 -57 -10 -150 0 -93 -4
-150 -10 -150 -6 0 -10 -40 -10 -100 0 -60 -4 -100 -10 -100 -6 0 -10 -47 -10
-120 0 -73 -4 -120 -10 -120 -6 0 -10 -53 -10 -140 0 -87 -4 -140 -10 -140 -6
0 -10 -77 -10 -210 0 -203 1 -210 20 -210 16 0 20 7 20 30 0 17 -4 30 -10 30
-5 0 -10 14 -10 30 0 17 5 30 10 30 6 0 10 27 10 60 0 33 4 60 10 60 6 0 10
37 10 90 0 53 4 90 10 90 6 0 10 14 10 30 0 17 -4 30 -10 30 -5 0 -10 14 -10
30 0 17 5 30 10 30 6 0 10 53 10 140 0 87 4 140 10 140 6 0 10 90 10 250 0
160 4 250 10 250 6 0 10 18 10 40 0 22 -4 40 -10 40 -5 0 -10 9 -10 20 0 11 5
20 10 20 6 0 10 18 10 40 0 22 5 40 10 40 6 0 10 9 10 20 0 11 -4 20 -10 20
-6 0 -10 27 -10 60 0 33 -4 60 -10 60 -6 0 -10 -47 -10 -120z"/>
<path d="M5900 2030 c0 -5 -13 -10 -30 -10 -35 0 -38 -10 -10 -30 19 -14 20
-26 20 -262 0 -159 -4 -248 -10 -248 -6 0 -10 -77 -10 -210 0 -133 -4 -210
-10 -210 -6 0 -10 -90 -10 -250 0 -160 -4 -250 -10 -250 -6 0 -10 -60 -10
-160 0 -100 -4 -160 -10 -160 -6 0 -10 -47 -10 -120 l0 -120 78 0 c66 0 80 3
92 20 10 14 26 20 51 20 21 0 40 6 43 13 5 9 7 9 12 0 3 -7 19 -13 35 -13 16
0 29 -4 29 -10 0 -14 37 -12 44 3 5 9 7 9 12 0 3 -7 19 -13 35 -13 16 0 29 -4
29 -10 0 -6 32 -10 76 -10 86 0 104 11 104 60 0 49 -18 60 -104 60 -44 0 -76
4 -76 10 0 6 -47 10 -120 10 -73 0 -120 4 -120 10 0 6 -7 10 -16 10 -15 0 -44
23 -44 34 0 3 50 6 110 6 67 0 110 -4 110 -10 0 -6 40 -10 100 -10 60 0 100 4
100 10 0 6 12 10 26 10 33 0 54 21 54 54 0 14 5 26 10 26 6 0 10 67 10 180 0
113 4 180 10 180 6 0 10 73 10 200 0 127 4 200 10 200 6 0 10 98 10 275 l0
276 -25 24 -24 25 -226 0 c-143 0 -225 4 -225 10 0 6 -18 10 -40 10 l-40 0 0
190 c0 183 -1 190 -20 190 -11 0 -20 -4 -20 -10z"/>
<path d="M1140 1540 c0 -140 -4 -220 -10 -220 -6 0 -10 -83 -10 -230 0 -147
-4 -230 -10 -230 -6 0 -10 -80 -10 -220 0 -140 -4 -220 -10 -220 -6 0 -10 -77
-10 -210 0 -203 1 -210 20 -210 19 0 20 7 20 200 0 127 4 200 10 200 6 0 10
110 10 310 0 200 4 310 10 310 6 0 10 130 10 370 0 240 -4 370 -10 370 -6 0
-10 -80 -10 -220z"/>
<path d="M1800 1490 c0 -40 -4 -70 -10 -70 -6 0 -10 -53 -10 -140 0 -87 -4
-140 -10 -140 -6 0 -10 -57 -10 -150 0 -93 -4 -150 -10 -150 -6 0 -10 -33 -10
-80 0 -47 -4 -80 -10 -80 -6 0 -10 -43 -10 -110 0 -67 -4 -110 -10 -110 -6 0
-10 -47 -10 -120 0 -73 -4 -120 -10 -120 -6 0 -10 -43 -10 -110 0 -67 4 -110
10 -110 6 0 10 13 10 30 0 17 5 30 10 30 6 0 10 73 10 200 0 127 4 200 10 200
6 0 10 37 10 90 0 53 4 90 10 90 6 0 10 33 10 80 0 47 4 80 10 80 6 0 10 63
10 170 0 107 4 170 10 170 6 0 10 47 10 120 0 73 4 120 10 120 6 0 10 37 10
90 0 53 -4 90 -10 90 -6 0 -10 -30 -10 -70z"/>
<path d="M1340 1500 c0 -11 -4 -20 -10 -20 -6 0 -10 -90 -10 -250 0 -160 -4
-250 -10 -250 -6 0 -10 -73 -10 -200 0 -127 -4 -200 -10 -200 -6 0 -10 -53
-10 -140 0 -87 -4 -140 -10 -140 -6 0 -10 -57 -10 -150 l0 -150 30 0 c23 0 30
4 30 20 0 11 -4 20 -10 20 -5 0 -10 9 -10 20 0 13 7 20 20 20 11 0 20 5 20 10
0 6 -4 10 -10 10 -5 0 -10 18 -10 40 0 22 -4 40 -10 40 -5 0 -10 14 -10 30 0
23 4 30 20 30 19 0 20 7 20 120 0 73 4 120 10 120 15 0 12 77 -2 84 -10 5 -10
7 0 12 15 7 17 144 2 144 -6 0 -10 37 -10 90 0 53 4 90 10 90 6 0 10 -4 10
-10 0 -5 5 -10 10 -10 18 0 11 35 -10 50 -19 13 -20 26 -20 172 0 99 4 158 10
158 6 0 10 23 10 50 0 28 5 50 10 50 6 0 10 9 10 20 0 11 5 20 10 20 6 0 10 9
10 20 0 11 5 20 10 20 16 0 12 30 -7 48 -12 12 -18 13 -21 4 -6 -19 -22 -14
-22 8 0 11 -4 20 -10 20 -5 0 -10 -9 -10 -20z"/>
<path d="M16600 1261 c0 -86 -4 -121 -12 -125 -10 -5 -10 -7 0 -12 15 -7 17
-164 2 -164 -5 0 -10 -13 -10 -30 0 -16 5 -30 10 -30 6 0 10 -4 10 -10 0 -5
-13 -10 -30 -10 -30 0 -41 -15 -18 -22 9 -3 7 -10 -6 -24 -14 -13 -21 -15 -24
-6 -2 6 -12 12 -23 12 -10 0 -19 5 -19 10 0 6 -4 10 -10 10 -5 0 -10 -13 -10
-30 0 -23 -4 -30 -20 -30 -11 0 -20 -4 -20 -10 0 -6 -60 -10 -160 -10 -100 0
-160 -4 -160 -10 0 -5 -22 -10 -50 -10 -27 0 -50 -4 -50 -10 0 -6 90 -10 250
-10 160 0 250 -4 250 -10 0 -6 43 -10 110 -10 67 0 110 -4 110 -10 0 -6 40
-10 100 -10 60 0 100 -4 100 -10 0 -5 23 -10 50 -10 28 0 50 -4 50 -10 0 -6
30 -10 70 -10 40 0 70 4 70 10 0 6 -13 10 -28 10 -16 0 -34 8 -42 20 -8 12
-26 20 -42 20 -15 0 -28 5 -28 10 0 6 7 10 16 10 41 0 44 18 44 264 0 151 -4
236 -10 236 -5 0 -10 -12 -10 -26 0 -17 -14 -39 -40 -64 -26 -25 -40 -47 -40
-64 0 -14 5 -26 10 -26 6 0 10 9 10 20 0 11 5 20 10 20 16 0 12 -89 -4 -106
-8 -8 -24 -14 -36 -14 -12 0 -29 -7 -37 -16 -14 -13 -14 -17 -2 -26 11 -7 11
-11 2 -15 -7 -2 -13 -13 -13 -24 0 -14 7 -19 30 -19 17 0 30 -4 30 -10 0 -5
-18 -10 -40 -10 -22 0 -40 -4 -40 -10 0 -5 18 -10 40 -10 22 0 40 -4 40 -10 0
-6 -37 -10 -90 -10 -53 0 -90 4 -90 10 0 6 -9 10 -20 10 -11 0 -20 5 -20 10 0
6 -13 10 -30 10 -16 0 -30 -4 -30 -10 0 -5 5 -10 10 -10 6 0 10 -4 10 -10 0
-16 -50 -12 -67 6 -14 13 -14 17 -2 25 12 8 12 11 -1 20 -11 8 -12 12 -2 16
14 6 16 43 2 43 -6 0 -10 30 -10 70 0 40 -4 70 -10 70 -6 0 -10 57 -10 150 0
93 -4 150 -10 150 -6 0 -10 -46 -10 -119z"/>
<path d="M1940 260 c0 -60 -4 -100 -10 -100 -6 0 -10 -33 -10 -80 0 -66 3 -80
16 -80 38 0 44 23 44 180 0 118 -3 155 -14 166 -8 8 -17 14 -20 14 -3 0 -6
-45 -6 -100z"/>
</g>
</svg>
